<svg width="109" height="127" viewBox="0 0 109 127" fill="none" xmlns="http://www.w3.org/2000/svg">
<path d="M66.7778 64.8927H42.8185V85.1187H66.7778V64.8927Z" fill="#E6C69C"/>
<path d="M42.8185 85.048C42.8185 85.048 50.1632 80.239 56.5095 78.1882C56.5095 78.1882 64.496 77.8345 66.7778 71.4697V67.1558H42.8185V85.048Z" fill="#C1A785"/>
<path d="M92.8049 92.2616L65.7081 81.1584H55.0833H54.3702H43.8167L16.6485 92.2616C16.6485 92.2616 2.24439 100.182 0.818237 126.066H53.871H55.6537H108.707C107.28 100.182 92.8049 92.2616 92.8049 92.2616Z" fill="#E6C69C"/>
<path d="M92.8049 92.2615L75.192 85.048L54.2989 102.587L34.7606 84.9066L16.6485 92.2615C16.6485 92.2615 2.24439 100.182 0.818237 126.066H53.871H55.6537H108.707C107.28 100.182 92.8049 92.2615 92.8049 92.2615Z" fill="#8CD0E5"/>
<path d="M86.5301 112.841H24.5638V126.066H86.5301V112.841Z" fill="#052235"/>
<path d="M31.3379 86.2502L22.2819 89.9984L28.6995 122.883L39.0391 121.115L31.3379 86.2502Z" fill="#011726"/>
<path d="M79.3993 86.816L88.4554 90.4935L82.3229 124.651L71.2703 122.883L79.3993 86.816Z" fill="#011726"/>
<path d="M35.7589 116.943C35.7589 118.64 34.4041 119.984 32.6927 119.984C30.9813 119.984 29.6265 118.64 29.6265 116.943C29.6265 115.246 30.9813 113.902 32.6927 113.902C34.4041 113.902 35.7589 115.246 35.7589 116.943Z" fill="#282727"/>
<path d="M34.9032 116.872C34.9032 118.074 33.9049 119.065 32.6927 119.065C31.4805 119.065 30.4822 118.074 30.4822 116.872C30.4822 115.67 31.4805 114.68 32.6927 114.68C33.9049 114.68 34.9032 115.67 34.9032 116.872Z" fill="#3C3C3B"/>
<path d="M32.4789 116.872C32.4789 117.155 32.2649 117.297 32.051 117.297C31.7658 117.297 31.6232 117.084 31.6232 116.872C31.6232 116.589 31.8371 116.448 32.051 116.448C32.2649 116.448 32.4789 116.66 32.4789 116.872Z" fill="#DADADA"/>
<path d="M33.7624 116.872C33.7624 117.155 33.5485 117.297 33.3346 117.297C33.0494 117.297 32.9067 117.084 32.9067 116.872C32.9067 116.589 33.1207 116.448 33.3346 116.448C33.5485 116.448 33.7624 116.66 33.7624 116.872Z" fill="#DADADA"/>
<path d="M81.0393 117.721C81.0393 119.418 79.6845 120.762 77.9731 120.762C76.2617 120.762 74.9069 119.418 74.9069 117.721C74.9069 116.024 76.2617 114.68 77.9731 114.68C79.6845 114.68 81.0393 116.024 81.0393 117.721Z" fill="#282727"/>
<path d="M80.1835 117.65C80.1835 118.852 79.1852 119.842 77.973 119.842C76.7608 119.842 75.7625 118.852 75.7625 117.65C75.7625 116.448 76.7608 115.458 77.973 115.458C79.1852 115.458 80.1835 116.448 80.1835 117.65Z" fill="#3C3C3B"/>
<path d="M77.7593 117.65C77.7593 117.933 77.5453 118.075 77.3314 118.075C77.0462 118.075 76.9036 117.862 76.9036 117.65C76.9036 117.367 77.1175 117.226 77.3314 117.226C77.5453 117.155 77.7593 117.367 77.7593 117.65Z" fill="#DADADA"/>
<path d="M79.0427 117.65C79.0427 117.933 78.8288 118.075 78.6149 118.075C78.3296 118.075 78.187 117.862 78.187 117.65C78.187 117.367 78.4009 117.226 78.6149 117.226C78.9001 117.155 79.0427 117.367 79.0427 117.65Z" fill="#DADADA"/>
<path d="M34.832 29.9568C35.1173 38.3018 35.1173 46.7176 35.6877 55.0626C35.8303 57.1135 35.4025 59.3765 36.3295 61.3567C36.9713 62.7004 38.3261 63.8319 39.2531 64.8927C42.4619 68.5702 45.956 72.0355 49.5927 75.3594C49.5927 75.3594 54.4416 78.1882 61.2158 75.3594C63.0698 73.3792 64.9238 71.3283 66.7778 69.3481C68.2039 67.7923 69.5588 66.3071 70.9849 64.7513C73.1955 62.3468 74.479 61.0031 74.4077 57.75C74.4077 55.2748 74.6929 52.7995 74.7642 50.3243C74.9069 44.8081 75.3347 39.2919 75.4773 33.7757C75.5486 32.5735 75.7625 31.3005 75.6199 30.0983C75.6199 30.0983 73.9799 11.0745 53.5859 11.7817C53.5859 11.6403 38.6826 12.7011 34.832 29.9568Z" fill="#F4D2AC"/>
<path d="M73.6946 52.446L74.5503 53.2239C75.5486 54.4969 77.046 51.4559 77.046 51.4559C78.0443 48.6978 79.3279 46.1519 79.3279 43.1109C79.3279 40.1406 77.1173 38.1605 74.8355 40.2821L73.6946 52.446Z" fill="#F4D2AC"/>
<path d="M36.2576 52.446L35.4019 53.2239C34.4036 54.4969 32.9061 51.4559 32.9061 51.4559C31.9078 48.6978 30.6243 46.1519 30.6243 43.1109C30.6243 40.1406 32.8348 38.1605 35.1166 40.2821L36.2576 52.446Z" fill="#F4D2AC"/>
<path d="M72.4823 48.3442L75.6199 39.6456L77.973 33.4929L78.6861 35.8267C78.6861 35.8267 80.8253 25.9966 73.6946 12.984L75.6912 14.8935C75.6912 14.8935 74.5503 6.26557 59.2905 5.77052L61.4297 4.70972C61.4297 4.70972 44.8863 6.33629 42.7471 13.9741C42.7471 13.9741 27.4873 19.066 35.1172 40.2114L37.6843 48.3442L39.253 46.9298C38.6113 42.4744 37.9695 38.019 37.3277 33.5637C36.8999 30.6641 36.6147 28.3303 37.7556 25.643C38.6826 23.5214 40.1087 22.1069 42.5332 21.8241C45.029 21.5412 47.2395 22.8141 49.3787 24.0164C51.6606 25.2894 53.8711 26.0673 56.5095 25.7137C58.2921 25.5015 60.0035 24.7943 61.5723 23.875C61.5723 23.875 72.7676 18.4295 74.265 27.4817L71.1275 46.2933L72.4823 48.3442Z" fill="black"/>
<path d="M33.0493 31.7249C33.0493 31.7249 41.8201 43.5353 77.1174 35.756L79.0427 31.1592L33.0493 31.7249Z" fill="#CFB494"/>
<path d="M81.3244 29.6032C81.3244 32.2906 69.9865 36.8167 55.9389 36.8167C41.9627 36.8167 30.5535 32.2906 30.5535 29.6032C30.5535 26.9158 41.8914 24.7235 55.9389 24.7235C69.9865 24.7235 81.3244 26.9158 81.3244 29.6032Z" fill="#F9B233"/>
<path d="M55.7966 34.978C43.8883 34.978 34.1905 31.1591 34.1905 28.8253C34.1905 28.2595 34.7609 27.6938 35.9018 27.1987C33.2635 27.9059 31.6947 28.7546 31.6947 29.6739C31.6947 32.0077 41.3925 35.8266 53.3009 35.8266C60.289 35.8266 66.4928 34.5537 70.4147 32.9978C66.5641 34.1293 61.4299 34.978 55.7966 34.978Z" fill="#FCC133"/>
<path d="M79.7557 27.9767C80.1122 26.2795 79.827 27.7646 79.827 25.9966C79.827 12.489 69.0595 1.59802 55.725 1.59802C42.4618 1.59802 31.6231 12.5597 31.6231 25.9966C31.6231 27.7646 31.4092 26.4916 31.7657 28.1182C31.837 28.1889 59.0052 34.9073 79.7557 27.9767Z" fill="#F9B233"/>
<path d="M71.4127 29.8155C72.4823 29.6741 73.5519 29.3912 74.6215 29.2497C74.9781 29.179 75.3346 29.179 75.6912 29.179C75.9051 27.906 76.0477 26.5624 76.0477 25.2187C76.0477 12.7012 66.0646 2.58813 53.7284 2.58813C53.0154 2.58813 52.3736 2.65886 51.6605 2.65886C62.9984 3.71967 71.9119 13.4084 71.9119 25.2187C71.8405 26.7745 71.6979 28.3304 71.4127 29.8155Z" fill="#FCC133"/>
<path d="M55.7966 1.45654C42.5334 1.45654 31.6947 12.4182 31.6947 25.8551C31.6947 26.633 31.766 27.3402 31.8373 28.1181C31.9086 28.1181 31.9799 28.1889 32.1225 28.1889C34.6896 28.401 37.2567 29.1789 39.7524 29.674C39.5385 28.401 39.4672 27.1281 39.4672 25.7844C39.4672 13.6205 48.238 3.50743 59.7186 1.6687C58.3637 1.59798 57.0802 1.45654 55.7966 1.45654Z" fill="#E69E30"/>
<path d="M44.1734 4.63904C44.1734 4.63904 51.3755 7.60929 50.5198 28.0475C50.5198 28.0475 48.5232 8.59938 40.9646 6.76065C41.0359 6.68993 42.9612 5.27552 44.1734 4.63904Z" fill="#C58929"/>
<path d="M66.8489 3.93176C66.8489 3.93176 59.6468 6.90201 60.5025 27.3402C60.5025 27.3402 62.4991 7.89211 70.0577 6.05338C69.9864 6.05338 68.0611 4.56825 66.8489 3.93176Z" fill="#C58929"/>
<path d="M50.6622 29.6032C50.6622 29.6032 50.7335 11.2159 43.3176 6.05334C43.3176 6.05334 42.6045 4.92181 43.6741 4.07316C43.6741 4.07316 52.6588 -4.05969 65.7794 2.65875C65.7794 2.65875 68.2752 3.43668 66.4925 5.69973C66.4925 5.69973 60.5027 14.8934 60.4314 29.6032H50.6622Z" fill="#F9B233"/>
<path d="M64.2819 3.79034C60.2887 1.73945 56.7233 1.24442 53.7284 1.45658C56.1528 1.59802 58.8625 2.30521 61.8575 3.79034C61.8575 3.79034 64.1393 4.49755 62.4992 6.54845C62.4992 6.54845 56.5807 16.3079 56.5094 29.6033H58.9338C59.0052 16.3079 64.9237 6.54845 64.9237 6.54845C66.5637 4.49755 64.2819 3.79034 64.2819 3.79034Z" fill="#FCC133"/>
<path d="M47.2395 7.46773C47.2395 7.46773 46.5264 6.3362 47.596 5.48756C47.596 5.48756 54.2989 -0.594401 64.4959 2.09297C52.0884 -3.49394 43.6741 4.14386 43.6741 4.14386C42.6045 4.99251 43.3176 6.12404 43.3176 6.12404C50.6622 11.2159 50.6622 29.6739 50.6622 29.6739H54.5128C54.3702 25.2186 53.3719 11.711 47.2395 7.46773Z" fill="#E69E30"/>
<path d="M79.756 27.9767C79.756 27.9767 59.5759 33.9172 31.6947 28.1181C31.6947 28.1181 58.1498 35.9681 79.756 27.9767Z" fill="#B2B2B2"/>
<path d="M49.1647 74.935C50.8761 76.0666 54.8693 76.5616 54.8693 76.5616C60.0748 76.8445 61.6435 74.7936 61.6435 74.7936L70.6996 64.8927C74.4789 61.1445 74.1936 59.1644 74.1936 59.1644L74.4789 53.1532C71.8405 58.8108 62.8557 64.5391 62.8557 64.5391C59.5043 61.286 54.6554 62.9833 54.6554 62.9833C50.2343 61.3567 45.7419 64.822 45.7419 64.822C40.18 62.0639 35.545 50.3243 35.545 50.3243V55.982C34.9745 60.4374 36.7572 62.2054 36.7572 62.2054C36.7572 62.2054 46.1698 72.9549 49.1647 74.935Z" fill="black"/>
<path d="M66.2787 69.2067C65.2804 67.6508 64.496 65.6707 62.9272 64.6099L62.8559 64.5391C62.7133 64.4684 62.5707 64.327 62.4994 64.2563C59.1479 61.5689 54.7982 63.054 54.7982 63.054C50.3771 61.4274 45.8847 64.8927 45.8847 64.8927C45.8847 64.8927 45.8134 64.8928 45.8134 64.822C44.316 65.7414 43.3177 67.1558 42.7472 68.7117C45.243 71.399 47.8813 74.0864 49.2362 74.935C50.9476 76.0666 54.9408 76.5616 54.9408 76.5616C60.1462 76.8445 61.715 74.7936 61.715 74.7936L66.4926 69.5603C66.4213 69.4188 66.35 69.2774 66.2787 69.2067Z" fill="black"/>
<path d="M55.0835 65.1756C55.0835 65.1756 54.0139 64.1148 51.0903 65.8828L49.8781 66.7314C49.8781 66.7314 55.1548 70.1967 60.0037 66.7314C60.0037 66.7314 57.2227 63.8319 55.0835 65.1756Z" fill="#F4D2AC"/>
</svg>
