<svg width="70" height="27" viewBox="0 0 70 27" fill="none" xmlns="http://www.w3.org/2000/svg">
<mask id="path-1-outside-1_295_1524" maskUnits="userSpaceOnUse" x="-5.29408" y="-3.79555" width="80.0587" height="33.8074" fill="black">
<rect fill="white" x="-5.29408" y="-3.79555" width="80.0587" height="33.8074"/>
<path d="M10.3496 12.6252H4.6616C4.4336 12.6252 4.27802 12.5788 4.19487 12.4861C4.12682 12.3818 4.1223 12.2195 4.18131 11.9993L4.72639 9.96502C4.7854 9.74479 4.87533 9.58831 4.99617 9.49558C5.13212 9.39126 5.3141 9.3391 5.5421 9.3391H10.3841C10.5401 9.3391 10.6665 9.29274 10.7634 9.20001C10.8753 9.09569 10.9499 8.97398 10.9872 8.83489C11.04 8.63784 11.0368 8.49295 10.9777 8.40022C10.9305 8.3075 10.8305 8.25534 10.6776 8.24374L8.07544 7.87862C7.26649 7.76271 6.65993 7.49612 6.25574 7.07884C5.86355 6.66156 5.7979 5.96609 6.05879 4.99244L6.54795 3.16684C6.81195 2.18159 7.34383 1.42817 8.14359 0.906572C8.94646 0.37338 9.92989 0.106785 11.0939 0.106785H16.1339C16.3619 0.106785 16.5099 0.158945 16.578 0.263265C16.6611 0.355994 16.6732 0.512474 16.6142 0.732705L16.0598 2.80172C16.0008 3.02195 15.9033 3.18422 15.7673 3.28855C15.6465 3.38127 15.4721 3.42764 15.2441 3.42764H11.0501C10.8941 3.42764 10.7601 3.4798 10.6481 3.58412C10.5393 3.67685 10.4647 3.79855 10.4243 3.94924C10.3839 4.09992 10.3918 4.22742 10.4478 4.33174C10.5039 4.43606 10.6083 4.49402 10.7612 4.50561L13.3501 4.85334C14.159 4.96926 14.7656 5.23585 15.1698 5.65313C15.5739 6.07041 15.6456 6.76588 15.3847 7.73953L14.8955 9.56513C14.6315 10.5504 14.0921 11.3096 13.2772 11.8428C12.4775 12.3644 11.5016 12.6252 10.3496 12.6252ZM19.4826 12.6252H16.6926C16.4646 12.6252 16.3091 12.5788 16.2259 12.4861C16.1579 12.3818 16.1533 12.2195 16.2123 11.9993L19.2312 0.732705C19.2902 0.512474 19.3801 0.355994 19.501 0.263265C19.6369 0.158945 19.8189 0.106785 20.0469 0.106785H22.8369C23.0649 0.106785 23.2129 0.158945 23.281 0.263265C23.3641 0.355994 23.3762 0.512474 23.3172 0.732705L22.3063 4.50561H25.3123L26.3232 0.732705C26.3822 0.512474 26.4721 0.355994 26.593 0.263265C26.7289 0.158945 26.9109 0.106785 27.1389 0.106785H29.9289C30.1569 0.106785 30.3049 0.158945 30.373 0.263265C30.4562 0.355994 30.4682 0.512474 30.4092 0.732705L27.3903 11.9993C27.3313 12.2195 27.2339 12.3818 27.0979 12.4861C26.9771 12.5788 26.8026 12.6252 26.5746 12.6252H23.7846C23.5566 12.6252 23.4011 12.5788 23.3179 12.4861C23.2499 12.3818 23.2453 12.2195 23.3043 11.9993L24.3386 8.13942H21.3326L20.2983 11.9993C20.2393 12.2195 20.1419 12.3818 20.0059 12.4861C19.8851 12.5788 19.7106 12.6252 19.4826 12.6252ZM36.7768 3.75798L35.2227 6.40076H38.0487L37.9108 3.75798C37.8907 3.65366 37.8569 3.57832 37.8094 3.53196C37.7738 3.48559 37.72 3.46241 37.648 3.46241H37.198C37.126 3.46241 37.0538 3.48559 36.9814 3.53196C36.9209 3.57832 36.8527 3.65366 36.7768 3.75798ZM33.5425 11.9993C33.4835 12.2195 33.3861 12.3818 33.2501 12.4861C33.1293 12.5788 32.9548 12.6252 32.7268 12.6252H30.0808C29.8528 12.6252 29.6973 12.5788 29.6141 12.4861C29.5461 12.3818 29.5415 12.2195 29.6005 11.9993L30.8305 7.40918C30.9236 7.06145 31.0848 6.66156 31.3139 6.2095C31.555 5.75745 31.8764 5.23006 32.2779 4.62732L34.9014 0.680545C35.0262 0.483496 35.173 0.338607 35.3419 0.245879C35.5227 0.153149 35.7331 0.106785 35.9731 0.106785L40.8151 0.106785C41.0431 0.106785 41.2167 0.153149 41.3359 0.245879C41.467 0.338607 41.5422 0.483496 41.5614 0.680545L42.0699 4.62732C42.1484 5.23006 42.181 5.75745 42.1679 6.2095C42.1668 6.66156 42.1196 7.06145 42.0265 7.40918L40.7965 11.9993C40.7375 12.2195 40.6401 12.3818 40.5041 12.4861C40.3833 12.5788 40.2088 12.6252 39.9808 12.6252H37.2628C37.0228 12.6252 36.8553 12.5788 36.7601 12.4861C36.6801 12.3818 36.6695 12.2195 36.7285 11.9993L37.3808 9.56513H34.1948L33.5425 11.9993ZM49.435 3.23638L48.8387 5.46188H50.1887C50.5007 5.46188 50.7309 5.38654 50.8792 5.23585C51.0307 5.07358 51.1375 4.87653 51.1996 4.6447L51.358 4.05356C51.4201 3.82174 51.4174 3.63048 51.3498 3.4798C51.2853 3.31752 51.097 3.23638 50.785 3.23638H49.435ZM46.2713 12.6252H43.4993C43.2713 12.6252 43.1157 12.5788 43.0325 12.4861C42.9645 12.3818 42.96 12.2195 43.019 11.9993L46.0379 0.732705C46.0969 0.512474 46.1868 0.355994 46.3076 0.263265C46.4436 0.158945 46.6256 0.106785 46.8536 0.106785H52.8476C54.1916 0.106785 55.0426 0.379176 55.4006 0.923958C55.7737 1.45715 55.8454 2.15262 55.6156 3.01036L55.4013 3.81014C55.2708 4.29697 55.081 4.71425 54.8318 5.06198C54.5978 5.39813 54.2745 5.64154 53.8622 5.79222C54.4915 5.86177 54.9452 6.11678 55.2232 6.55724C55.5132 6.9977 55.5603 7.58305 55.3646 8.31329L54.377 11.9993C54.318 12.2195 54.2205 12.3818 54.0845 12.4861C53.9637 12.5788 53.7893 12.6252 53.5613 12.6252H50.7713C50.5433 12.6252 50.3877 12.5788 50.3045 12.4861C50.2365 12.3818 50.232 12.2195 50.291 11.9993L51.0038 9.3391C51.0721 9.0841 51.0678 8.89864 50.9909 8.78273C50.929 8.65523 50.7721 8.59148 50.5201 8.59148H48.0001L47.087 11.9993C47.028 12.2195 46.9305 12.3818 46.7945 12.4861C46.6737 12.5788 46.4993 12.6252 46.2713 12.6252ZM65.2282 12.6252H56.8762C56.6482 12.6252 56.4926 12.5788 56.4095 12.4861C56.3414 12.3818 56.3369 12.2195 56.3959 11.9993L59.4148 0.732705C59.4738 0.512474 59.5637 0.355994 59.6846 0.263265C59.8205 0.158945 60.0025 0.106785 60.2305 0.106785H68.5825C68.8105 0.106785 68.9585 0.158945 69.0266 0.263265C69.1097 0.355994 69.1218 0.512474 69.0628 0.732705L68.5177 2.76694C68.4587 2.98718 68.3612 3.14945 68.2253 3.25377C68.1044 3.3465 67.93 3.39286 67.702 3.39286H62.734L62.3753 4.73164H65.8853C66.1133 4.73164 66.2613 4.7838 66.3294 4.88812C66.4125 4.98085 66.4246 5.13733 66.3656 5.35756L65.8671 7.21793C65.8081 7.43816 65.7106 7.60044 65.5746 7.70476C65.4538 7.79749 65.2794 7.84385 65.0514 7.84385H61.5414L61.1407 9.3391H66.1087C66.3367 9.3391 66.4847 9.39126 66.5528 9.49558C66.636 9.58831 66.648 9.74479 66.589 9.96502L66.0439 11.9993C65.9849 12.2195 65.8874 12.3818 65.7515 12.4861C65.6306 12.5788 65.4562 12.6252 65.2282 12.6252ZM8.54547 26.1481H2.85747C2.62947 26.1481 2.47389 26.1018 2.39074 26.0091C2.32269 25.9047 2.31817 25.7425 2.37718 25.5222L2.92226 23.488C2.98127 23.2678 3.07119 23.1113 3.19204 23.0185C3.32799 22.9142 3.50997 22.8621 3.73797 22.8621H8.57997C8.73597 22.8621 8.86239 22.8157 8.95924 22.723C9.07119 22.6187 9.1458 22.4969 9.18307 22.3579C9.23587 22.1608 9.2327 22.0159 9.17354 21.9232C9.12639 21.8305 9.02637 21.7783 8.87347 21.7667L6.2713 21.4016C5.46236 21.2857 4.8558 21.0191 4.45161 20.6018C4.05942 20.1845 3.99377 19.4891 4.25466 18.5154L4.74382 16.6898C5.00782 15.7046 5.5397 14.9511 6.33946 14.4295C7.14233 13.8963 8.12576 13.6297 9.28976 13.6297H14.3298C14.5578 13.6297 14.7058 13.6819 14.7738 13.7862C14.857 13.879 14.8691 14.0354 14.81 14.2557L14.2557 16.3247C14.1966 16.5449 14.0992 16.7072 13.9632 16.8115C13.8424 16.9042 13.6679 16.9506 13.4399 16.9506H9.24594C9.08994 16.9506 8.95597 17.0028 8.84401 17.1071C8.73517 17.1998 8.66056 17.3215 8.62018 17.4722C8.57981 17.6229 8.58764 17.7504 8.64369 17.8547C8.69974 17.959 8.80421 18.017 8.9571 18.0286L11.5459 18.3763C12.3549 18.4922 12.9614 18.7588 13.3656 19.1761C13.7698 19.5934 13.8415 20.2888 13.5806 21.2625L13.0914 23.0881C12.8274 24.0733 12.288 24.8326 11.4731 25.3657C10.6733 25.8873 9.69747 26.1481 8.54547 26.1481ZM17.6785 26.1481H14.8885C14.6605 26.1481 14.5049 26.1018 14.4218 26.0091C14.3537 25.9047 14.3492 25.7425 14.4082 25.5222L17.4271 14.2557C17.4861 14.0354 17.576 13.879 17.6969 13.7862C17.8328 13.6819 18.0148 13.6297 18.2428 13.6297H23.7508C25.3828 13.6297 26.4149 13.9427 26.8472 14.5686C27.2795 15.1945 27.3605 16.0117 27.0903 17.0201L26.494 19.2456C26.2238 20.2541 25.7049 21.0712 24.9371 21.6972C24.1694 22.3231 22.9696 22.636 21.3376 22.636H19.2676L18.4942 25.5222C18.4352 25.7425 18.3377 25.9047 18.2018 26.0091C18.0809 26.1018 17.9065 26.1481 17.6785 26.1481ZM20.7736 16.8811L20.0701 19.5064H21.6901C22.0381 19.5064 22.2894 19.4195 22.444 19.2456C22.5986 19.0718 22.7054 18.8747 22.7644 18.6545L23.0113 17.733C23.0703 17.5128 23.0691 17.3157 23.0077 17.1419C22.9463 16.968 22.7416 16.8811 22.3936 16.8811H20.7736ZM33.4082 17.2809L31.8541 19.9237H34.6801L34.5422 17.2809C34.5222 17.1766 34.4883 17.1013 34.4408 17.0549C34.4052 17.0086 34.3514 16.9854 34.2794 16.9854H33.8294C33.7574 16.9854 33.6852 17.0086 33.6128 17.0549C33.5523 17.1013 33.4842 17.1766 33.4082 17.2809ZM30.174 25.5222C30.115 25.7425 30.0175 25.9047 29.8815 26.0091C29.7607 26.1018 29.5862 26.1481 29.3582 26.1481H26.7122C26.4842 26.1481 26.3287 26.1018 26.2455 26.0091C26.1775 25.9047 26.173 25.7425 26.232 25.5222L27.4619 20.9321C27.555 20.5844 27.7162 20.1845 27.9453 19.7325C28.1865 19.2804 28.5078 18.753 28.9093 18.1503L31.5328 14.2035C31.6576 14.0065 31.8044 13.8616 31.9733 13.7688C32.1541 13.6761 32.3645 13.6297 32.6045 13.6297H37.4465C37.6745 13.6297 37.8481 13.6761 37.9673 13.7688C38.0984 13.8616 38.1736 14.0065 38.1928 14.2035L38.7013 18.1503C38.7798 18.753 38.8125 19.2804 38.7993 19.7325C38.7982 20.1845 38.751 20.5844 38.6579 20.9321L37.428 25.5222C37.369 25.7425 37.2715 25.9047 37.1355 26.0091C37.0147 26.1018 36.8402 26.1481 36.6122 26.1481H33.8942C33.6542 26.1481 33.4867 26.1018 33.3915 26.0091C33.3115 25.9047 33.301 25.7425 33.36 25.5222L34.0122 23.0881H30.8262L30.174 25.5222ZM48.1047 26.1481H43.7127C42.2127 26.1481 41.1743 25.8584 40.5976 25.2788C40.0329 24.6993 39.9121 23.8067 40.2351 22.6013L41.6839 17.194C42.0069 15.9885 42.6061 15.096 43.4814 14.5165C44.3718 13.9253 45.567 13.6297 47.067 13.6297H51.459C51.687 13.6297 51.835 13.6819 51.9031 13.7862C51.9862 13.879 51.9983 14.0354 51.9393 14.2557L51.3756 16.3595C51.3165 16.5797 51.2191 16.742 51.0831 16.8463C50.9623 16.939 50.7878 16.9854 50.5598 16.9854H46.9418C46.5698 16.9854 46.2737 17.0607 46.0533 17.2114C45.836 17.3505 45.6886 17.5649 45.6109 17.8547L44.5021 21.9927C44.4245 22.2825 44.457 22.4969 44.5998 22.636C44.7456 22.7635 45.0045 22.8273 45.3765 22.8273H48.9945C49.2225 22.8273 49.3705 22.8795 49.4386 22.9838C49.5217 23.0765 49.5338 23.233 49.4748 23.4532L48.9204 25.5222C48.8614 25.7425 48.7639 25.9047 48.628 26.0091C48.5071 26.1018 48.3327 26.1481 48.1047 26.1481ZM59.7854 26.1481H51.4334C51.2054 26.1481 51.0498 26.1018 50.9667 26.0091C50.8986 25.9047 50.8941 25.7425 50.9531 25.5222L53.972 14.2557C54.031 14.0354 54.1209 13.879 54.2418 13.7862C54.3777 13.6819 54.5597 13.6297 54.7877 13.6297H63.1397C63.3677 13.6297 63.5157 13.6819 63.5838 13.7862C63.6669 13.879 63.679 14.0354 63.62 14.2557L63.0749 16.2899C63.0159 16.5101 62.9184 16.6724 62.7825 16.7767C62.6616 16.8695 62.4872 16.9158 62.2592 16.9158H57.2912L56.9325 18.2546H60.4425C60.6705 18.2546 60.8185 18.3068 60.8866 18.4111C60.9697 18.5038 60.9818 18.6603 60.9228 18.8805L60.4243 20.7409C60.3653 20.9611 60.2678 21.1234 60.1318 21.2277C60.011 21.3204 59.8366 21.3668 59.6086 21.3668H56.0986L55.6979 22.8621H60.6659C60.8939 22.8621 61.0419 22.9142 61.11 23.0185C61.1931 23.1113 61.2052 23.2678 61.1462 23.488L60.6011 25.5222C60.5421 25.7425 60.4446 25.9047 60.3087 26.0091C60.1878 26.1018 60.0134 26.1481 59.7854 26.1481Z"/>
</mask>
<path d="M10.3496 12.6252H4.6616C4.4336 12.6252 4.27802 12.5788 4.19487 12.4861C4.12682 12.3818 4.1223 12.2195 4.18131 11.9993L4.72639 9.96502C4.7854 9.74479 4.87533 9.58831 4.99617 9.49558C5.13212 9.39126 5.3141 9.3391 5.5421 9.3391H10.3841C10.5401 9.3391 10.6665 9.29274 10.7634 9.20001C10.8753 9.09569 10.9499 8.97398 10.9872 8.83489C11.04 8.63784 11.0368 8.49295 10.9777 8.40022C10.9305 8.3075 10.8305 8.25534 10.6776 8.24374L8.07544 7.87862C7.26649 7.76271 6.65993 7.49612 6.25574 7.07884C5.86355 6.66156 5.7979 5.96609 6.05879 4.99244L6.54795 3.16684C6.81195 2.18159 7.34383 1.42817 8.14359 0.906572C8.94646 0.37338 9.92989 0.106785 11.0939 0.106785H16.1339C16.3619 0.106785 16.5099 0.158945 16.578 0.263265C16.6611 0.355994 16.6732 0.512474 16.6142 0.732705L16.0598 2.80172C16.0008 3.02195 15.9033 3.18422 15.7673 3.28855C15.6465 3.38127 15.4721 3.42764 15.2441 3.42764H11.0501C10.8941 3.42764 10.7601 3.4798 10.6481 3.58412C10.5393 3.67685 10.4647 3.79855 10.4243 3.94924C10.3839 4.09992 10.3918 4.22742 10.4478 4.33174C10.5039 4.43606 10.6083 4.49402 10.7612 4.50561L13.3501 4.85334C14.159 4.96926 14.7656 5.23585 15.1698 5.65313C15.5739 6.07041 15.6456 6.76588 15.3847 7.73953L14.8955 9.56513C14.6315 10.5504 14.0921 11.3096 13.2772 11.8428C12.4775 12.3644 11.5016 12.6252 10.3496 12.6252ZM19.4826 12.6252H16.6926C16.4646 12.6252 16.3091 12.5788 16.2259 12.4861C16.1579 12.3818 16.1533 12.2195 16.2123 11.9993L19.2312 0.732705C19.2902 0.512474 19.3801 0.355994 19.501 0.263265C19.6369 0.158945 19.8189 0.106785 20.0469 0.106785H22.8369C23.0649 0.106785 23.2129 0.158945 23.281 0.263265C23.3641 0.355994 23.3762 0.512474 23.3172 0.732705L22.3063 4.50561H25.3123L26.3232 0.732705C26.3822 0.512474 26.4721 0.355994 26.593 0.263265C26.7289 0.158945 26.9109 0.106785 27.1389 0.106785H29.9289C30.1569 0.106785 30.3049 0.158945 30.373 0.263265C30.4562 0.355994 30.4682 0.512474 30.4092 0.732705L27.3903 11.9993C27.3313 12.2195 27.2339 12.3818 27.0979 12.4861C26.9771 12.5788 26.8026 12.6252 26.5746 12.6252H23.7846C23.5566 12.6252 23.4011 12.5788 23.3179 12.4861C23.2499 12.3818 23.2453 12.2195 23.3043 11.9993L24.3386 8.13942H21.3326L20.2983 11.9993C20.2393 12.2195 20.1419 12.3818 20.0059 12.4861C19.8851 12.5788 19.7106 12.6252 19.4826 12.6252ZM36.7768 3.75798L35.2227 6.40076H38.0487L37.9108 3.75798C37.8907 3.65366 37.8569 3.57832 37.8094 3.53196C37.7738 3.48559 37.72 3.46241 37.648 3.46241H37.198C37.126 3.46241 37.0538 3.48559 36.9814 3.53196C36.9209 3.57832 36.8527 3.65366 36.7768 3.75798ZM33.5425 11.9993C33.4835 12.2195 33.3861 12.3818 33.2501 12.4861C33.1293 12.5788 32.9548 12.6252 32.7268 12.6252H30.0808C29.8528 12.6252 29.6973 12.5788 29.6141 12.4861C29.5461 12.3818 29.5415 12.2195 29.6005 11.9993L30.8305 7.40918C30.9236 7.06145 31.0848 6.66156 31.3139 6.2095C31.555 5.75745 31.8764 5.23006 32.2779 4.62732L34.9014 0.680545C35.0262 0.483496 35.173 0.338607 35.3419 0.245879C35.5227 0.153149 35.7331 0.106785 35.9731 0.106785L40.8151 0.106785C41.0431 0.106785 41.2167 0.153149 41.3359 0.245879C41.467 0.338607 41.5422 0.483496 41.5614 0.680545L42.0699 4.62732C42.1484 5.23006 42.181 5.75745 42.1679 6.2095C42.1668 6.66156 42.1196 7.06145 42.0265 7.40918L40.7965 11.9993C40.7375 12.2195 40.6401 12.3818 40.5041 12.4861C40.3833 12.5788 40.2088 12.6252 39.9808 12.6252H37.2628C37.0228 12.6252 36.8553 12.5788 36.7601 12.4861C36.6801 12.3818 36.6695 12.2195 36.7285 11.9993L37.3808 9.56513H34.1948L33.5425 11.9993ZM49.435 3.23638L48.8387 5.46188H50.1887C50.5007 5.46188 50.7309 5.38654 50.8792 5.23585C51.0307 5.07358 51.1375 4.87653 51.1996 4.6447L51.358 4.05356C51.4201 3.82174 51.4174 3.63048 51.3498 3.4798C51.2853 3.31752 51.097 3.23638 50.785 3.23638H49.435ZM46.2713 12.6252H43.4993C43.2713 12.6252 43.1157 12.5788 43.0325 12.4861C42.9645 12.3818 42.96 12.2195 43.019 11.9993L46.0379 0.732705C46.0969 0.512474 46.1868 0.355994 46.3076 0.263265C46.4436 0.158945 46.6256 0.106785 46.8536 0.106785H52.8476C54.1916 0.106785 55.0426 0.379176 55.4006 0.923958C55.7737 1.45715 55.8454 2.15262 55.6156 3.01036L55.4013 3.81014C55.2708 4.29697 55.081 4.71425 54.8318 5.06198C54.5978 5.39813 54.2745 5.64154 53.8622 5.79222C54.4915 5.86177 54.9452 6.11678 55.2232 6.55724C55.5132 6.9977 55.5603 7.58305 55.3646 8.31329L54.377 11.9993C54.318 12.2195 54.2205 12.3818 54.0845 12.4861C53.9637 12.5788 53.7893 12.6252 53.5613 12.6252H50.7713C50.5433 12.6252 50.3877 12.5788 50.3045 12.4861C50.2365 12.3818 50.232 12.2195 50.291 11.9993L51.0038 9.3391C51.0721 9.0841 51.0678 8.89864 50.9909 8.78273C50.929 8.65523 50.7721 8.59148 50.5201 8.59148H48.0001L47.087 11.9993C47.028 12.2195 46.9305 12.3818 46.7945 12.4861C46.6737 12.5788 46.4993 12.6252 46.2713 12.6252ZM65.2282 12.6252H56.8762C56.6482 12.6252 56.4926 12.5788 56.4095 12.4861C56.3414 12.3818 56.3369 12.2195 56.3959 11.9993L59.4148 0.732705C59.4738 0.512474 59.5637 0.355994 59.6846 0.263265C59.8205 0.158945 60.0025 0.106785 60.2305 0.106785H68.5825C68.8105 0.106785 68.9585 0.158945 69.0266 0.263265C69.1097 0.355994 69.1218 0.512474 69.0628 0.732705L68.5177 2.76694C68.4587 2.98718 68.3612 3.14945 68.2253 3.25377C68.1044 3.3465 67.93 3.39286 67.702 3.39286H62.734L62.3753 4.73164H65.8853C66.1133 4.73164 66.2613 4.7838 66.3294 4.88812C66.4125 4.98085 66.4246 5.13733 66.3656 5.35756L65.8671 7.21793C65.8081 7.43816 65.7106 7.60044 65.5746 7.70476C65.4538 7.79749 65.2794 7.84385 65.0514 7.84385H61.5414L61.1407 9.3391H66.1087C66.3367 9.3391 66.4847 9.39126 66.5528 9.49558C66.636 9.58831 66.648 9.74479 66.589 9.96502L66.0439 11.9993C65.9849 12.2195 65.8874 12.3818 65.7515 12.4861C65.6306 12.5788 65.4562 12.6252 65.2282 12.6252ZM8.54547 26.1481H2.85747C2.62947 26.1481 2.47389 26.1018 2.39074 26.0091C2.32269 25.9047 2.31817 25.7425 2.37718 25.5222L2.92226 23.488C2.98127 23.2678 3.07119 23.1113 3.19204 23.0185C3.32799 22.9142 3.50997 22.8621 3.73797 22.8621H8.57997C8.73597 22.8621 8.86239 22.8157 8.95924 22.723C9.07119 22.6187 9.1458 22.4969 9.18307 22.3579C9.23587 22.1608 9.2327 22.0159 9.17354 21.9232C9.12639 21.8305 9.02637 21.7783 8.87347 21.7667L6.2713 21.4016C5.46236 21.2857 4.8558 21.0191 4.45161 20.6018C4.05942 20.1845 3.99377 19.4891 4.25466 18.5154L4.74382 16.6898C5.00782 15.7046 5.5397 14.9511 6.33946 14.4295C7.14233 13.8963 8.12576 13.6297 9.28976 13.6297H14.3298C14.5578 13.6297 14.7058 13.6819 14.7738 13.7862C14.857 13.879 14.8691 14.0354 14.81 14.2557L14.2557 16.3247C14.1966 16.5449 14.0992 16.7072 13.9632 16.8115C13.8424 16.9042 13.6679 16.9506 13.4399 16.9506H9.24594C9.08994 16.9506 8.95597 17.0028 8.84401 17.1071C8.73517 17.1998 8.66056 17.3215 8.62018 17.4722C8.57981 17.6229 8.58764 17.7504 8.64369 17.8547C8.69974 17.959 8.80421 18.017 8.9571 18.0286L11.5459 18.3763C12.3549 18.4922 12.9614 18.7588 13.3656 19.1761C13.7698 19.5934 13.8415 20.2888 13.5806 21.2625L13.0914 23.0881C12.8274 24.0733 12.288 24.8326 11.4731 25.3657C10.6733 25.8873 9.69747 26.1481 8.54547 26.1481ZM17.6785 26.1481H14.8885C14.6605 26.1481 14.5049 26.1018 14.4218 26.0091C14.3537 25.9047 14.3492 25.7425 14.4082 25.5222L17.4271 14.2557C17.4861 14.0354 17.576 13.879 17.6969 13.7862C17.8328 13.6819 18.0148 13.6297 18.2428 13.6297H23.7508C25.3828 13.6297 26.4149 13.9427 26.8472 14.5686C27.2795 15.1945 27.3605 16.0117 27.0903 17.0201L26.494 19.2456C26.2238 20.2541 25.7049 21.0712 24.9371 21.6972C24.1694 22.3231 22.9696 22.636 21.3376 22.636H19.2676L18.4942 25.5222C18.4352 25.7425 18.3377 25.9047 18.2018 26.0091C18.0809 26.1018 17.9065 26.1481 17.6785 26.1481ZM20.7736 16.8811L20.0701 19.5064H21.6901C22.0381 19.5064 22.2894 19.4195 22.444 19.2456C22.5986 19.0718 22.7054 18.8747 22.7644 18.6545L23.0113 17.733C23.0703 17.5128 23.0691 17.3157 23.0077 17.1419C22.9463 16.968 22.7416 16.8811 22.3936 16.8811H20.7736ZM33.4082 17.2809L31.8541 19.9237H34.6801L34.5422 17.2809C34.5222 17.1766 34.4883 17.1013 34.4408 17.0549C34.4052 17.0086 34.3514 16.9854 34.2794 16.9854H33.8294C33.7574 16.9854 33.6852 17.0086 33.6128 17.0549C33.5523 17.1013 33.4842 17.1766 33.4082 17.2809ZM30.174 25.5222C30.115 25.7425 30.0175 25.9047 29.8815 26.0091C29.7607 26.1018 29.5862 26.1481 29.3582 26.1481H26.7122C26.4842 26.1481 26.3287 26.1018 26.2455 26.0091C26.1775 25.9047 26.173 25.7425 26.232 25.5222L27.4619 20.9321C27.555 20.5844 27.7162 20.1845 27.9453 19.7325C28.1865 19.2804 28.5078 18.753 28.9093 18.1503L31.5328 14.2035C31.6576 14.0065 31.8044 13.8616 31.9733 13.7688C32.1541 13.6761 32.3645 13.6297 32.6045 13.6297H37.4465C37.6745 13.6297 37.8481 13.6761 37.9673 13.7688C38.0984 13.8616 38.1736 14.0065 38.1928 14.2035L38.7013 18.1503C38.7798 18.753 38.8125 19.2804 38.7993 19.7325C38.7982 20.1845 38.751 20.5844 38.6579 20.9321L37.428 25.5222C37.369 25.7425 37.2715 25.9047 37.1355 26.0091C37.0147 26.1018 36.8402 26.1481 36.6122 26.1481H33.8942C33.6542 26.1481 33.4867 26.1018 33.3915 26.0091C33.3115 25.9047 33.301 25.7425 33.36 25.5222L34.0122 23.0881H30.8262L30.174 25.5222ZM48.1047 26.1481H43.7127C42.2127 26.1481 41.1743 25.8584 40.5976 25.2788C40.0329 24.6993 39.9121 23.8067 40.2351 22.6013L41.6839 17.194C42.0069 15.9885 42.6061 15.096 43.4814 14.5165C44.3718 13.9253 45.567 13.6297 47.067 13.6297H51.459C51.687 13.6297 51.835 13.6819 51.9031 13.7862C51.9862 13.879 51.9983 14.0354 51.9393 14.2557L51.3756 16.3595C51.3165 16.5797 51.2191 16.742 51.0831 16.8463C50.9623 16.939 50.7878 16.9854 50.5598 16.9854H46.9418C46.5698 16.9854 46.2737 17.0607 46.0533 17.2114C45.836 17.3505 45.6886 17.5649 45.6109 17.8547L44.5021 21.9927C44.4245 22.2825 44.457 22.4969 44.5998 22.636C44.7456 22.7635 45.0045 22.8273 45.3765 22.8273H48.9945C49.2225 22.8273 49.3705 22.8795 49.4386 22.9838C49.5217 23.0765 49.5338 23.233 49.4748 23.4532L48.9204 25.5222C48.8614 25.7425 48.7639 25.9047 48.628 26.0091C48.5071 26.1018 48.3327 26.1481 48.1047 26.1481ZM59.7854 26.1481H51.4334C51.2054 26.1481 51.0498 26.1018 50.9667 26.0091C50.8986 25.9047 50.8941 25.7425 50.9531 25.5222L53.972 14.2557C54.031 14.0354 54.1209 13.879 54.2418 13.7862C54.3777 13.6819 54.5597 13.6297 54.7877 13.6297H63.1397C63.3677 13.6297 63.5157 13.6819 63.5838 13.7862C63.6669 13.879 63.679 14.0354 63.62 14.2557L63.0749 16.2899C63.0159 16.5101 62.9184 16.6724 62.7825 16.7767C62.6616 16.8695 62.4872 16.9158 62.2592 16.9158H57.2912L56.9325 18.2546H60.4425C60.6705 18.2546 60.8185 18.3068 60.8866 18.4111C60.9697 18.5038 60.9818 18.6603 60.9228 18.8805L60.4243 20.7409C60.3653 20.9611 60.2678 21.1234 60.1318 21.2277C60.011 21.3204 59.8366 21.3668 59.6086 21.3668H56.0986L55.6979 22.8621H60.6659C60.8939 22.8621 61.0419 22.9142 61.11 23.0185C61.1931 23.1113 61.2052 23.2678 61.1462 23.488L60.6011 25.5222C60.5421 25.7425 60.4446 25.9047 60.3087 26.0091C60.1878 26.1018 60.0134 26.1481 59.7854 26.1481Z" fill="#222222"/>
<path d="M4.19487 12.4861L0.517431 15.053L0.628236 15.2229L0.763638 15.3739L4.19487 12.4861ZM4.99617 9.49558L7.09255 12.2276L7.09255 12.2276L4.99617 9.49558ZM10.7634 9.20001L8.24156 6.82793L8.21285 6.85468L8.18454 6.88179L10.7634 9.20001ZM10.9777 8.40022L7.15651 10.7184L7.21574 10.8349L7.28563 10.9445L10.9777 8.40022ZM10.6776 8.24374L9.09773 12.0701L9.21674 12.0868L9.33859 12.0961L10.6776 8.24374ZM8.07544 7.87862L6.48487 11.7035L6.49557 11.705L8.07544 7.87862ZM6.25574 7.07884L2.86653 10.0124L2.88024 10.027L2.89419 10.0414L6.25574 7.07884ZM8.14359 0.906572L9.87528 3.89691L9.89553 3.88371L9.91568 3.87033L8.14359 0.906572ZM16.578 0.263265L12.9005 2.83016L13.0113 3.00003L13.1467 3.15103L16.578 0.263265ZM10.6481 3.58412L12.9767 6.12838L13.0754 6.04434L13.17 5.9562L10.6481 3.58412ZM10.7612 4.50561L12.3194 0.676251L12.211 0.661686L12.1002 0.653289L10.7612 4.50561ZM13.3501 4.85334L14.9406 1.02847L14.9245 1.02616L14.9083 1.02398L13.3501 4.85334ZM15.1698 5.65313L18.5313 2.69061L18.5313 2.69061L15.1698 5.65313ZM13.2772 11.8428L15.0089 14.8331L15.0162 14.8284L13.2772 11.8428ZM11.3849 8.76148H5.69687L3.62632 16.4889H9.31432L11.3849 8.76148ZM5.69687 8.76148C5.90979 8.76148 6.89787 8.78623 7.6261 9.59832L0.763638 15.3739C1.65818 16.3714 2.95741 16.4889 3.62632 16.4889L5.69687 8.76148ZM7.87231 9.91919C8.46825 10.8328 8.23642 11.7936 8.18131 11.9993H0.181313C0.00818489 12.6454 -0.214604 13.9308 0.517431 15.053L7.87231 9.91919ZM8.18131 11.9993L8.72639 9.96502H0.726386L0.181313 11.9993H8.18131ZM8.72639 9.96502C8.68863 10.1059 8.59624 10.4024 8.37917 10.7801C8.15476 11.1706 7.75351 11.7205 7.09255 12.2276L2.8998 6.76353C1.36579 7.94062 0.884175 9.37615 0.726386 9.96502H8.72639ZM7.09255 12.2276C5.90624 13.1379 4.82209 13.2028 4.50682 13.2028L6.57738 5.4754C5.80611 5.4754 4.35801 5.6446 2.8998 6.76353L7.09255 12.2276ZM4.50682 13.2028H9.34882L11.4194 5.4754H6.57738L4.50682 13.2028ZM9.34882 13.2028C10.3505 13.2028 11.9365 12.8642 13.3422 11.5182L8.18454 6.88179C8.72661 6.36277 9.35958 5.97748 9.99784 5.7434C10.6017 5.52194 11.0985 5.4754 11.4194 5.4754L9.34882 13.2028ZM13.2852 11.5721C14.1649 10.7523 14.7327 9.7848 14.9872 8.83489H6.9872C7.16719 8.16317 7.58574 7.43904 8.24156 6.82793L13.2852 11.5721ZM14.9872 8.83489C15.1489 8.23153 15.3799 6.9693 14.6697 5.85596L7.28563 10.9445C6.69372 10.0166 6.93113 9.04415 6.9872 8.83489H14.9872ZM14.7988 6.082C14.1711 4.84753 12.9311 4.46075 12.0166 4.39142L9.33859 12.0961C8.7299 12.0499 7.68994 11.7675 7.15651 10.7184L14.7988 6.082ZM12.2575 4.41736L9.6553 4.05224L6.49557 11.705L9.09773 12.0701L12.2575 4.41736ZM9.66599 4.05375C9.52481 4.03352 9.47455 4.01043 9.48082 4.01319C9.48457 4.01484 9.50184 4.02283 9.52748 4.04018C9.55338 4.0577 9.58471 4.08268 9.61729 4.11631L2.89419 10.0414C3.84894 11.027 5.14948 11.5121 6.48488 11.7035L9.66599 4.05375ZM9.64494 4.1453C9.924 4.44221 10.0111 4.77039 10.0298 4.9679C10.0459 5.13838 10.0096 5.17606 10.0588 4.99244H2.05879C1.65362 6.50455 1.49106 8.54892 2.86653 10.0124L9.64494 4.1453ZM10.0588 4.99244L10.548 3.16684H2.54795L2.05879 4.99244H10.0588ZM10.548 3.16684C10.5691 3.08801 10.5569 3.18189 10.4253 3.36829C10.2804 3.57361 10.0803 3.76322 9.87528 3.89691L6.4119 -2.08377C4.26339 -0.682524 3.055 1.27453 2.54795 3.16684H10.548ZM9.91568 3.87033C9.84428 3.91774 9.77929 3.95207 9.72771 3.97516C9.67712 3.99781 9.64926 4.00528 9.65106 4.0048C9.6596 4.00248 9.7856 3.97049 10.0586 3.97049L12.1292 -3.75692C10.3586 -3.75692 8.31611 -3.34861 6.37151 -2.05719L9.91568 3.87033ZM10.0586 3.97049H15.0986L17.1692 -3.75692H12.1292L10.0586 3.97049ZM15.0986 3.97049C14.8351 3.97049 13.6155 3.92619 12.9005 2.83016L20.2554 -2.30363C19.4044 -3.6083 17.8887 -3.75692 17.1692 -3.75692L15.0986 3.97049ZM13.1467 3.15103C12.2731 2.17679 12.546 0.987247 12.6142 0.732705H20.6142C20.8004 0.0377016 21.0491 -1.46481 20.0092 -2.6245L13.1467 3.15103ZM12.6142 0.732705L12.0598 2.80172H20.0598L20.6142 0.732705H12.6142ZM12.0598 2.80172C12.1414 2.4972 12.4847 1.46678 13.671 0.556494L17.8637 6.0206C19.3219 4.90167 19.8602 3.5467 20.0598 2.80172H12.0598ZM13.671 0.556494C14.3319 0.0493184 14.9669 -0.195949 15.4022 -0.311648C15.8232 -0.42356 16.1335 -0.436066 16.2794 -0.436066L14.2088 7.29134C14.8184 7.29134 16.3297 7.19769 17.8637 6.0206L13.671 0.556494ZM16.2794 -0.436066H12.0853L10.0148 7.29134H14.2088L16.2794 -0.436066ZM12.0853 -0.436066C10.8913 -0.436066 9.39873 0.026381 8.12633 1.21203L13.17 5.9562C12.7141 6.38101 12.154 6.74718 11.53 6.99015C10.9239 7.2261 10.3991 7.29134 10.0148 7.29134L12.0853 -0.436066ZM8.31957 1.03985C7.2101 1.98504 6.65715 3.08029 6.42431 3.94924H14.4243C14.2722 4.51682 13.8685 5.36865 12.9767 6.12838L8.31957 1.03985ZM6.42431 3.94924C6.18758 4.83275 6.18419 5.82788 6.65481 6.70383L14.2408 1.95966C14.5993 2.62697 14.5803 3.3671 14.4243 3.94924H6.42431ZM6.65481 6.70383C7.24089 7.79467 8.34243 8.27607 9.42221 8.35793L12.1002 0.653289C12.4466 0.679546 12.8712 0.76918 13.283 0.997652C13.7053 1.23192 14.0292 1.56574 14.2408 1.95966L6.65481 6.70383ZM9.20302 8.33497L11.7918 8.6827L14.9083 1.02398L12.3194 0.676251L9.20302 8.33497ZM11.7595 8.67822C11.9007 8.69844 11.9509 8.72154 11.9447 8.71878C11.9409 8.71713 11.9237 8.70914 11.898 8.69179C11.8721 8.67427 11.8408 8.64929 11.8082 8.61566L18.5313 2.69061C17.5766 1.70494 16.276 1.21982 14.9406 1.02847L11.7595 8.67822ZM11.8082 8.61565C11.5279 8.32632 11.4333 7.99945 11.4119 7.79103C11.3933 7.61133 11.4318 7.56381 11.3847 7.73953H19.3847C19.7968 6.20161 19.9416 4.14661 18.5313 2.69061L11.8082 8.61565ZM11.3847 7.73953L10.8955 9.56513H18.8955L19.3847 7.73953H11.3847ZM10.8955 9.56513C10.8769 9.63475 10.8913 9.53857 11.0219 9.35476C11.1645 9.154 11.3551 8.97708 11.5383 8.8572L15.0162 14.8284C17.1522 13.4307 18.3814 11.4839 18.8955 9.56513H10.8955ZM11.5456 8.85244C11.6151 8.8071 11.6776 8.77472 11.7263 8.75327C11.774 8.73224 11.7992 8.72576 11.7953 8.72681C11.7826 8.73018 11.6553 8.76148 11.3849 8.76148L9.31432 16.4889C11.0659 16.4889 13.0817 16.0901 15.0089 14.8331L11.5456 8.85244ZM16.2259 12.4861L12.5485 15.053L12.6593 15.2229L12.7947 15.3739L16.2259 12.4861ZM19.501 0.263265L17.4046 -2.46878L17.4046 -2.46878L19.501 0.263265ZM23.281 0.263265L19.6036 2.83017L19.7144 3.00004L19.8498 3.15103L23.281 0.263265ZM22.3063 4.50561H18.3063L17.271 8.36931H21.271L22.3063 4.50561ZM25.3123 4.50561L24.277 8.36931H28.277L29.3123 4.50561H25.3123ZM26.593 0.263265L24.4966 -2.46879L24.4966 -2.46878L26.593 0.263265ZM30.373 0.263265L26.6956 2.83017L26.8064 3.00004L26.9418 3.15103L30.373 0.263265ZM27.0979 12.4861L29.1943 15.2181L29.1943 15.2181L27.0979 12.4861ZM23.3179 12.4861L19.6405 15.053L19.7513 15.2229L19.8867 15.3739L23.3179 12.4861ZM24.3386 8.13942H28.3386L29.3739 4.27572H25.3739L24.3386 8.13942ZM21.3326 8.13942L22.3679 4.27572H18.3679L17.3326 8.13942H21.3326ZM20.0059 12.4861L17.9095 9.75404L17.9095 9.75404L20.0059 12.4861ZM20.5179 8.76148H17.7279L15.6574 16.4889H18.4474L20.5179 8.76148ZM17.7279 8.76148C17.9408 8.76148 18.9289 8.78623 19.6571 9.59832L12.7947 15.3739C13.6892 16.3714 14.9884 16.4889 15.6574 16.4889L17.7279 8.76148ZM19.9033 9.91919C20.4993 10.8328 20.2675 11.7936 20.2123 11.9993H12.2123C12.0392 12.6454 11.8164 13.9308 12.5485 15.053L19.9033 9.91919ZM20.2123 11.9993L23.2312 0.732705H15.2312L12.2123 11.9993H20.2123ZM23.2312 0.732705C23.1935 0.873616 23.1011 1.1701 22.884 1.5478C22.6596 1.93829 22.2583 2.48814 21.5974 2.99531L17.4046 -2.46878C15.8706 -1.2917 15.389 0.143827 15.2312 0.732705H23.2312ZM21.5974 2.99531C20.4111 3.90561 19.3269 3.97049 19.0116 3.97049L21.0822 -3.75692C20.3109 -3.75692 18.8628 -3.58772 17.4046 -2.46878L21.5974 2.99531ZM19.0116 3.97049H21.8016L23.8722 -3.75692H21.0822L19.0116 3.97049ZM21.8016 3.97049C21.5381 3.97049 20.3185 3.92619 19.6036 2.83017L26.9584 -2.30364C26.1074 -3.6083 24.5917 -3.75692 23.8722 -3.75692L21.8016 3.97049ZM19.8498 3.15103C18.9761 2.17679 19.249 0.987247 19.3172 0.732705H27.3172C27.5034 0.0377016 27.7522 -1.46481 26.7122 -2.6245L19.8498 3.15103ZM19.3172 0.732705L18.3063 4.50561H26.3063L27.3172 0.732705H19.3172ZM21.271 8.36931H24.277L26.3475 0.641908H23.3415L21.271 8.36931ZM29.3123 4.50561L30.3232 0.732705H22.3232L21.3123 4.50561H29.3123ZM30.3232 0.732705C30.2855 0.873615 30.1931 1.1701 29.976 1.5478C29.7516 1.93829 29.3503 2.48814 28.6894 2.99531L24.4966 -2.46878C22.9626 -1.29169 22.481 0.143829 22.3232 0.732705H30.3232ZM28.6894 2.99532C27.5031 3.90561 26.4189 3.97049 26.1036 3.97049L28.1742 -3.75692C27.4029 -3.75692 25.9548 -3.58772 24.4966 -2.46879L28.6894 2.99532ZM26.1036 3.97049H28.8936L30.9642 -3.75692H28.1742L26.1036 3.97049ZM28.8936 3.97049C28.6301 3.97049 27.4105 3.92619 26.6956 2.83017L34.0504 -2.30364C33.1994 -3.6083 31.6837 -3.75692 30.9642 -3.75692L28.8936 3.97049ZM26.9418 3.15103C26.0681 2.17679 26.341 0.987247 26.4092 0.732705H34.4092C34.5954 0.0377016 34.8442 -1.46481 33.8042 -2.6245L26.9418 3.15103ZM26.4092 0.732705L23.3903 11.9993H31.3903L34.4092 0.732705H26.4092ZM23.3903 11.9993C23.4719 11.6947 23.8152 10.6643 25.0015 9.75404L29.1943 15.2181C30.6525 14.0992 31.1907 12.7442 31.3903 11.9993H23.3903ZM25.0015 9.75404C25.6625 9.24687 26.2975 9.0016 26.7327 8.8859C27.1537 8.77399 27.464 8.76148 27.6099 8.76148L25.5394 16.4889C26.149 16.4889 27.6603 16.3952 29.1943 15.2181L25.0015 9.75404ZM27.6099 8.76148H24.8199L22.7494 16.4889H25.5394L27.6099 8.76148ZM24.8199 8.76148C25.0328 8.76148 26.0209 8.78623 26.7491 9.59832L19.8867 15.3739C20.7812 16.3714 22.0804 16.4889 22.7494 16.4889L24.8199 8.76148ZM26.9953 9.91919C27.5913 10.8328 27.3595 11.7936 27.3043 11.9993H19.3043C19.1312 12.6454 18.9084 13.9307 19.6405 15.053L26.9953 9.91919ZM27.3043 11.9993L28.3386 8.13942H20.3386L19.3043 11.9993H27.3043ZM25.3739 4.27572H22.3679L20.2973 12.0031H23.3033L25.3739 4.27572ZM17.3326 8.13942L16.2983 11.9993H24.2983L25.3326 8.13942H17.3326ZM16.2983 11.9993C16.3799 11.6947 16.7232 10.6643 17.9095 9.75404L22.1023 15.2181C23.5605 14.0992 24.0987 12.7442 24.2983 11.9993H16.2983ZM17.9095 9.75404C18.5705 9.24687 19.2054 9.0016 19.6407 8.8859C20.0617 8.77399 20.372 8.76148 20.5179 8.76148L18.4474 16.4889C19.057 16.4889 20.5683 16.3952 22.1023 15.2181L17.9095 9.75404ZM36.7768 3.75798L33.542 2.18878L33.3897 2.39794L33.2611 2.61661L36.7768 3.75798ZM35.2227 6.40076L31.707 5.25938L28.7637 10.2645H34.1874L35.2227 6.40076ZM38.0487 6.40076L37.0134 10.2645H42.4371L42.176 5.25938L38.0487 6.40076ZM37.9108 3.75798L42.0381 2.61661L42.0267 2.39794L41.9865 2.18879L37.9108 3.75798ZM37.8094 3.53196L34.2489 6.264L34.365 6.41533L34.5022 6.54902L37.8094 3.53196ZM36.9814 3.53196L35.291 0.514916L35.0822 0.648586L34.885 0.799887L36.9814 3.53196ZM33.2501 12.4861L31.1537 9.75404L31.1537 9.75404L33.2501 12.4861ZM29.6141 12.4861L25.9367 15.053L26.0475 15.2229L26.1829 15.3739L29.6141 12.4861ZM31.3139 6.2095L27.6964 5.24986L27.6722 5.29515L27.6491 5.34071L31.3139 6.2095ZM32.2779 4.62732L35.6396 6.01431L35.6424 6.01005L32.2779 4.62732ZM34.9014 0.680545L38.266 2.06327L38.298 2.0151L38.3288 1.96646L34.9014 0.680545ZM35.3419 0.245879L34.1272 -3.04467L34.0554 -3.00787L33.9845 -2.96892L35.3419 0.245879ZM41.3359 0.245879L38.2556 3.46067L38.3057 3.49963L38.3578 3.53644L41.3359 0.245879ZM41.5614 0.680545L37.4449 1.96646L37.4496 2.0151L37.4558 2.06327L41.5614 0.680545ZM42.0699 4.62732L37.9643 6.01005L37.9648 6.01431L42.0699 4.62732ZM42.1679 6.2095L38.0376 7.0783L38.0362 7.12386L38.0361 7.16916L42.1679 6.2095ZM40.5041 12.4861L42.6005 15.2181L42.6005 15.2181L40.5041 12.4861ZM36.7601 12.4861L33.1996 15.2181L33.3157 15.3695L33.4529 15.5031L36.7601 12.4861ZM37.3808 9.56513H41.3808L42.416 5.70143H38.416L37.3808 9.56513ZM34.1948 9.56513L35.23 5.70143H31.23L30.1948 9.56513H34.1948ZM33.2611 2.61661L31.707 5.25938L38.7383 7.54214L40.2924 4.89936L33.2611 2.61661ZM34.1874 10.2645H37.0134L39.0839 2.53705H36.2579L34.1874 10.2645ZM42.176 5.25938L42.0381 2.61661L33.7835 4.89936L33.9214 7.54214L42.176 5.25938ZM41.9865 2.18879C41.911 1.79577 41.7172 1.10026 41.1165 0.514892L34.5022 6.54902C34.2371 6.29073 34.0827 6.0238 33.9923 5.8225C33.9016 5.62033 33.8576 5.44437 33.8351 5.32718L41.9865 2.18879ZM41.3698 0.799918C40.7419 -0.0184069 39.7447 -0.401292 38.6833 -0.401292L36.6127 7.32611C36.1978 7.32611 35.738 7.25783 35.2955 7.06716C34.8489 6.87467 34.5004 6.5918 34.2489 6.264L41.3698 0.799918ZM38.6833 -0.401292H38.2333L36.1627 7.32611H36.6127L38.6833 -0.401292ZM38.2333 -0.401292C37.1896 -0.401292 36.1578 -0.0400044 35.291 0.514916L38.6717 6.549C37.9498 7.01119 37.0624 7.32611 36.1627 7.32611L38.2333 -0.401292ZM34.885 0.799887C34.1782 1.34224 33.7351 1.9236 33.542 2.18878L40.0116 5.32718C39.9661 5.38961 39.8789 5.50457 39.7489 5.6482C39.6257 5.7844 39.4024 6.01486 39.0777 6.26403L34.885 0.799887ZM29.5425 11.9993C29.6241 11.6947 29.9674 10.6643 31.1537 9.75404L35.3465 15.2181C36.8047 14.0992 37.3429 12.7442 37.5425 11.9993H29.5425ZM31.1537 9.75404C31.8147 9.24687 32.4497 9.0016 32.8849 8.8859C33.3059 8.77399 33.6162 8.76148 33.7621 8.76148L31.6916 16.4889C32.3012 16.4889 33.8125 16.3952 35.3465 15.2181L31.1537 9.75404ZM33.7621 8.76148H31.1161L29.0456 16.4889H31.6916L33.7621 8.76148ZM31.1161 8.76148C31.329 8.76148 32.3171 8.78623 33.0453 9.59832L26.1829 15.3739C27.0774 16.3714 28.3766 16.4889 29.0456 16.4889L31.1161 8.76148ZM33.2915 9.91919C33.8875 10.8328 33.6557 11.7936 33.6005 11.9993H25.6005C25.4274 12.6454 25.2046 13.9308 25.9367 15.053L33.2915 9.91919ZM33.6005 11.9993L34.8305 7.40918H26.8305L25.6005 11.9993H33.6005ZM34.8305 7.40918C34.8259 7.4263 34.8296 7.40794 34.8537 7.34819C34.8775 7.28904 34.9169 7.20012 34.9787 7.07829L27.6491 5.34071C27.3203 5.98943 27.023 6.69057 26.8305 7.40918H34.8305ZM34.9314 7.16915C35.0723 6.9051 35.2987 6.52608 35.6396 6.01431L28.9161 3.24033C28.454 3.93403 28.0378 4.6098 27.6964 5.24986L34.9314 7.16915ZM35.6424 6.01005L38.266 2.06327L31.5368 -0.702183L28.9133 3.24459L35.6424 6.01005ZM38.3288 1.96646C38.081 2.35769 37.5665 2.98439 36.6992 3.46068L33.9845 -2.96892C32.7795 -2.30718 31.9714 -1.3907 31.474 -0.605372L38.3288 1.96646ZM36.5566 3.53643C35.8126 3.91787 35.2134 3.97049 34.9379 3.97049L37.0084 -3.75692C36.2528 -3.75692 35.2328 -3.61157 34.1272 -3.04467L36.5566 3.53643ZM34.9379 3.97049H39.7799L41.8504 -3.75692H37.0084L34.9379 3.97049ZM39.7799 3.97049C39.4649 3.97049 38.8283 3.90631 38.2556 3.46067L44.4161 -2.96891C43.6051 -3.60001 42.6214 -3.75692 41.8504 -3.75692L39.7799 3.97049ZM38.3578 3.53644C37.7196 3.08526 37.4916 2.44565 37.4449 1.96646L45.6779 -0.605369C45.5928 -1.47866 45.2144 -2.40805 44.3139 -3.04468L38.3578 3.53644ZM37.4558 2.06327L37.9643 6.01005L46.1754 3.24459L45.667 -0.702183L37.4558 2.06327ZM37.9648 6.01431C38.0292 6.50831 38.044 6.85569 38.0376 7.0783L46.2983 5.34071C46.3181 4.65921 46.2675 3.9518 46.1749 3.24033L37.9648 6.01431ZM38.0361 7.16916C38.0358 7.28152 38.0298 7.35817 38.0246 7.40263C38.0193 7.4477 38.0162 7.44762 38.0265 7.40918H46.0265C46.2301 6.64908 46.298 5.91602 46.2997 5.24985L38.0361 7.16916ZM38.0265 7.40918L36.7965 11.9993H44.7965L46.0265 7.40918H38.0265ZM36.7965 11.9993C36.8781 11.6947 37.2214 10.6643 38.4077 9.75404L42.6005 15.2181C44.0587 14.0992 44.5969 12.7442 44.7965 11.9993H36.7965ZM38.4077 9.75404C39.0687 9.24687 39.7037 9.0016 40.1389 8.8859C40.5599 8.77399 40.8702 8.76148 41.0161 8.76148L38.9456 16.4889C39.5552 16.4889 41.0665 16.3952 42.6005 15.2181L38.4077 9.75404ZM41.0161 8.76148H38.2981L36.2276 16.4889H38.9456L41.0161 8.76148ZM38.2981 8.76148C38.4855 8.76148 39.361 8.78079 40.0673 9.46905L33.4529 15.5031C34.3495 16.3769 35.5602 16.4889 36.2276 16.4889L38.2981 8.76148ZM40.3206 9.75404C41.0191 10.6643 40.8101 11.6947 40.7285 11.9993H32.7285C32.5289 12.7442 32.341 14.0992 33.1996 15.2181L40.3206 9.75404ZM40.7285 11.9993L41.3808 9.56513H33.3808L32.7285 11.9993H40.7285ZM38.416 5.70143H35.23L33.1595 13.4288H36.3455L38.416 5.70143ZM30.1948 9.56513L29.5425 11.9993H37.5425L38.1948 9.56513H30.1948ZM49.435 3.23638L50.4703 -0.627319H46.4703L45.435 3.23638H49.435ZM48.8387 5.46188H44.8387L43.8034 9.32558H47.8034L48.8387 5.46188ZM50.8792 5.23585L53.5787 7.43511L53.6322 7.38077L53.6841 7.32518L50.8792 5.23585ZM51.3498 3.4798L47.4252 5.56913L47.4473 5.62472L47.4717 5.67906L51.3498 3.4798ZM43.0325 12.4861L39.3551 15.053L39.4659 15.2229L39.6013 15.3739L43.0325 12.4861ZM46.3076 0.263265L44.2113 -2.46878L44.2113 -2.46878L46.3076 0.263265ZM55.4006 0.923958L51.7281 3.49846L51.7494 3.53077L51.7715 3.56242L55.4006 0.923958ZM54.8318 5.06198L51.5732 3.52575L51.5522 3.55511L51.5316 3.58469L54.8318 5.06198ZM53.8622 5.79222L53.27 2.22914L37.5102 7.98787L52.3915 9.6323L53.8622 5.79222ZM55.2232 6.55724L51.5242 9.09062L51.5379 9.11222L51.5519 9.13354L55.2232 6.55724ZM54.0845 12.4861L56.1809 15.2181L56.1809 15.2181L54.0845 12.4861ZM50.3045 12.4861L46.6271 15.053L46.7379 15.2229L46.8733 15.3739L50.3045 12.4861ZM50.9909 8.78273L47.147 11.0553L47.2259 11.2179L47.3251 11.3674L50.9909 8.78273ZM48.0001 8.59148L49.0354 4.72777H45.0354L44.0001 8.59148H48.0001ZM46.7945 12.4861L44.6982 9.75404L44.6982 9.75404L46.7945 12.4861ZM45.435 3.23638L44.8387 5.46188H52.8387L53.435 3.23638H45.435ZM47.8034 9.32558H49.1534L51.2239 1.59817H49.8739L47.8034 9.32558ZM49.1534 9.32558C49.9229 9.32558 51.8799 9.16033 53.5787 7.43511L48.1798 3.03659C49.5818 1.61274 51.0785 1.59817 51.2239 1.59817L49.1534 9.32558ZM53.6841 7.32518C54.5255 6.42379 54.9795 5.46638 55.1996 4.6447H47.1996C47.2956 4.28667 47.5359 3.72336 48.0744 3.14652L53.6841 7.32518ZM55.1996 4.6447L55.358 4.05356H47.358L47.1996 4.6447H55.1996ZM55.358 4.05356C55.5748 3.24442 55.6539 2.22993 55.2278 1.28054L47.4717 5.67906C47.1809 5.03104 47.2655 4.39905 47.358 4.05356H55.358ZM55.2743 1.39047C54.5622 -0.400721 52.6916 -0.627319 51.8203 -0.627319L49.7497 7.10009C49.5024 7.10009 48.0083 7.03577 47.4252 5.56913L55.2743 1.39047ZM51.8203 -0.627319H50.4703L48.3997 7.10009H49.7497L51.8203 -0.627319ZM47.3065 8.76148H44.5345L42.464 16.4889H45.236L47.3065 8.76148ZM44.5345 8.76148C44.7475 8.76148 45.7355 8.78623 46.4638 9.59832L39.6013 15.3739C40.4958 16.3714 41.7951 16.4889 42.464 16.4889L44.5345 8.76148ZM46.71 9.91919C47.3059 10.8328 47.0741 11.7936 47.019 11.9993H39.019C38.8459 12.6454 38.6231 13.9308 39.3551 15.053L46.71 9.91919ZM47.019 11.9993L50.0379 0.732705H42.0379L39.019 11.9993H47.019ZM50.0379 0.732705C50.0001 0.873616 49.9077 1.1701 49.6906 1.5478C49.4662 1.93829 49.065 2.48814 48.404 2.99531L44.2113 -2.46878C42.6773 -1.2917 42.1956 0.143827 42.0379 0.732705H50.0379ZM48.404 2.99531C47.2177 3.90561 46.1336 3.97049 45.8183 3.97049L47.8888 -3.75692C47.1176 -3.75692 45.6695 -3.58772 44.2113 -2.46878L48.404 2.99531ZM45.8183 3.97049H51.8123L53.8828 -3.75692H47.8888L45.8183 3.97049ZM51.8123 3.97049C52.0112 3.97049 52.151 3.98072 52.2422 3.99204C52.3343 4.00347 52.3587 4.01378 52.336 4.00651C52.2931 3.99278 51.9792 3.88045 51.7281 3.49846L59.0731 -1.65055C57.8803 -3.46553 55.5388 -3.75692 53.8828 -3.75692L51.8123 3.97049ZM51.7715 3.56242C51.6854 3.43937 51.634 3.29077 51.6194 3.1488C51.6058 3.01697 51.6303 2.9555 51.6156 3.01036H59.6156C60.0589 1.35595 59.99 -0.342283 59.0297 -1.7145L51.7715 3.56242ZM51.6156 3.01036L51.4013 3.81014H59.4013L59.6156 3.01036H51.6156ZM51.4013 3.81014C51.3737 3.9128 51.3912 3.7798 51.5732 3.52575L58.0904 6.59822C58.7708 5.6487 59.1679 4.68114 59.4013 3.81014H51.4013ZM51.5316 3.58469C51.736 3.29119 52.0143 2.99265 52.3595 2.73265C52.6996 2.47653 53.0222 2.31969 53.27 2.22914L54.4543 9.35531C55.8608 8.84139 57.1923 7.88881 58.1321 6.53928L51.5316 3.58469ZM52.3915 9.6323C52.2973 9.62189 52.1293 9.58688 51.9453 9.48348C51.7571 9.37769 51.6159 9.23583 51.5242 9.09062L58.9221 4.02386C58.1429 2.78919 56.8482 2.1196 55.3328 1.95215L52.3915 9.6323ZM51.5519 9.13354C51.4284 8.94602 51.3693 8.74009 51.3548 8.55928C51.3411 8.38986 51.3701 8.29288 51.3646 8.31329H59.3646C59.7525 6.86593 59.7539 5.28643 58.8945 3.98094L51.5519 9.13354ZM51.3646 8.31329L50.377 11.9993H58.377L59.3646 8.31329H51.3646ZM50.377 11.9993C50.4586 11.6947 50.8019 10.6643 51.9882 9.75404L56.1809 15.2181C57.6391 14.0992 58.1774 12.7442 58.377 11.9993H50.377ZM51.9882 9.75404C52.6491 9.24687 53.2841 9.0016 53.7194 8.8859C54.1404 8.77399 54.4507 8.76148 54.5965 8.76148L52.526 16.4889C53.1356 16.4889 54.6469 16.3952 56.1809 15.2181L51.9882 9.75404ZM54.5965 8.76148H51.8065L49.736 16.4889H52.526L54.5965 8.76148ZM51.8065 8.76148C52.0195 8.76148 53.0075 8.78623 53.7358 9.59833L46.8733 15.3739C47.7678 16.3714 49.0671 16.4889 49.736 16.4889L51.8065 8.76148ZM53.982 9.91918C54.5779 10.8328 54.3461 11.7936 54.291 11.9993H46.291C46.1179 12.6454 45.8951 13.9308 46.6271 15.053L53.982 9.91918ZM54.291 11.9993L55.0038 9.3391H47.0038L46.291 11.9993H54.291ZM55.0038 9.3391C55.1753 8.69898 55.4251 7.35577 54.6566 6.19805L47.3251 11.3674C47.0101 10.8928 46.9289 10.4015 46.9209 10.0548C46.9131 9.71765 46.9718 9.4584 47.0038 9.3391H55.0038ZM54.8347 6.51021C54.0688 4.93086 52.3702 4.72777 51.5554 4.72777L49.4848 12.4552C49.174 12.4552 47.7893 12.3796 47.147 11.0553L54.8347 6.51021ZM51.5554 4.72777H49.0354L46.9648 12.4552H49.4848L51.5554 4.72777ZM44.0001 8.59148L43.087 11.9993H51.087L52.0001 8.59148H44.0001ZM43.087 11.9993C43.1686 11.6947 43.5119 10.6643 44.6982 9.75404L48.8909 15.2181C50.3491 14.0992 50.8874 12.7442 51.087 11.9993H43.087ZM44.6982 9.75404C45.3591 9.24687 45.9941 9.0016 46.4294 8.8859C46.8504 8.77399 47.1607 8.76148 47.3065 8.76148L45.236 16.4889C45.8456 16.4889 47.3569 16.3952 48.8909 15.2181L44.6982 9.75404ZM56.4095 12.4861L52.7321 15.053L52.8429 15.2229L52.9783 15.3739L56.4095 12.4861ZM59.6846 0.263265L57.5882 -2.46878L57.5882 -2.46878L59.6846 0.263265ZM69.0266 0.263265L65.3492 2.83017L65.46 3.00004L65.5954 3.15103L69.0266 0.263265ZM62.734 3.39286L63.7693 -0.470839H59.7693L58.734 3.39286H62.734ZM62.3753 4.73164H58.3753L57.34 8.59534H61.34L62.3753 4.73164ZM66.3294 4.88812L62.6519 7.45502L62.7627 7.62489L62.8981 7.77588L66.3294 4.88812ZM61.5414 7.84385L62.5767 3.98015H58.5767L57.5414 7.84385H61.5414ZM61.1407 9.3391H57.1407L56.1054 13.2028H60.1054L61.1407 9.3391ZM66.5528 9.49558L62.8754 12.0625L62.9862 12.2324L63.1216 12.3834L66.5528 9.49558ZM65.7515 12.4861L67.8479 15.2181L67.8479 15.2181L65.7515 12.4861ZM66.2635 8.76148H57.9115L55.8409 16.4889H64.1929L66.2635 8.76148ZM57.9115 8.76148C58.1244 8.76148 59.1125 8.78623 59.8407 9.59832L52.9783 15.3739C53.8728 16.3714 55.172 16.4889 55.8409 16.4889L57.9115 8.76148ZM60.0869 9.91919C60.6829 10.8328 60.451 11.7936 60.3959 11.9993H52.3959C52.2228 12.6454 52 13.9308 52.7321 15.053L60.0869 9.91919ZM60.3959 11.9993L63.4148 0.732705H55.4148L52.3959 11.9993H60.3959ZM63.4148 0.732705C63.377 0.873616 63.2847 1.1701 63.0676 1.5478C62.8432 1.93829 62.4419 2.48814 61.781 2.99531L57.5882 -2.46878C56.0542 -1.2917 55.5726 0.143827 55.4148 0.732705H63.4148ZM61.781 2.99531C60.5947 3.90561 59.5105 3.97049 59.1952 3.97049L61.2658 -3.75692C60.4945 -3.75692 59.0464 -3.58772 57.5882 -2.46878L61.781 2.99531ZM59.1952 3.97049H67.5472L69.6178 -3.75692H61.2658L59.1952 3.97049ZM67.5472 3.97049C67.2837 3.97049 66.0641 3.92619 65.3492 2.83017L72.704 -2.30364C71.853 -3.6083 70.3373 -3.75692 69.6178 -3.75692L67.5472 3.97049ZM65.5954 3.15103C64.7217 2.17679 64.9946 0.987247 65.0628 0.732705H73.0628C73.249 0.0377016 73.4978 -1.46481 72.4578 -2.6245L65.5954 3.15103ZM65.0628 0.732705L64.5177 2.76694H72.5177L73.0628 0.732705H65.0628ZM64.5177 2.76694C64.5993 2.46242 64.9426 1.43201 66.1289 0.52172L70.3217 5.98582C71.7799 4.86689 72.3181 3.51193 72.5177 2.76694H64.5177ZM66.1289 0.52172C66.7899 0.0145485 67.4248 -0.230719 67.8601 -0.34642C68.2811 -0.458333 68.5914 -0.470839 68.7373 -0.470839L66.6667 7.25657C67.2764 7.25657 68.7877 7.16291 70.3217 5.98582L66.1289 0.52172ZM68.7373 -0.470839H63.7693L61.6987 7.25657H66.6667L68.7373 -0.470839ZM58.734 3.39286L58.3753 4.73164H66.3753L66.734 3.39286H58.734ZM61.34 8.59534H64.85L66.9206 0.867934H63.4106L61.34 8.59534ZM64.85 8.59534C64.5865 8.59534 63.3669 8.55104 62.6519 7.45502L70.0068 2.32121C69.1558 1.01656 67.6401 0.867934 66.9206 0.867934L64.85 8.59534ZM62.8981 7.77588C62.0245 6.80165 62.2974 5.6121 62.3656 5.35756H70.3656C70.5518 4.66255 70.8005 3.16005 69.7606 2.00035L62.8981 7.77588ZM62.3656 5.35756L61.8671 7.21793H69.8671L70.3656 5.35756H62.3656ZM61.8671 7.21793C61.9487 6.91341 62.292 5.883 63.4783 4.97271L67.671 10.4368C69.1292 9.31788 69.6675 7.96292 69.8671 7.21793H61.8671ZM63.4783 4.97271C64.1392 4.46553 64.7742 4.22027 65.2095 4.10457C65.6305 3.99265 65.9408 3.98015 66.0867 3.98015L64.0161 11.7076C64.6258 11.7076 66.137 11.6139 67.671 10.4368L63.4783 4.97271ZM66.0867 3.98015H62.5767L60.5061 11.7076H64.0161L66.0867 3.98015ZM57.5414 7.84385L57.1407 9.3391H65.1407L65.5414 7.84385H57.5414ZM60.1054 13.2028H65.0734L67.144 5.4754H62.176L60.1054 13.2028ZM65.0734 13.2028C64.8099 13.2028 63.5903 13.1585 62.8754 12.0625L70.2302 6.92868C69.3792 5.62402 67.8635 5.4754 67.144 5.4754L65.0734 13.2028ZM63.1216 12.3834C62.2479 11.4091 62.5208 10.2196 62.589 9.96502H70.589C70.7752 9.27002 71.024 7.76751 69.984 6.60782L63.1216 12.3834ZM62.589 9.96502L62.0439 11.9993H70.0439L70.589 9.96502H62.589ZM62.0439 11.9993C62.1255 11.6947 62.4688 10.6643 63.6551 9.75404L67.8479 15.2181C69.3061 14.0992 69.8443 12.7442 70.0439 11.9993H62.0439ZM63.6551 9.75404C64.3161 9.24687 64.951 9.0016 65.3863 8.8859C65.8073 8.77399 66.1176 8.76148 66.2635 8.76148L64.1929 16.4889C64.8026 16.4889 66.3139 16.3952 67.8479 15.2181L63.6551 9.75404ZM2.39074 26.0091L-1.2867 28.576L-1.17589 28.7458L-1.04049 28.8968L2.39074 26.0091ZM3.19204 23.0185L5.28842 25.7506L5.28842 25.7506L3.19204 23.0185ZM8.95924 22.723L6.43743 20.3509L6.40872 20.3776L6.38041 20.4047L8.95924 22.723ZM9.17354 21.9232L5.35238 24.2414L5.41161 24.3579L5.4815 24.4675L9.17354 21.9232ZM8.87347 21.7667L7.2936 25.5931L7.41261 25.6098L7.53446 25.619L8.87347 21.7667ZM6.2713 21.4016L4.68074 25.2265L4.69144 25.228L6.2713 21.4016ZM4.45161 20.6018L1.0624 23.5353L1.07611 23.5499L1.09005 23.5643L4.45161 20.6018ZM6.33946 14.4295L8.07115 17.4199L8.0914 17.4067L8.11154 17.3933L6.33946 14.4295ZM14.7738 13.7862L11.0964 16.3531L11.2072 16.523L11.3426 16.674L14.7738 13.7862ZM8.84401 17.1071L11.1726 19.6513L11.2712 19.5673L11.3658 19.4792L8.84401 17.1071ZM8.9571 18.0286L10.5153 14.1992L10.4069 14.1846L10.2961 14.1763L8.9571 18.0286ZM11.5459 18.3763L13.1365 14.5514L13.1203 14.5491L13.1041 14.5469L11.5459 18.3763ZM13.3656 19.1761L16.7272 16.2136L16.7272 16.2136L13.3656 19.1761ZM11.4731 25.3657L13.2048 28.3561L13.2121 28.3513L11.4731 25.3657ZM9.58074 22.2844H3.89274L1.82219 30.0118H7.51019L9.58074 22.2844ZM3.89274 22.2844C4.10566 22.2844 5.09374 22.3092 5.82197 23.1213L-1.04049 28.8968C-0.145954 29.8944 1.15328 30.0118 1.82219 30.0118L3.89274 22.2844ZM6.06817 23.4421C6.66411 24.3558 6.43229 25.3166 6.37718 25.5222H-1.62282C-1.79595 26.1683 -2.01873 27.4537 -1.2867 28.576L6.06817 23.4421ZM6.37718 25.5222L6.92226 23.488H-1.07774L-1.62282 25.5222H6.37718ZM6.92226 23.488C6.8845 23.6289 6.79211 23.9254 6.57504 24.3031C6.35063 24.6936 5.94938 25.2434 5.28842 25.7506L1.09567 20.2865C-0.438344 21.4636 -0.919955 22.8991 -1.07774 23.488H6.92226ZM5.28842 25.7506C4.10211 26.6609 3.01796 26.7258 2.70269 26.7258L4.77325 18.9984C4.00198 18.9984 2.55388 19.1676 1.09566 20.2865L5.28842 25.7506ZM2.70269 26.7258H7.54469L9.61525 18.9984H4.77325L2.70269 26.7258ZM7.54469 26.7258C8.54638 26.7258 10.1323 26.3872 11.5381 25.0412L6.38041 20.4047C6.92248 19.8857 7.55545 19.5004 8.19371 19.2664C8.79758 19.0449 9.29433 18.9984 9.61525 18.9984L7.54469 26.7258ZM11.4811 25.0951C12.3608 24.2753 12.9285 23.3078 13.1831 22.3579H5.18307C5.36306 21.6861 5.78161 20.962 6.43743 20.3509L11.4811 25.0951ZM13.1831 22.3579C13.3447 21.7545 13.5758 20.4923 12.8656 19.3789L5.4815 24.4675C4.88959 23.5396 5.127 22.5671 5.18307 22.3579H13.1831ZM12.9947 19.605C12.367 18.3705 11.127 17.9837 10.2125 17.9144L7.53446 25.619C6.92577 25.5729 5.88581 25.2904 5.35238 24.2414L12.9947 19.605ZM10.4533 17.9403L7.85117 17.5752L4.69144 25.228L7.2936 25.5931L10.4533 17.9403ZM7.86186 17.5767C7.72068 17.5565 7.67042 17.5334 7.67669 17.5361C7.68044 17.5378 7.6977 17.5458 7.72335 17.5631C7.74925 17.5807 7.78058 17.6056 7.81316 17.6393L1.09005 23.5643C2.04481 24.55 3.34535 25.0351 4.68075 25.2265L7.86186 17.5767ZM7.84081 17.6683C8.11987 17.9652 8.20702 18.2933 8.22566 18.4909C8.24176 18.6613 8.20545 18.699 8.25466 18.5154H0.254656C-0.150514 20.0275 -0.313067 22.0719 1.0624 23.5353L7.84081 17.6683ZM8.25466 18.5154L8.74382 16.6898H0.743824L0.254656 18.5154H8.25466ZM8.74382 16.6898C8.76494 16.611 8.7528 16.7049 8.62121 16.8913C8.47627 17.0966 8.27614 17.2862 8.07115 17.4199L4.60777 11.4392C2.45926 12.8404 1.25087 14.7975 0.743824 16.6898H8.74382ZM8.11154 17.3933C8.04015 17.4407 7.97516 17.475 7.92358 17.4981C7.87299 17.5208 7.84513 17.5282 7.84692 17.5278C7.85547 17.5254 7.98147 17.4934 8.25449 17.4934L10.325 9.76604C8.55442 9.76604 6.51197 10.1744 4.56738 11.4658L8.11154 17.3933ZM8.25449 17.4934H13.2945L15.365 9.76604H10.325L8.25449 17.4934ZM13.2945 17.4934C13.031 17.4934 11.8113 17.4491 11.0964 16.3531L18.4513 11.2193C17.6003 9.91466 16.0846 9.76604 15.365 9.76604L13.2945 17.4934ZM11.3426 16.674C10.469 15.6998 10.7418 14.5102 10.81 14.2557H18.81C18.9963 13.5607 19.245 12.0582 18.2051 10.8985L11.3426 16.674ZM10.81 14.2557L10.2557 16.3247H18.2557L18.81 14.2557H10.81ZM10.2557 16.3247C10.3373 16.0202 10.6805 14.9897 11.8668 14.0795L16.0596 19.5436C17.5178 18.4246 18.056 17.0697 18.2557 16.3247H10.2557ZM11.8668 14.0795C12.5278 13.5723 13.1628 13.327 13.598 13.2113C14.019 13.0994 14.3293 13.0869 14.4752 13.0869L12.4047 20.8143C13.0143 20.8143 14.5256 20.7206 16.0596 19.5436L11.8668 14.0795ZM14.4752 13.0869H10.2812L8.21067 20.8143H12.4047L14.4752 13.0869ZM10.2812 13.0869C9.08717 13.0869 7.5946 13.5493 6.3222 14.735L11.3658 19.4792C10.9099 19.904 10.3499 20.2701 9.72583 20.5131C9.11978 20.7491 8.59501 20.8143 8.21067 20.8143L10.2812 13.0869ZM6.51544 14.5628C5.40597 15.508 4.85301 16.6033 4.62018 17.4722H12.6202C12.4681 18.0398 12.0644 18.8916 11.1726 19.6513L6.51544 14.5628ZM4.62018 17.4722C4.38345 18.3557 4.38006 19.3508 4.85068 20.2268L12.4367 15.4826C12.7952 16.1499 12.7762 16.8901 12.6202 17.4722H4.62018ZM4.85068 20.2268C5.43676 21.3176 6.5383 21.799 7.61808 21.8809L10.2961 14.1763C10.6425 14.2025 11.0671 14.2921 11.4789 14.5206C11.9012 14.7549 12.2251 15.0887 12.4367 15.4826L4.85068 20.2268ZM7.39889 21.8579L9.98771 22.2057L13.1041 14.5469L10.5153 14.1992L7.39889 21.8579ZM9.95537 22.2012C10.0966 22.2214 10.1468 22.2445 10.1405 22.2417C10.1368 22.2401 10.1195 22.2321 10.0939 22.2148C10.068 22.1972 10.0367 22.1723 10.0041 22.1386L16.7272 16.2136C15.7724 15.2279 14.4719 14.7428 13.1365 14.5514L9.95537 22.2012ZM10.0041 22.1386C9.72381 21.8493 9.6292 21.5224 9.60773 21.314C9.58921 21.1343 9.62766 21.0868 9.58057 21.2625H17.5806C17.9927 19.7246 18.1375 17.6696 16.7272 16.2136L10.0041 22.1386ZM9.58057 21.2625L9.09141 23.0881H17.0914L17.5806 21.2625H9.58057ZM9.09141 23.0881C9.07275 23.1577 9.08715 23.0615 9.21774 22.8777C9.36039 22.677 9.55093 22.5 9.73414 22.3802L13.2121 28.3513C15.348 26.9537 16.5773 25.0069 17.0914 23.0881H9.09141ZM9.74142 22.3754C9.81095 22.3301 9.87345 22.2977 9.92213 22.2762C9.96986 22.2552 9.99506 22.2487 9.99113 22.2498C9.97852 22.2531 9.85113 22.2844 9.58074 22.2844L7.51019 30.0118C9.26178 30.0118 11.2776 29.613 13.2048 28.3561L9.74142 22.3754ZM14.4218 26.0091L10.7443 28.576L10.8551 28.7458L10.9905 28.8968L14.4218 26.0091ZM17.6969 13.7862L15.6005 11.0542L15.6005 11.0542L17.6969 13.7862ZM26.8472 14.5686L23.2088 17.1937L23.2088 17.1937L26.8472 14.5686ZM24.9371 21.6972L22.7055 19.0721L22.7055 19.0721L24.9371 21.6972ZM19.2676 22.636L20.3028 18.7723H16.3028L15.2676 22.636H19.2676ZM18.2018 26.0091L16.1054 23.277L16.1054 23.277L18.2018 26.0091ZM20.7736 16.8811L21.8089 13.0173H17.8089L16.7736 16.8811H20.7736ZM20.0701 19.5064H16.0701L15.0349 23.3701H19.0349L20.0701 19.5064ZM22.444 19.2456L25.3413 21.2335L25.3413 21.2335L22.444 19.2456ZM23.0077 17.1419L19.0451 19.1297L19.0451 19.1297L23.0077 17.1419ZM18.7138 22.2844H15.9238L13.8532 30.0118H16.6432L18.7138 22.2844ZM15.9238 22.2844C16.1367 22.2844 17.1248 22.3092 17.853 23.1213L10.9905 28.8968C11.8851 29.8944 13.1843 30.0118 13.8532 30.0118L15.9238 22.2844ZM18.0992 23.4421C18.6951 24.3558 18.4633 25.3166 18.4082 25.5222H10.4082C10.2351 26.1683 10.0123 27.4537 10.7443 28.576L18.0992 23.4421ZM18.4082 25.5222L21.4271 14.2557H13.4271L10.4082 25.5222H18.4082ZM21.4271 14.2557C21.3893 14.3966 21.2969 14.6931 21.0799 15.0708C20.8555 15.4613 20.4542 16.0111 19.7932 16.5183L15.6005 11.0542C14.0665 12.2313 13.5849 13.6668 13.4271 14.2557H21.4271ZM19.7932 16.5183C18.6069 17.4286 17.5228 17.4934 17.2075 17.4934L19.2781 9.76604C18.5068 9.76604 17.0587 9.93525 15.6005 11.0542L19.7932 16.5183ZM17.2075 17.4934H22.7155L24.7861 9.76604H19.2781L17.2075 17.4934ZM22.7155 17.4934C22.9939 17.4934 23.2074 17.5069 23.3658 17.5256C23.5253 17.5443 23.6099 17.566 23.6394 17.575C23.7091 17.5961 23.4436 17.5336 23.2088 17.1937L30.4856 11.9436C29.1949 10.0747 26.6702 9.76604 24.7861 9.76604L22.7155 17.4934ZM23.2088 17.1937C23.1848 17.1589 23.1623 17.1162 23.145 17.0676C23.1278 17.0192 23.1195 16.9755 23.1162 16.9423C23.1095 16.8747 23.1264 16.8855 23.0903 17.0201H31.0903C31.5709 15.2268 31.499 13.4109 30.4856 11.9436L23.2088 17.1937ZM23.0903 17.0201L22.494 19.2456H30.494L31.0903 17.0201H23.0903ZM22.494 19.2456C22.4579 19.3803 22.4353 19.3911 22.4782 19.3235C22.4993 19.2903 22.531 19.2466 22.5742 19.1981C22.6175 19.1496 22.6629 19.1069 22.7055 19.0721L27.1688 24.3222C28.9685 22.8549 30.0135 21.039 30.494 19.2456H22.494ZM22.7055 19.0721C23.1224 18.7322 23.4215 18.6697 23.3404 18.6908C23.3061 18.6998 23.2099 18.7215 23.0403 18.7402C22.8719 18.7588 22.6512 18.7723 22.3728 18.7723L20.3023 26.4997C22.1864 26.4997 24.8765 26.1911 27.1688 24.3222L22.7055 19.0721ZM22.3728 18.7723H20.3028L18.2323 26.4997H20.3023L22.3728 18.7723ZM15.2676 22.636L14.4942 25.5222H22.4942L23.2676 22.636H15.2676ZM14.4942 25.5222C14.5758 25.2177 14.9191 24.1873 16.1054 23.277L20.2981 28.7411C21.7564 27.6222 22.2946 26.2672 22.4942 25.5222H14.4942ZM16.1054 23.277C16.7664 22.7698 17.4013 22.5246 17.8366 22.4089C18.2576 22.2969 18.5679 22.2844 18.7138 22.2844L16.6432 30.0118C17.2529 30.0118 18.7641 29.9182 20.2981 28.7411L16.1054 23.277ZM16.7736 16.8811L16.0701 19.5064H24.0701L24.7736 16.8811H16.7736ZM19.0349 23.3701H20.6549L22.7254 15.6427H21.1054L19.0349 23.3701ZM20.6549 23.3701C21.4526 23.3701 23.6028 23.1889 25.3413 21.2335L19.5467 17.2578C20.2224 16.4978 21.0144 16.0617 21.6339 15.8474C22.1913 15.6546 22.5912 15.6427 22.7254 15.6427L20.6549 23.3701ZM25.3413 21.2335C26.0755 20.4078 26.5345 19.5126 26.7644 18.6545H18.7644C18.8763 18.2369 19.1217 17.7357 19.5467 17.2578L25.3413 21.2335ZM26.7644 18.6545L27.0113 17.733H19.0113L18.7644 18.6545H26.7644ZM27.0113 17.733C27.2413 16.8749 27.262 15.9797 26.9703 15.154L19.0451 19.1297C18.8763 18.6518 18.8994 18.1506 19.0113 17.733H27.0113ZM26.9703 15.154C26.2797 13.1986 24.2266 13.0173 23.4289 13.0173L21.3583 20.7448C21.2241 20.7448 20.8306 20.7329 20.3765 20.5401C19.8718 20.3258 19.3136 19.8897 19.0451 19.1297L26.9703 15.154ZM23.4289 13.0173H21.8089L19.7383 20.7448H21.3583L23.4289 13.0173ZM33.4082 17.2809L30.1734 15.7117L30.0211 15.9209L29.8926 16.1396L33.4082 17.2809ZM31.8541 19.9237L28.3384 18.7823L25.3951 23.7874H30.8188L31.8541 19.9237ZM34.6801 19.9237L33.6448 23.7874H39.0685L38.8074 18.7823L34.6801 19.9237ZM34.5422 17.2809L38.6695 16.1396L38.6581 15.9209L38.6179 15.7118L34.5422 17.2809ZM34.4408 17.0549L30.8803 19.787L30.9964 19.9383L31.1336 20.072L34.4408 17.0549ZM33.6128 17.0549L31.9224 14.0379L31.7136 14.1715L31.5164 14.3228L33.6128 17.0549ZM29.8815 26.0091L27.7851 23.277L27.7851 23.277L29.8815 26.0091ZM26.2455 26.0091L22.5681 28.576L22.6789 28.7458L22.8143 28.8968L26.2455 26.0091ZM27.9453 19.7325L24.3278 18.7728L24.3036 18.8181L24.2806 18.8637L27.9453 19.7325ZM28.9093 18.1503L32.271 19.5373L32.2738 19.533L28.9093 18.1503ZM31.5328 14.2035L34.8974 15.5862L34.9294 15.5381L34.9602 15.4894L31.5328 14.2035ZM31.9733 13.7688L30.7586 10.4783L30.6868 10.5151L30.6159 10.554L31.9733 13.7688ZM37.9673 13.7688L34.8871 16.9836L34.9371 17.0226L34.9892 17.0594L37.9673 13.7688ZM38.1928 14.2035L34.0763 15.4894L34.081 15.5381L34.0872 15.5862L38.1928 14.2035ZM38.7013 18.1503L34.5957 19.533L34.5962 19.5373L38.7013 18.1503ZM38.7993 19.7325L34.669 20.6013L34.6676 20.6468L34.6675 20.6921L38.7993 19.7325ZM37.1355 26.0091L39.2319 28.7411L39.2319 28.7411L37.1355 26.0091ZM33.3915 26.0091L29.831 28.7411L29.9471 28.8924L30.0843 29.0261L33.3915 26.0091ZM34.0122 23.0881H38.0122L39.0475 19.2244H35.0475L34.0122 23.0881ZM30.8262 23.0881L31.8615 19.2244H27.8615L26.8262 23.0881H30.8262ZM29.8926 16.1396L28.3384 18.7823L35.3697 21.0651L36.9239 18.4223L29.8926 16.1396ZM30.8188 23.7874H33.6448L35.7154 16.06H32.8894L30.8188 23.7874ZM38.8074 18.7823L38.6695 16.1396L30.4149 18.4223L30.5528 21.0651L38.8074 18.7823ZM38.6179 15.7118C38.5424 15.3187 38.3486 14.6232 37.7479 14.0379L31.1336 20.072C30.8685 19.8137 30.7141 19.5468 30.6238 19.3455C30.533 19.1433 30.489 18.9673 30.4665 18.8501L38.6179 15.7118ZM38.0013 14.3229C37.3733 13.5046 36.3761 13.1217 35.3147 13.1217L33.2441 20.8491C32.8293 20.8491 32.3694 20.7808 31.927 20.5901C31.4803 20.3976 31.1318 20.1148 30.8803 19.787L38.0013 14.3229ZM35.3147 13.1217H34.8647L32.7941 20.8491H33.2441L35.3147 13.1217ZM34.8647 13.1217C33.821 13.1217 32.7892 13.483 31.9224 14.0379L35.3031 20.072C34.5812 20.5342 33.6938 20.8491 32.7941 20.8491L34.8647 13.1217ZM31.5164 14.3228C30.8096 14.8652 30.3665 15.4466 30.1734 15.7117L36.643 18.8501C36.5975 18.9126 36.5103 19.0275 36.3804 19.1712C36.2571 19.3074 36.0339 19.5378 35.7091 19.787L31.5164 14.3228ZM26.174 25.5222C26.2556 25.2177 26.5988 24.1873 27.7851 23.277L31.9779 28.7411C33.4361 27.6222 33.9743 26.2672 34.174 25.5222H26.174ZM27.7851 23.277C28.4461 22.7698 29.0811 22.5246 29.5163 22.4089C29.9374 22.2969 30.2476 22.2844 30.3935 22.2844L28.323 30.0118C28.9326 30.0118 30.4439 29.9182 31.9779 28.7411L27.7851 23.277ZM30.3935 22.2844H27.7475L25.677 30.0118H28.323L30.3935 22.2844ZM27.7475 22.2844C27.9604 22.2844 28.9485 22.3092 29.6767 23.1213L22.8143 28.8968C23.7088 29.8944 25.0081 30.0118 25.677 30.0118L27.7475 22.2844ZM29.923 23.4421C30.5189 24.3558 30.2871 25.3166 30.232 25.5222H22.232C22.0588 26.1683 21.836 27.4537 22.5681 28.576L29.923 23.4421ZM30.232 25.5222L31.4619 20.9321H23.4619L22.232 25.5222H30.232ZM31.4619 20.9321C31.4573 20.9493 31.461 20.9309 31.4851 20.8712C31.509 20.812 31.5483 20.7231 31.6101 20.6013L24.2806 18.8637C23.9517 19.5124 23.6544 20.2135 23.4619 20.9321H31.4619ZM31.5628 20.6921C31.7037 20.4281 31.9301 20.049 32.271 19.5373L25.5475 16.7633C25.0854 17.457 24.6692 18.1328 24.3278 18.7728L31.5628 20.6921ZM32.2738 19.533L34.8974 15.5862L28.1682 12.8208L25.5447 16.7676L32.2738 19.533ZM34.9602 15.4894C34.7124 15.8807 34.1979 16.5074 33.3307 16.9836L30.6159 10.554C29.4109 11.2158 28.6028 12.1323 28.1054 12.9176L34.9602 15.4894ZM33.188 17.0594C32.4441 17.4408 31.8448 17.4934 31.5693 17.4934L33.6398 9.76604C32.8842 9.76604 31.8642 9.91139 30.7586 10.4783L33.188 17.0594ZM31.5693 17.4934H36.4113L38.4818 9.76604H33.6398L31.5693 17.4934ZM36.4113 17.4934C36.0963 17.4934 35.4597 17.4293 34.8871 16.9836L41.0475 10.554C40.2365 9.92295 39.2528 9.76604 38.4818 9.76604L36.4113 17.4934ZM34.9892 17.0594C34.3511 16.6082 34.123 15.9686 34.0763 15.4894L42.3093 12.9176C42.2242 12.0443 41.8458 11.1149 40.9454 10.4783L34.9892 17.0594ZM34.0872 15.5862L34.5957 19.533L42.8068 16.7676L42.2984 12.8208L34.0872 15.5862ZM34.5962 19.5373C34.6606 20.0313 34.6754 20.3787 34.669 20.6013L42.9297 18.8637C42.9495 18.1822 42.899 17.4748 42.8063 16.7633L34.5962 19.5373ZM34.6675 20.6921C34.6673 20.8045 34.6612 20.8811 34.656 20.9256C34.6507 20.9707 34.6476 20.9706 34.6579 20.9321H42.6579C42.8615 20.172 42.9295 19.439 42.9311 18.7728L34.6675 20.6921ZM34.6579 20.9321L33.428 25.5222H41.428L42.6579 20.9321H34.6579ZM33.428 25.5222C33.5096 25.2177 33.8528 24.1873 35.0391 23.277L39.2319 28.7411C40.6901 27.6222 41.2283 26.2672 41.428 25.5222H33.428ZM35.0391 23.277C35.7001 22.7698 36.3351 22.5246 36.7703 22.4089C37.1914 22.2969 37.5016 22.2844 37.6475 22.2844L35.577 30.0118C36.1866 30.0118 37.6979 29.9182 39.2319 28.7411L35.0391 23.277ZM37.6475 22.2844H34.9295L32.859 30.0118H35.577L37.6475 22.2844ZM34.9295 22.2844C35.1169 22.2844 35.9925 22.3037 36.6987 22.992L30.0843 29.0261C30.9809 29.8998 32.1916 30.0118 32.859 30.0118L34.9295 22.2844ZM36.952 23.277C37.6505 24.1873 37.4416 25.2177 37.36 25.5222H29.36C29.1603 26.2672 28.9725 27.6222 29.831 28.7411L36.952 23.277ZM37.36 25.5222L38.0122 23.0881H30.0122L29.36 25.5222H37.36ZM35.0475 19.2244H31.8615L29.7909 26.9518H32.9769L35.0475 19.2244ZM26.8262 23.0881L26.174 25.5222H34.174L34.8262 23.0881H26.8262ZM40.5976 25.2788L37.2416 28.247L37.2513 28.257L37.2612 28.267L40.5976 25.2788ZM43.4814 14.5165L45.2468 17.4846L45.2528 17.4807L43.4814 14.5165ZM51.9031 13.7862L48.2256 16.3531L48.3364 16.523L48.4718 16.674L51.9031 13.7862ZM46.0533 17.2114L47.7436 20.2284L47.8178 20.181L47.8907 20.1312L46.0533 17.2114ZM44.5998 22.636L41.2926 25.6531L41.3446 25.7038L41.3994 25.7517L44.5998 22.636ZM49.4386 22.9838L45.7611 25.5507L45.8719 25.7205L46.0073 25.8715L49.4386 22.9838ZM48.628 26.0091L50.7243 28.7411L50.7243 28.7411L48.628 26.0091ZM49.14 22.2844H44.748L42.6774 30.0118H47.0694L49.14 22.2844ZM44.748 22.2844C44.2505 22.2844 43.9738 22.2349 43.8471 22.1996C43.7277 22.1662 43.809 22.165 43.934 22.2907L37.2612 28.267C38.6481 29.6607 40.761 30.0118 42.6774 30.0118L44.748 22.2844ZM43.9537 22.3106C44.0206 22.3793 44.0776 22.4614 44.1195 22.5515C44.161 22.6406 44.1792 22.719 44.1864 22.7721C44.1999 22.872 44.1702 22.8433 44.2351 22.6013H36.2351C35.7133 24.5485 35.7425 26.7085 37.2416 28.247L43.9537 22.3106ZM44.2351 22.6013L45.6839 17.194H37.6839L36.2351 22.6013H44.2351ZM45.6839 17.194C45.7488 16.952 45.7939 16.9233 45.7268 17.0232C45.6912 17.0763 45.631 17.1546 45.5417 17.2438C45.4515 17.3339 45.3505 17.416 45.2468 17.4846L41.716 11.5483C39.3924 13.0868 38.2057 15.2468 37.6839 17.194H45.6839ZM45.2528 17.4807C45.061 17.608 44.9763 17.6094 45.1049 17.5776C45.2431 17.5434 45.5396 17.4934 46.0317 17.4934L48.1023 9.76604C46.1716 9.76604 43.8544 10.1285 41.71 11.5523L45.2528 17.4807ZM46.0317 17.4934H50.4237L52.4943 9.76604H48.1023L46.0317 17.4934ZM50.4237 17.4934C50.1602 17.4934 48.9405 17.4491 48.2256 16.3531L55.5805 11.2193C54.7295 9.91466 53.2138 9.76604 52.4943 9.76604L50.4237 17.4934ZM48.4718 16.674C47.5982 15.6998 47.8711 14.5102 47.9393 14.2557H55.9393C56.1255 13.5607 56.3742 12.0582 55.3343 10.8985L48.4718 16.674ZM47.9393 14.2557L47.3756 16.3595H55.3756L55.9393 14.2557H47.9393ZM47.3756 16.3595C47.4572 16.0549 47.8004 15.0245 48.9867 14.1142L53.1795 19.5783C54.6377 18.4594 55.1759 17.1044 55.3756 16.3595H47.3756ZM48.9867 14.1142C49.6477 13.6071 50.2827 13.3618 50.7179 13.2461C51.1389 13.1342 51.4492 13.1217 51.5951 13.1217L49.5246 20.8491C50.1342 20.8491 51.6455 20.7554 53.1795 19.5783L48.9867 14.1142ZM51.5951 13.1217H47.9771L45.9066 20.8491H49.5246L51.5951 13.1217ZM47.9771 13.1217C47.1576 13.1217 45.709 13.2707 44.2159 14.2916L47.8907 20.1312C46.8383 20.8507 45.982 20.8491 45.9066 20.8491L47.9771 13.1217ZM44.3629 14.1943C42.6728 15.2763 41.9005 16.7738 41.6109 17.8547H49.6109C49.5488 18.0863 49.4101 18.474 49.0977 18.9282C48.767 19.4091 48.3064 19.8682 47.7436 20.2284L44.3629 14.1943ZM41.6109 17.8547L40.5021 21.9927H48.5021L49.6109 17.8547H41.6109ZM40.5021 21.9927C40.2125 23.0736 40.1823 24.5711 41.2926 25.6531L47.9069 19.619C48.2766 19.9793 48.4912 20.4384 48.5642 20.9193C48.6331 21.3735 48.5642 21.7611 48.5021 21.9927H40.5021ZM41.3994 25.7517C42.3629 26.5941 43.6333 26.691 44.3412 26.691L46.4118 18.9636C46.4482 18.9636 46.6116 18.9654 46.8405 19.0217C47.0701 19.0783 47.4446 19.2095 47.8001 19.5203L41.3994 25.7517ZM44.3412 26.691H47.9592L50.0298 18.9636H46.4118L44.3412 26.691ZM47.9592 26.691C47.6957 26.691 46.4761 26.6467 45.7611 25.5507L53.116 20.4169C52.265 19.1122 50.7493 18.9636 50.0298 18.9636L47.9592 26.691ZM46.0073 25.8715C45.1337 24.8973 45.4066 23.7078 45.4748 23.4532H53.4748C53.661 22.7582 53.9098 21.2557 52.8698 20.096L46.0073 25.8715ZM45.4748 23.4532L44.9204 25.5222H52.9204L53.4748 23.4532H45.4748ZM44.9204 25.5222C45.002 25.2177 45.3453 24.1873 46.5316 23.277L50.7243 28.7411C52.1826 27.6222 52.7208 26.2672 52.9204 25.5222H44.9204ZM46.5316 23.277C47.1925 22.7698 47.8275 22.5246 48.2628 22.4089C48.6838 22.2969 48.9941 22.2844 49.14 22.2844L47.0694 30.0118C47.6791 30.0118 49.1903 29.9182 50.7243 28.7411L46.5316 23.277ZM50.9667 26.0091L47.2893 28.576L47.4001 28.7458L47.5355 28.8968L50.9667 26.0091ZM54.2418 13.7862L52.1454 11.0542L52.1454 11.0542L54.2418 13.7862ZM63.5838 13.7862L59.9064 16.3531L60.0172 16.523L60.1526 16.674L63.5838 13.7862ZM57.2912 16.9158L58.3265 13.0521H54.3265L53.2912 16.9158H57.2912ZM56.9325 18.2546H52.9325L51.8972 22.1183H55.8972L56.9325 18.2546ZM60.8866 18.4111L57.2091 20.978L57.3199 21.1479L57.4553 21.2988L60.8866 18.4111ZM56.0986 21.3668L57.1339 17.5031H53.1339L52.0986 21.3668H56.0986ZM55.6979 22.8621H51.6979L50.6626 26.7258H54.6626L55.6979 22.8621ZM61.11 23.0185L57.4326 25.5855L57.5434 25.7553L57.6788 25.9063L61.11 23.0185ZM60.3087 26.0091L62.4051 28.7411L62.4051 28.7411L60.3087 26.0091ZM60.8207 22.2844H52.4687L50.3981 30.0118H58.7501L60.8207 22.2844ZM52.4687 22.2844C52.6816 22.2844 53.6697 22.3092 54.3979 23.1213L47.5355 28.8968C48.43 29.8944 49.7292 30.0118 50.3981 30.0118L52.4687 22.2844ZM54.6441 23.4421C55.2401 24.3558 55.0082 25.3166 54.9531 25.5222H46.9531C46.78 26.1683 46.5572 27.4537 47.2893 28.576L54.6441 23.4421ZM54.9531 25.5222L57.972 14.2557H49.972L46.9531 25.5222H54.9531ZM57.972 14.2557C57.9342 14.3966 57.8419 14.6931 57.6248 15.0708C57.4004 15.4613 56.9991 16.0111 56.3382 16.5183L52.1454 11.0542C50.6114 12.2313 50.1298 13.6668 49.972 14.2557H57.972ZM56.3382 16.5183C55.1519 17.4286 54.0677 17.4934 53.7524 17.4934L55.823 9.76604C55.0517 9.76604 53.6036 9.93525 52.1454 11.0542L56.3382 16.5183ZM53.7524 17.4934H62.1044L64.175 9.76604H55.823L53.7524 17.4934ZM62.1044 17.4934C61.8409 17.4934 60.6213 17.4491 59.9064 16.3531L67.2612 11.2193C66.4102 9.91466 64.8945 9.76604 64.175 9.76604L62.1044 17.4934ZM60.1526 16.674C59.2789 15.6998 59.5518 14.5102 59.62 14.2557H67.62C67.8062 13.5607 68.055 12.0582 67.015 10.8985L60.1526 16.674ZM59.62 14.2557L59.0749 16.2899H67.0749L67.62 14.2557H59.62ZM59.0749 16.2899C59.1565 15.9854 59.4998 14.955 60.6861 14.0447L64.8789 19.5088C66.3371 18.3899 66.8753 17.0349 67.0749 16.2899H59.0749ZM60.6861 14.0447C61.3471 13.5375 61.982 13.2922 62.4173 13.1765C62.8383 13.0646 63.1486 13.0521 63.2945 13.0521L61.2239 20.7795C61.8336 20.7795 63.3449 20.6859 64.8789 19.5088L60.6861 14.0447ZM63.2945 13.0521H58.3265L56.2559 20.7795H61.2239L63.2945 13.0521ZM53.2912 16.9158L52.9325 18.2546H60.9325L61.2912 16.9158H53.2912ZM55.8972 22.1183H59.4072L61.4778 14.3909H57.9678L55.8972 22.1183ZM59.4072 22.1183C59.1437 22.1183 57.9241 22.074 57.2091 20.978L64.564 15.8442C63.713 14.5395 62.1973 14.3909 61.4778 14.3909L59.4072 22.1183ZM57.4553 21.2988C56.5817 20.3246 56.8546 19.1351 56.9228 18.8805H64.9228C65.109 18.1855 65.3577 16.683 64.3178 15.5233L57.4553 21.2988ZM56.9228 18.8805L56.4243 20.7409H64.4243L64.9228 18.8805H56.9228ZM56.4243 20.7409C56.5059 20.4364 56.8492 19.406 58.0355 18.4957L62.2282 23.9598C63.6864 22.8408 64.2247 21.4859 64.4243 20.7409H56.4243ZM58.0355 18.4957C58.6964 17.9885 59.3314 17.7432 59.7667 17.6275C60.1877 17.5156 60.498 17.5031 60.6439 17.5031L58.5733 25.2305C59.183 25.2305 60.6942 25.1369 62.2282 23.9598L58.0355 18.4957ZM60.6439 17.5031H57.1339L55.0633 25.2305H58.5733L60.6439 17.5031ZM52.0986 21.3668L51.6979 22.8621H59.6979L60.0986 21.3668H52.0986ZM54.6626 26.7258H59.6306L61.7012 18.9984H56.7332L54.6626 26.7258ZM59.6306 26.7258C59.3671 26.7258 58.1475 26.6815 57.4326 25.5855L64.7874 20.4516C63.9364 19.147 62.4207 18.9984 61.7012 18.9984L59.6306 26.7258ZM57.6788 25.9063C56.8051 24.9321 57.078 23.7425 57.1462 23.488H65.1462C65.3324 22.793 65.5812 21.2905 64.5412 20.1308L57.6788 25.9063ZM57.1462 23.488L56.6011 25.5222H64.6011L65.1462 23.488H57.1462ZM56.6011 25.5222C56.6827 25.2177 57.026 24.1873 58.2123 23.277L62.4051 28.7411C63.8633 27.6222 64.4015 26.2672 64.6011 25.5222H56.6011ZM58.2123 23.277C58.8733 22.7698 59.5082 22.5246 59.9435 22.4089C60.3645 22.2969 60.6748 22.2844 60.8207 22.2844L58.7501 30.0118C59.3598 30.0118 60.8711 29.9182 62.4051 28.7411L58.2123 23.277Z" fill="white" mask="url(#path-1-outside-1_295_1524)"/>
</svg>
