<svg width="120" height="120" viewBox="0 0 120 120" fill="none" xmlns="http://www.w3.org/2000/svg">
<g clip-path="url(#clip0_766_1523)">
<rect width="120" height="120" fill="#5669FF"/>
</g>
<path d="M36.24 77.17H36.78V77.845C36.78 78.99 36.38 80.065 35.505 80.495L35.105 79.96C35.885 79.595 36.24 78.705 36.24 77.845V77.17ZM36.375 77.17H36.905V77.845C36.905 78.675 37.235 79.52 37.975 79.88L37.575 80.41C36.74 79.985 36.375 78.955 36.375 77.845V77.17ZM38.16 76.815H38.83V81.445H38.16V76.815ZM38.68 78.595H39.5V79.15H38.68V78.595ZM40.9246 77.33H41.4746V77.72C41.4746 78.595 41.0496 79.385 40.1596 79.675L39.8196 79.155C40.5896 78.905 40.9246 78.305 40.9246 77.72V77.33ZM41.0596 77.33H41.6046V77.72C41.6046 78.27 41.9346 78.835 42.6896 79.075L42.3496 79.59C41.4796 79.315 41.0596 78.56 41.0596 77.72V77.33ZM39.9946 77.145H42.5146V77.67H39.9946V77.145ZM42.9796 76.82H43.6496V80.16H42.9796V76.82ZM40.5646 80.835H43.7646V81.365H40.5646V80.835ZM40.5646 79.86H41.2296V81.1H40.5646V79.86ZM46.4942 76.88C47.5492 76.88 48.1692 77.16 48.1692 77.67C48.1692 78.18 47.5492 78.46 46.4942 78.46C45.4342 78.46 44.8192 78.18 44.8192 77.67C44.8192 77.16 45.4342 76.88 46.4942 76.88ZM46.4942 77.365C45.8242 77.365 45.5092 77.465 45.5092 77.67C45.5092 77.885 45.8242 77.975 46.4942 77.975C47.1642 77.975 47.4792 77.885 47.4792 77.67C47.4792 77.465 47.1642 77.365 46.4942 77.365ZM44.3992 78.675H48.5842V79.2H44.3992V78.675ZM44.8792 79.46H48.0792V80.65H45.5392V81.06H44.8842V80.19H47.4242V79.955H44.8792V79.46ZM44.8842 80.915H48.1992V81.415H44.8842V80.915ZM50.5029 78.93H54.6929V79.47H50.5029V78.93ZM51.0079 78.085H54.2179V78.61H51.0079V78.085ZM51.0079 76.94H54.1929V77.47H51.6679V78.345H51.0079V76.94ZM52.5829 79.745C53.5829 79.745 54.1879 80.05 54.1879 80.595C54.1879 81.14 53.5829 81.445 52.5829 81.445C51.5829 81.445 50.9729 81.14 50.9729 80.595C50.9729 80.05 51.5829 79.745 52.5829 79.745ZM52.5829 80.245C51.9629 80.245 51.6479 80.36 51.6479 80.595C51.6479 80.835 51.9629 80.94 52.5829 80.94C53.2029 80.94 53.5179 80.835 53.5179 80.595C53.5179 80.36 53.2029 80.245 52.5829 80.245ZM55.0975 79.295H59.2925V79.825H55.0975V79.295ZM55.6125 76.905H58.7825V78.16H56.2775V78.66H55.6175V77.69H58.1275V77.41H55.6125V76.905ZM55.6175 78.46H58.8725V78.965H55.6175V78.46ZM56.8625 78.705H57.5275V79.585H56.8625V78.705ZM55.5625 80.085H58.8125V81.43H58.1475V80.61H55.5625V80.085ZM59.6921 77.51H61.9071V78.04H59.6921V77.51ZM60.8071 78.245C61.3971 78.245 61.8221 78.7 61.8221 79.35C61.8221 79.995 61.3971 80.45 60.8071 80.45C60.2221 80.45 59.7921 79.995 59.7921 79.35C59.7921 78.7 60.2221 78.245 60.8071 78.245ZM60.8071 78.8C60.5571 78.8 60.3821 79 60.3821 79.35C60.3821 79.7 60.5571 79.895 60.8071 79.895C61.0571 79.895 61.2371 79.7 61.2371 79.35C61.2371 79 61.0571 78.8 60.8071 78.8ZM63.0421 76.815H63.6771V81.445H63.0421V76.815ZM62.4871 78.695H63.2521V79.23H62.4871V78.695ZM62.0721 76.9H62.6921V81.25H62.0721V76.9ZM60.4821 76.94H61.1371V77.845H60.4821V76.94ZM67.5107 77.33H68.0857V77.465C68.0857 78.28 67.4207 78.945 66.2457 79.105L66.0007 78.585C67.0207 78.46 67.5107 77.94 67.5107 77.465V77.33ZM67.7007 77.33H68.2757V77.465C68.2757 77.94 68.7657 78.46 69.7857 78.585L69.5457 79.105C68.3657 78.945 67.7007 78.28 67.7007 77.465V77.33ZM67.5457 79.75H68.2057V81.45H67.5457V79.75ZM65.8007 79.37H69.9857V79.9H65.8007V79.37ZM66.1707 77.05H69.6057V77.575H66.1707V77.05ZM72.2203 78.37H72.9853V78.91H72.2203V78.37ZM71.2303 77.215H71.7403V77.995C71.7403 79.045 71.4503 80.07 70.7103 80.525L70.3103 80.025C70.9903 79.605 71.2303 78.78 71.2303 77.995V77.215ZM71.3753 77.215H71.8753V77.965C71.8753 78.72 72.0703 79.49 72.7003 79.9L72.3403 80.42C71.6053 79.965 71.3753 78.965 71.3753 77.965V77.215ZM73.7403 76.815H74.3753V81.445H73.7403V76.815ZM72.8003 76.885H73.4203V81.235H72.8003V76.885ZM75.9199 79.165H76.5799V80.465H75.9199V79.165ZM77.5999 79.165H78.2649V80.465H77.5999V79.165ZM74.9999 80.37H79.1899V80.91H74.9999V80.37ZM77.0899 77.04C78.0849 77.04 78.8199 77.53 78.8199 78.285C78.8199 79.04 78.0849 79.525 77.0899 79.525C76.0899 79.525 75.3599 79.04 75.3599 78.285C75.3599 77.53 76.0899 77.04 77.0899 77.04ZM77.0899 77.56C76.4449 77.56 76.0149 77.825 76.0149 78.285C76.0149 78.74 76.4449 79.01 77.0899 79.01C77.7349 79.01 78.1649 78.74 78.1649 78.285C78.1649 77.825 77.7349 77.56 77.0899 77.56ZM79.7295 79.66L79.5045 77.5H80.8545L80.6295 79.66H79.7295ZM80.1795 81.05C79.9862 81.05 79.8279 80.9917 79.7045 80.875C79.5812 80.755 79.5195 80.6133 79.5195 80.45C79.5195 80.2833 79.5812 80.1433 79.7045 80.03C79.8279 79.9167 79.9862 79.86 80.1795 79.86C80.3762 79.86 80.5345 79.9167 80.6545 80.03C80.7779 80.1433 80.8395 80.2833 80.8395 80.45C80.8395 80.6133 80.7779 80.755 80.6545 80.875C80.5345 80.9917 80.3762 81.05 80.1795 81.05Z" fill="white"/>
<path d="M59.5 71C53.1488 71 48 65.8512 48 59.5C48 53.1484 53.1488 48 59.5 48C65.8516 48 71 53.1484 71 59.5C71 65.8512 65.8516 71 59.5 71ZM59.5 49.4149C53.9516 49.4149 49.4375 53.9516 49.4375 59.5C49.4375 65.0484 53.9516 69.5625 59.5 69.5625C65.0484 69.5625 69.5625 65.0484 69.5625 59.5C69.5625 53.9517 65.0484 49.4149 59.5 49.4149ZM64.5312 60.2188H60.2188V64.5312C60.2188 64.928 59.8968 65.25 59.5 65.25C59.1032 65.25 58.7812 64.928 58.7812 64.5312V60.2188H54.4688C54.072 60.2188 53.75 59.8968 53.75 59.5C53.75 59.1032 54.072 58.7812 54.4688 58.7812H58.7812V54.4688C58.7812 54.072 59.1032 53.75 59.5 53.75C59.8968 53.75 60.2188 54.072 60.2188 54.4688V58.7812H64.5312C64.928 58.7812 65.25 59.1032 65.25 59.5C65.25 59.8968 64.928 60.2188 64.5312 60.2188Z" fill="white"/>
<defs>
<clipPath id="clip0_766_1523">
<rect width="120" height="120" rx="12" fill="white"/>
</clipPath>
</defs>
</svg>
