<svg width="120" height="120" viewBox="0 0 120 120" fill="none" xmlns="http://www.w3.org/2000/svg">
<g clip-path="url(#clip0_77_1592)">
<rect width="120" height="120" fill="#5669FF"/>
<path d="M60 48C53.376 48 48 53.376 48 60C48 66.624 53.376 72 60 72C66.624 72 72 66.624 72 60C72 53.376 66.624 48 60 48ZM61.2 66H58.8V58.8H61.2V66ZM61.2 56.4H58.8V54H61.2V56.4Z" fill="white"/>
<path d="M18.38 79.39H22.2V79.92H18.38V79.39ZM18.205 82.445H22.395V82.98H18.205V82.445ZM19.96 81.835H20.62V82.655H19.96V81.835ZM20.285 80.12C21.25 80.12 21.855 80.455 21.855 81.025C21.855 81.595 21.25 81.93 20.285 81.93C19.32 81.93 18.715 81.595 18.715 81.025C18.715 80.455 19.32 80.12 20.285 80.12ZM20.285 80.635C19.705 80.635 19.395 80.76 19.395 81.025C19.395 81.29 19.705 81.41 20.285 81.41C20.865 81.41 21.175 81.29 21.175 81.025C21.175 80.76 20.865 80.635 20.285 80.635ZM19.96 78.865H20.62V79.72H19.96V78.865ZM24.5196 79.08H25.0996V79.415C25.0996 80.42 24.3846 81.31 23.1846 81.545L22.8996 80.995C23.9446 80.815 24.5196 80.08 24.5196 79.415V79.08ZM24.6546 79.08H25.2296V79.415C25.2296 80.095 25.7996 80.815 26.8496 80.995L26.5646 81.545C25.3646 81.31 24.6546 80.435 24.6546 79.415V79.08ZM22.8046 82.34H26.9946V82.88H22.8046V82.34ZM27.8942 81.2H31.1492V81.72H27.8942V81.2ZM27.4042 82.375H31.5942V82.915H27.4042V82.375ZM27.8942 79.15H31.1092V79.685H28.5692V81.345H27.8942V79.15ZM28.3642 80.17H31.0042V80.685H28.3642V80.17ZM34.9588 78.81H35.6288V83.44H34.9588V78.81ZM35.4538 80.58H36.2688V81.125H35.4538V80.58ZM33.7438 79.29H34.3938C34.3938 80.68 33.8638 81.87 32.3238 82.645L31.9538 82.14C33.1688 81.51 33.7438 80.66 33.7438 79.405V79.29ZM32.2088 79.29H34.0838V79.825H32.2088V79.29ZM39.1375 79.17H39.6775V79.845C39.6775 80.99 39.2775 82.065 38.4025 82.495L38.0025 81.96C38.7825 81.595 39.1375 80.705 39.1375 79.845V79.17ZM39.2725 79.17H39.8025V79.845C39.8025 80.675 40.1325 81.52 40.8725 81.88L40.4725 82.41C39.6375 81.985 39.2725 80.955 39.2725 79.845V79.17ZM41.0575 78.815H41.7275V83.445H41.0575V78.815ZM41.5775 80.595H42.3975V81.15H41.5775V80.595ZM43.8221 79.33H44.3721V79.72C44.3721 80.595 43.9471 81.385 43.0571 81.675L42.7171 81.155C43.4871 80.905 43.8221 80.305 43.8221 79.72V79.33ZM43.9571 79.33H44.5021V79.72C44.5021 80.27 44.8321 80.835 45.5871 81.075L45.2471 81.59C44.3771 81.315 43.9571 80.56 43.9571 79.72V79.33ZM42.8921 79.145H45.4121V79.67H42.8921V79.145ZM45.8771 78.82H46.5471V82.16H45.8771V78.82ZM43.4621 82.835H46.6621V83.365H43.4621V82.835ZM43.4621 81.86H44.1271V83.1H43.4621V81.86ZM49.3917 78.88C50.4467 78.88 51.0667 79.16 51.0667 79.67C51.0667 80.18 50.4467 80.46 49.3917 80.46C48.3317 80.46 47.7167 80.18 47.7167 79.67C47.7167 79.16 48.3317 78.88 49.3917 78.88ZM49.3917 79.365C48.7217 79.365 48.4067 79.465 48.4067 79.67C48.4067 79.885 48.7217 79.975 49.3917 79.975C50.0617 79.975 50.3767 79.885 50.3767 79.67C50.3767 79.465 50.0617 79.365 49.3917 79.365ZM47.2967 80.675H51.4817V81.2H47.2967V80.675ZM47.7767 81.46H50.9767V82.65H48.4367V83.06H47.7817V82.19H50.3217V81.955H47.7767V81.46ZM47.7817 82.915H51.0967V83.415H47.7817V82.915ZM53.4003 80.93H57.5903V81.47H53.4003V80.93ZM53.9053 80.085H57.1153V80.61H53.9053V80.085ZM53.9053 78.94H57.0903V79.47H54.5653V80.345H53.9053V78.94ZM55.4803 81.745C56.4803 81.745 57.0853 82.05 57.0853 82.595C57.0853 83.14 56.4803 83.445 55.4803 83.445C54.4803 83.445 53.8703 83.14 53.8703 82.595C53.8703 82.05 54.4803 81.745 55.4803 81.745ZM55.4803 82.245C54.8603 82.245 54.5453 82.36 54.5453 82.595C54.5453 82.835 54.8603 82.94 55.4803 82.94C56.1003 82.94 56.4153 82.835 56.4153 82.595C56.4153 82.36 56.1003 82.245 55.4803 82.245ZM57.9949 81.295H62.1899V81.825H57.9949V81.295ZM58.5099 78.905H61.6799V80.16H59.1749V80.66H58.5149V79.69H61.0249V79.41H58.5099V78.905ZM58.5149 80.46H61.7699V80.965H58.5149V80.46ZM59.7599 80.705H60.4249V81.585H59.7599V80.705ZM58.4599 82.085H61.7099V83.43H61.0449V82.61H58.4599V82.085ZM65.5645 78.815H66.2245V83.445H65.5645V78.815ZM66.0745 80.62H66.8945V81.175H66.0745V80.62ZM62.5745 79.5H65.2695V80.03H62.5745V79.5ZM63.9295 80.29C64.6045 80.29 65.1045 80.75 65.1045 81.395C65.1045 82.04 64.6045 82.5 63.9295 82.5C63.2545 82.5 62.7545 82.04 62.7545 81.395C62.7545 80.75 63.2545 80.29 63.9295 80.29ZM63.9295 80.83C63.6145 80.83 63.3895 81.04 63.3895 81.395C63.3895 81.75 63.6145 81.96 63.9295 81.96C64.2445 81.96 64.4695 81.75 64.4695 81.395C64.4695 81.04 64.2445 80.83 63.9295 80.83ZM63.5945 78.89H64.2595V79.7H63.5945V78.89ZM68.3091 79.545H68.8391V80.065C68.8391 81.135 68.4041 82.18 67.5341 82.575L67.1591 82.05C67.9341 81.705 68.3091 80.85 68.3091 80.065V79.545ZM68.4591 79.545H68.9841V80.065C68.9841 80.815 69.3541 81.615 70.1291 81.935L69.7691 82.46C68.8891 82.08 68.4591 81.095 68.4591 80.065V79.545ZM67.3441 79.26H69.9391V79.805H67.3441V79.26ZM70.3691 78.815H71.0391V83.445H70.3691V78.815ZM74.5578 79.035C75.2678 79.035 75.7928 79.485 75.7928 80.115C75.7928 80.75 75.2678 81.2 74.5578 81.2C73.8528 81.2 73.3228 80.75 73.3228 80.115C73.3228 79.485 73.8528 79.035 74.5578 79.035ZM74.5578 79.575C74.2228 79.575 73.9678 79.78 73.9678 80.115C73.9678 80.455 74.2228 80.66 74.5578 80.66C74.8978 80.66 75.1528 80.455 75.1528 80.115C75.1528 79.78 74.8978 79.575 74.5578 79.575ZM76.2728 78.815H76.9378V81.095H76.2728V78.815ZM76.6728 79.775H77.5528V80.315H76.6728V79.775ZM73.7028 82.795H73.9578C74.3628 82.795 74.7178 82.765 75.0578 82.65L75.1578 83.17C74.7728 83.305 74.4128 83.325 73.9578 83.325H73.7028V82.795ZM73.7028 81.54H74.3478V82.955H73.7028V81.54ZM74.9928 81.555H77.3078V82.03H74.9928V81.555ZM76.1528 82.145C76.6778 82.145 77.0428 82.4 77.0428 82.8C77.0428 83.2 76.6778 83.45 76.1528 83.45C75.6228 83.45 75.2578 83.2 75.2578 82.8C75.2578 82.4 75.6228 82.145 76.1528 82.145ZM76.1528 82.6C75.9728 82.6 75.8478 82.665 75.8478 82.8C75.8478 82.935 75.9728 83 76.1528 83C76.3228 83 76.4528 82.935 76.4528 82.8C76.4528 82.665 76.3228 82.6 76.1528 82.6ZM75.8328 81.225H76.4778V81.91H75.8328V81.225ZM79.1824 79.06C79.8974 79.06 80.4424 79.525 80.4424 80.18C80.4424 80.835 79.8974 81.305 79.1824 81.305C78.4674 81.305 77.9224 80.835 77.9224 80.18C77.9224 79.525 78.4674 79.06 79.1824 79.06ZM79.1824 79.615C78.8324 79.615 78.5724 79.825 78.5724 80.18C78.5724 80.54 78.8324 80.745 79.1824 80.745C79.5324 80.745 79.7924 80.54 79.7924 80.18C79.7924 79.825 79.5324 79.615 79.1824 79.615ZM80.8724 78.815H81.5374V81.4H80.8724V78.815ZM81.3524 79.805H82.1524V80.345H81.3524V79.805ZM78.8724 81.595H79.3674V81.765C79.3674 82.475 79.0674 83.125 78.3474 83.39L78.0174 82.905C78.6224 82.69 78.8724 82.22 78.8724 81.765V81.595ZM79.0374 81.595H79.5174V81.765C79.5174 82.225 79.7374 82.705 80.3124 82.945L80.0374 83.435C79.3024 83.155 79.0374 82.455 79.0374 81.765V81.595ZM80.5574 81.595H81.0374V81.765C81.0374 82.41 80.7674 83.145 80.0374 83.435L79.7624 82.945C80.3324 82.685 80.5574 82.18 80.5574 81.765V81.595ZM80.7124 81.595H81.2124V81.765C81.2124 82.255 81.4574 82.705 82.0624 82.905L81.7374 83.39C81.0074 83.13 80.7124 82.505 80.7124 81.765V81.595ZM82.982 81.59H83.637V81.98H85.492V81.59H86.152V83.395H82.982V81.59ZM83.637 82.475V82.875H85.492V82.475H83.637ZM82.492 80.835H86.677V81.36H82.492V80.835ZM84.247 78.865H84.817V79.005C84.817 79.81 84.127 80.475 82.932 80.63L82.697 80.115C83.742 79.99 84.247 79.475 84.247 79.005V78.865ZM84.357 78.865H84.927V79.005C84.927 79.47 85.432 79.99 86.472 80.115L86.237 80.63C85.042 80.475 84.357 79.805 84.357 79.005V78.865ZM90.2966 78.815H90.9616V83.445H90.2966V78.815ZM87.3366 79.255H87.9966V82.13H87.3366V79.255ZM87.3366 81.74H87.7466C88.4216 81.74 89.1716 81.69 89.9366 81.54L90.0116 82.09C89.2166 82.255 88.4516 82.305 87.7466 82.305H87.3366V81.74ZM94.6512 78.81H95.3212V83.455H94.6512V78.81ZM95.1712 80.525H95.9912V81.07H95.1712V80.525ZM91.8712 81.79H92.2612C93.0412 81.79 93.6562 81.765 94.3362 81.645L94.4012 82.195C93.7012 82.32 93.0662 82.34 92.2612 82.34H91.8712V81.79ZM91.8712 79.24H94.0312V79.775H92.5312V82.055H91.8712V79.24ZM96.8508 83.05C96.6642 83.05 96.5075 82.99 96.3808 82.87C96.2542 82.7467 96.1908 82.59 96.1908 82.4C96.1908 82.2067 96.2542 82.0517 96.3808 81.935C96.5075 81.8183 96.6642 81.76 96.8508 81.76C97.0375 81.76 97.1942 81.8183 97.3208 81.935C97.4475 82.0517 97.5108 82.2067 97.5108 82.4C97.5108 82.59 97.4475 82.7467 97.3208 82.87C97.1942 82.99 97.0375 83.05 96.8508 83.05Z" fill="white"/>
</g>
<defs>
<clipPath id="clip0_77_1592">
<rect width="120" height="120" fill="white"/>
</clipPath>
</defs>
</svg>
