<svg width="70" height="27" viewBox="0 0 70 27" fill="none" xmlns="http://www.w3.org/2000/svg">
<mask id="path-1-outside-1_0_1640" maskUnits="userSpaceOnUse" x="-5.29433" y="-3.79555" width="80.0587" height="33.8074" fill="black">
<rect fill="white" x="-5.29433" y="-3.79555" width="80.0587" height="33.8074"/>
<path d="M10.3494 12.6252H4.66135C4.43335 12.6252 4.27778 12.5788 4.19462 12.4861C4.12658 12.3818 4.12206 12.2195 4.18107 11.9993L4.72614 9.96502C4.78515 9.74479 4.87508 9.58831 4.99593 9.49558C5.13188 9.39126 5.31386 9.3391 5.54186 9.3391H10.3839C10.5399 9.3391 10.6663 9.29274 10.7631 9.20001C10.8751 9.09569 10.9497 8.97398 10.987 8.83489C11.0398 8.63784 11.0366 8.49295 10.9774 8.40022C10.9303 8.3075 10.8303 8.25534 10.6774 8.24374L8.07519 7.87862C7.26625 7.76271 6.65968 7.49612 6.25549 7.07884C5.8633 6.66156 5.79765 5.96609 6.05854 4.99244L6.54771 3.16684C6.81171 2.18159 7.34358 1.42817 8.14335 0.906572C8.94622 0.37338 9.92965 0.106785 11.0936 0.106785H16.1337C16.3616 0.106785 16.5097 0.158945 16.5777 0.263265C16.6609 0.355994 16.6729 0.512474 16.6139 0.732705L16.0595 2.80172C16.0005 3.02195 15.9031 3.18422 15.7671 3.28855C15.6463 3.38127 15.4718 3.42764 15.2438 3.42764H11.0498C10.8938 3.42764 10.7599 3.4798 10.6479 3.58412C10.5391 3.67685 10.4644 3.79855 10.4241 3.94924C10.3837 4.09992 10.3915 4.22742 10.4476 4.33174C10.5036 4.43606 10.6081 4.49402 10.761 4.50561L13.3498 4.85334C14.1588 4.96926 14.7653 5.23585 15.1695 5.65313C15.5737 6.07041 15.6454 6.76588 15.3845 7.73953L14.8953 9.56513C14.6313 10.5504 14.0919 11.3096 13.277 11.8428C12.4772 12.3644 11.5014 12.6252 10.3494 12.6252ZM19.4824 12.6252H16.6924C16.4644 12.6252 16.3088 12.5788 16.2257 12.4861C16.1576 12.3818 16.1531 12.2195 16.2121 11.9993L19.231 0.732705C19.29 0.512474 19.3799 0.355994 19.5008 0.263265C19.6367 0.158945 19.8187 0.106785 20.0467 0.106785H22.8367C23.0647 0.106785 23.2127 0.158945 23.2808 0.263265C23.3639 0.355994 23.376 0.512474 23.317 0.732705L22.306 4.50561H25.312L26.323 0.732705C26.382 0.512474 26.4719 0.355994 26.5928 0.263265C26.7287 0.158945 26.9107 0.106785 27.1387 0.106785H29.9287C30.1567 0.106785 30.3047 0.158945 30.3728 0.263265C30.4559 0.355994 30.468 0.512474 30.409 0.732705L27.3901 11.9993C27.3311 12.2195 27.2336 12.3818 27.0977 12.4861C26.9768 12.5788 26.8024 12.6252 26.5744 12.6252H23.7844C23.5564 12.6252 23.4008 12.5788 23.3177 12.4861C23.2496 12.3818 23.2451 12.2195 23.3041 11.9993L24.3383 8.13942H21.3323L20.2981 11.9993C20.2391 12.2195 20.1416 12.3818 20.0057 12.4861C19.8848 12.5788 19.7104 12.6252 19.4824 12.6252ZM36.7765 3.75798L35.2224 6.40076H38.0484L37.9105 3.75798C37.8905 3.65366 37.8567 3.57832 37.8091 3.53196C37.7735 3.48559 37.7197 3.46241 37.6477 3.46241H37.1977C37.1257 3.46241 37.0535 3.48559 36.9811 3.53196C36.9207 3.57832 36.8525 3.65366 36.7765 3.75798ZM33.5423 11.9993C33.4833 12.2195 33.3858 12.3818 33.2499 12.4861C33.129 12.5788 32.9546 12.6252 32.7266 12.6252H30.0806C29.8526 12.6252 29.697 12.5788 29.6139 12.4861C29.5458 12.3818 29.5413 12.2195 29.6003 11.9993L30.8302 7.40918C30.9234 7.06145 31.0845 6.66156 31.3137 6.2095C31.5548 5.75745 31.8761 5.23006 32.2776 4.62732L34.9011 0.680545C35.0259 0.483496 35.1728 0.338607 35.3416 0.245879C35.5225 0.153149 35.7329 0.106785 35.9729 0.106785L40.8149 0.106785C41.0429 0.106785 41.2165 0.153149 41.3356 0.245879C41.4668 0.338607 41.5419 0.483496 41.5611 0.680545L42.0696 4.62732C42.1481 5.23006 42.1808 5.75745 42.1677 6.2095C42.1665 6.66156 42.1194 7.06145 42.0262 7.40918L40.7963 11.9993C40.7373 12.2195 40.6398 12.3818 40.5039 12.4861C40.383 12.5788 40.2086 12.6252 39.9806 12.6252H37.2626C37.0226 12.6252 36.855 12.5788 36.7599 12.4861C36.6798 12.3818 36.6693 12.2195 36.7283 11.9993L37.3805 9.56513H34.1945L33.5423 11.9993ZM49.4347 3.23638L48.8384 5.46188H50.1884C50.5004 5.46188 50.7306 5.38654 50.879 5.23585C51.0305 5.07358 51.1373 4.87653 51.1994 4.6447L51.3578 4.05356C51.4199 3.82174 51.4171 3.63048 51.3495 3.4798C51.285 3.31752 51.0967 3.23638 50.7847 3.23638H49.4347ZM46.271 12.6252H43.499C43.271 12.6252 43.1154 12.5788 43.0323 12.4861C42.9642 12.3818 42.9597 12.2195 43.0187 11.9993L46.0376 0.732705C46.0966 0.512474 46.1865 0.355994 46.3074 0.263265C46.4433 0.158945 46.6253 0.106785 46.8533 0.106785H52.8473C54.1913 0.106785 55.0423 0.379176 55.4004 0.923958C55.7735 1.45715 55.8451 2.15262 55.6153 3.01036L55.401 3.81014C55.2706 4.29697 55.0808 4.71425 54.8316 5.06198C54.5975 5.39813 54.2743 5.64154 53.8619 5.79222C54.4913 5.86177 54.9449 6.11678 55.2229 6.55724C55.5129 6.9977 55.5601 7.58305 55.3644 8.31329L54.3767 11.9993C54.3177 12.2195 54.2202 12.3818 54.0843 12.4861C53.9635 12.5788 53.789 12.6252 53.561 12.6252H50.771C50.543 12.6252 50.3874 12.5788 50.3043 12.4861C50.2362 12.3818 50.2317 12.2195 50.2907 11.9993L51.0035 9.3391C51.0719 9.0841 51.0676 8.89864 50.9906 8.78273C50.9288 8.65523 50.7719 8.59148 50.5199 8.59148H47.9999L47.0867 11.9993C47.0277 12.2195 46.9302 12.3818 46.7943 12.4861C46.6734 12.5788 46.499 12.6252 46.271 12.6252ZM65.228 12.6252H56.876C56.648 12.6252 56.4924 12.5788 56.4092 12.4861C56.3412 12.3818 56.3367 12.2195 56.3957 11.9993L59.4146 0.732705C59.4736 0.512474 59.5635 0.355994 59.6843 0.263265C59.8203 0.158945 60.0023 0.106785 60.2303 0.106785H68.5823C68.8103 0.106785 68.9583 0.158945 69.0263 0.263265C69.1095 0.355994 69.1216 0.512474 69.0626 0.732705L68.5175 2.76694C68.4585 2.98718 68.361 3.14945 68.225 3.25377C68.1042 3.3465 67.9298 3.39286 67.7018 3.39286H62.7338L62.375 4.73164H65.885C66.113 4.73164 66.2611 4.7838 66.3291 4.88812C66.4123 4.98085 66.4243 5.13733 66.3653 5.35756L65.8668 7.21793C65.8078 7.43816 65.7104 7.60044 65.5744 7.70476C65.4536 7.79749 65.2791 7.84385 65.0511 7.84385H61.5411L61.1405 9.3391H66.1085C66.3365 9.3391 66.4845 9.39126 66.5526 9.49558C66.6357 9.58831 66.6478 9.74479 66.5888 9.96502L66.0437 11.9993C65.9847 12.2195 65.8872 12.3818 65.7512 12.4861C65.6304 12.5788 65.456 12.6252 65.228 12.6252ZM8.54522 26.1481H2.85722C2.62922 26.1481 2.47365 26.1018 2.39049 26.0091C2.32245 25.9047 2.31793 25.7425 2.37694 25.5222L2.92201 23.488C2.98102 23.2678 3.07095 23.1113 3.1918 23.0185C3.32775 22.9142 3.50973 22.8621 3.73773 22.8621H8.57973C8.73573 22.8621 8.86215 22.8157 8.959 22.723C9.07095 22.6187 9.14556 22.4969 9.18283 22.3579C9.23563 22.1608 9.23245 22.0159 9.1733 21.9232C9.12615 21.8305 9.02612 21.7783 8.87323 21.7667L6.27106 21.4016C5.46212 21.2857 4.85555 21.0191 4.45136 20.6018C4.05917 20.1845 3.99352 19.4891 4.25441 18.5154L4.74358 16.6898C5.00758 15.7046 5.53945 14.9511 6.33922 14.4295C7.14208 13.8963 8.12552 13.6297 9.28952 13.6297H14.3295C14.5575 13.6297 14.7055 13.6819 14.7736 13.7862C14.8567 13.879 14.8688 14.0354 14.8098 14.2557L14.2554 16.3247C14.1964 16.5449 14.0989 16.7072 13.963 16.8115C13.8421 16.9042 13.6677 16.9506 13.4397 16.9506H9.2457C9.0897 16.9506 8.95572 17.0028 8.84377 17.1071C8.73492 17.1998 8.66031 17.3215 8.61994 17.4722C8.57956 17.6229 8.5874 17.7504 8.64344 17.8547C8.69949 17.959 8.80396 18.017 8.95686 18.0286L11.5457 18.3763C12.3546 18.4922 12.9612 18.7588 13.3654 19.1761C13.7696 19.5934 13.8412 20.2888 13.5803 21.2625L13.0912 23.0881C12.8272 24.0733 12.2877 24.8326 11.4729 25.3657C10.6731 25.8873 9.69722 26.1481 8.54522 26.1481ZM17.6783 26.1481H14.8883C14.6603 26.1481 14.5047 26.1018 14.4215 26.0091C14.3535 25.9047 14.349 25.7425 14.408 25.5222L17.4268 14.2557C17.4858 14.0354 17.5758 13.879 17.6966 13.7862C17.8326 13.6819 18.0145 13.6297 18.2425 13.6297H23.7506C25.3826 13.6297 26.4147 13.9427 26.847 14.5686C27.2793 15.1945 27.3603 16.0117 27.0901 17.0201L26.4938 19.2456C26.2236 20.2541 25.7046 21.0712 24.9369 21.6972C24.1692 22.3231 22.9693 22.636 21.3373 22.636H19.2673L18.494 25.5222C18.435 25.7425 18.3375 25.9047 18.2015 26.0091C18.0807 26.1018 17.9063 26.1481 17.6783 26.1481ZM20.7734 16.8811L20.0699 19.5064H21.6899C22.0379 19.5064 22.2892 19.4195 22.4438 19.2456C22.5984 19.0718 22.7052 18.8747 22.7642 18.6545L23.0111 17.733C23.0701 17.5128 23.0689 17.3157 23.0075 17.1419C22.9461 16.968 22.7414 16.8811 22.3934 16.8811H20.7734ZM33.408 17.2809L31.8538 19.9237H34.6798L34.542 17.2809C34.5219 17.1766 34.4881 17.1013 34.4405 17.0549C34.405 17.0086 34.3512 16.9854 34.2792 16.9854H33.8292C33.7572 16.9854 33.685 17.0086 33.6125 17.0549C33.5521 17.1013 33.4839 17.1766 33.408 17.2809ZM30.1737 25.5222C30.1147 25.7425 30.0172 25.9047 29.8813 26.0091C29.7604 26.1018 29.586 26.1481 29.358 26.1481H26.712C26.484 26.1481 26.3284 26.1018 26.2453 26.0091C26.1772 25.9047 26.1727 25.7425 26.2317 25.5222L27.4616 20.9321C27.5548 20.5844 27.716 20.1845 27.9451 19.7325C28.1862 19.2804 28.5075 18.753 28.909 18.1503L31.5326 14.2035C31.6574 14.0065 31.8042 13.8616 31.973 13.7688C32.1539 13.6761 32.3643 13.6297 32.6043 13.6297H37.4463C37.6743 13.6297 37.8479 13.6761 37.967 13.7688C38.0982 13.8616 38.1734 14.0065 38.1926 14.2035L38.701 18.1503C38.7795 18.753 38.8122 19.2804 38.7991 19.7325C38.798 20.1845 38.7508 20.5844 38.6576 20.9321L37.4277 25.5222C37.3687 25.7425 37.2712 25.9047 37.1353 26.0091C37.0144 26.1018 36.84 26.1481 36.612 26.1481H33.894C33.654 26.1481 33.4864 26.1018 33.3913 26.0091C33.3112 25.9047 33.3007 25.7425 33.3597 25.5222L34.0119 23.0881H30.8259L30.1737 25.5222ZM48.1044 26.1481H43.7124C42.2124 26.1481 41.1741 25.8584 40.5974 25.2788C40.0327 24.6993 39.9118 23.8067 40.2348 22.6013L41.6837 17.194C42.0067 15.9885 42.6059 15.096 43.4811 14.5165C44.3715 13.9253 45.5667 13.6297 47.0667 13.6297H51.4587C51.6867 13.6297 51.8348 13.6819 51.9028 13.7862C51.986 13.879 51.998 14.0354 51.939 14.2557L51.3753 16.3595C51.3163 16.5797 51.2188 16.742 51.0829 16.8463C50.962 16.939 50.7876 16.9854 50.5596 16.9854H46.9416C46.5696 16.9854 46.2734 17.0607 46.053 17.2114C45.8358 17.3505 45.6883 17.5649 45.6107 17.8547L44.5019 21.9927C44.4242 22.2825 44.4568 22.4969 44.5995 22.636C44.7453 22.7635 45.0043 22.8273 45.3763 22.8273H48.9943C49.2223 22.8273 49.3703 22.8795 49.4383 22.9838C49.5215 23.0765 49.5336 23.233 49.4745 23.4532L48.9202 25.5222C48.8611 25.7425 48.7637 25.9047 48.6277 26.0091C48.5069 26.1018 48.3324 26.1481 48.1044 26.1481ZM59.7852 26.1481H51.4332C51.2052 26.1481 51.0496 26.1018 50.9664 26.0091C50.8984 25.9047 50.8939 25.7425 50.9529 25.5222L53.9718 14.2557C54.0308 14.0354 54.1207 13.879 54.2415 13.7862C54.3775 13.6819 54.5595 13.6297 54.7875 13.6297H63.1395C63.3675 13.6297 63.5155 13.6819 63.5835 13.7862C63.6667 13.879 63.6788 14.0354 63.6198 14.2557L63.0747 16.2899C63.0157 16.5101 62.9182 16.6724 62.7822 16.7767C62.6614 16.8695 62.487 16.9158 62.259 16.9158H57.291L56.9322 18.2546H60.4422C60.6702 18.2546 60.8183 18.3068 60.8863 18.4111C60.9695 18.5038 60.9815 18.6603 60.9225 18.8805L60.424 20.7409C60.365 20.9611 60.2676 21.1234 60.1316 21.2277C60.0108 21.3204 59.8363 21.3668 59.6083 21.3668H56.0983L55.6977 22.8621H60.6657C60.8937 22.8621 61.0417 22.9142 61.1098 23.0185C61.1929 23.1113 61.205 23.2678 61.146 23.488L60.6009 25.5222C60.5419 25.7425 60.4444 25.9047 60.3084 26.0091C60.1876 26.1018 60.0132 26.1481 59.7852 26.1481Z"/>
</mask>
<path d="M10.3494 12.6252H4.66135C4.43335 12.6252 4.27778 12.5788 4.19462 12.4861C4.12658 12.3818 4.12206 12.2195 4.18107 11.9993L4.72614 9.96502C4.78515 9.74479 4.87508 9.58831 4.99593 9.49558C5.13188 9.39126 5.31386 9.3391 5.54186 9.3391H10.3839C10.5399 9.3391 10.6663 9.29274 10.7631 9.20001C10.8751 9.09569 10.9497 8.97398 10.987 8.83489C11.0398 8.63784 11.0366 8.49295 10.9774 8.40022C10.9303 8.3075 10.8303 8.25534 10.6774 8.24374L8.07519 7.87862C7.26625 7.76271 6.65968 7.49612 6.25549 7.07884C5.8633 6.66156 5.79765 5.96609 6.05854 4.99244L6.54771 3.16684C6.81171 2.18159 7.34358 1.42817 8.14335 0.906572C8.94622 0.37338 9.92965 0.106785 11.0936 0.106785H16.1337C16.3616 0.106785 16.5097 0.158945 16.5777 0.263265C16.6609 0.355994 16.6729 0.512474 16.6139 0.732705L16.0595 2.80172C16.0005 3.02195 15.9031 3.18422 15.7671 3.28855C15.6463 3.38127 15.4718 3.42764 15.2438 3.42764H11.0498C10.8938 3.42764 10.7599 3.4798 10.6479 3.58412C10.5391 3.67685 10.4644 3.79855 10.4241 3.94924C10.3837 4.09992 10.3915 4.22742 10.4476 4.33174C10.5036 4.43606 10.6081 4.49402 10.761 4.50561L13.3498 4.85334C14.1588 4.96926 14.7653 5.23585 15.1695 5.65313C15.5737 6.07041 15.6454 6.76588 15.3845 7.73953L14.8953 9.56513C14.6313 10.5504 14.0919 11.3096 13.277 11.8428C12.4772 12.3644 11.5014 12.6252 10.3494 12.6252ZM19.4824 12.6252H16.6924C16.4644 12.6252 16.3088 12.5788 16.2257 12.4861C16.1576 12.3818 16.1531 12.2195 16.2121 11.9993L19.231 0.732705C19.29 0.512474 19.3799 0.355994 19.5008 0.263265C19.6367 0.158945 19.8187 0.106785 20.0467 0.106785H22.8367C23.0647 0.106785 23.2127 0.158945 23.2808 0.263265C23.3639 0.355994 23.376 0.512474 23.317 0.732705L22.306 4.50561H25.312L26.323 0.732705C26.382 0.512474 26.4719 0.355994 26.5928 0.263265C26.7287 0.158945 26.9107 0.106785 27.1387 0.106785H29.9287C30.1567 0.106785 30.3047 0.158945 30.3728 0.263265C30.4559 0.355994 30.468 0.512474 30.409 0.732705L27.3901 11.9993C27.3311 12.2195 27.2336 12.3818 27.0977 12.4861C26.9768 12.5788 26.8024 12.6252 26.5744 12.6252H23.7844C23.5564 12.6252 23.4008 12.5788 23.3177 12.4861C23.2496 12.3818 23.2451 12.2195 23.3041 11.9993L24.3383 8.13942H21.3323L20.2981 11.9993C20.2391 12.2195 20.1416 12.3818 20.0057 12.4861C19.8848 12.5788 19.7104 12.6252 19.4824 12.6252ZM36.7765 3.75798L35.2224 6.40076H38.0484L37.9105 3.75798C37.8905 3.65366 37.8567 3.57832 37.8091 3.53196C37.7735 3.48559 37.7197 3.46241 37.6477 3.46241H37.1977C37.1257 3.46241 37.0535 3.48559 36.9811 3.53196C36.9207 3.57832 36.8525 3.65366 36.7765 3.75798ZM33.5423 11.9993C33.4833 12.2195 33.3858 12.3818 33.2499 12.4861C33.129 12.5788 32.9546 12.6252 32.7266 12.6252H30.0806C29.8526 12.6252 29.697 12.5788 29.6139 12.4861C29.5458 12.3818 29.5413 12.2195 29.6003 11.9993L30.8302 7.40918C30.9234 7.06145 31.0845 6.66156 31.3137 6.2095C31.5548 5.75745 31.8761 5.23006 32.2776 4.62732L34.9011 0.680545C35.0259 0.483496 35.1728 0.338607 35.3416 0.245879C35.5225 0.153149 35.7329 0.106785 35.9729 0.106785L40.8149 0.106785C41.0429 0.106785 41.2165 0.153149 41.3356 0.245879C41.4668 0.338607 41.5419 0.483496 41.5611 0.680545L42.0696 4.62732C42.1481 5.23006 42.1808 5.75745 42.1677 6.2095C42.1665 6.66156 42.1194 7.06145 42.0262 7.40918L40.7963 11.9993C40.7373 12.2195 40.6398 12.3818 40.5039 12.4861C40.383 12.5788 40.2086 12.6252 39.9806 12.6252H37.2626C37.0226 12.6252 36.855 12.5788 36.7599 12.4861C36.6798 12.3818 36.6693 12.2195 36.7283 11.9993L37.3805 9.56513H34.1945L33.5423 11.9993ZM49.4347 3.23638L48.8384 5.46188H50.1884C50.5004 5.46188 50.7306 5.38654 50.879 5.23585C51.0305 5.07358 51.1373 4.87653 51.1994 4.6447L51.3578 4.05356C51.4199 3.82174 51.4171 3.63048 51.3495 3.4798C51.285 3.31752 51.0967 3.23638 50.7847 3.23638H49.4347ZM46.271 12.6252H43.499C43.271 12.6252 43.1154 12.5788 43.0323 12.4861C42.9642 12.3818 42.9597 12.2195 43.0187 11.9993L46.0376 0.732705C46.0966 0.512474 46.1865 0.355994 46.3074 0.263265C46.4433 0.158945 46.6253 0.106785 46.8533 0.106785H52.8473C54.1913 0.106785 55.0423 0.379176 55.4004 0.923958C55.7735 1.45715 55.8451 2.15262 55.6153 3.01036L55.401 3.81014C55.2706 4.29697 55.0808 4.71425 54.8316 5.06198C54.5975 5.39813 54.2743 5.64154 53.8619 5.79222C54.4913 5.86177 54.9449 6.11678 55.2229 6.55724C55.5129 6.9977 55.5601 7.58305 55.3644 8.31329L54.3767 11.9993C54.3177 12.2195 54.2202 12.3818 54.0843 12.4861C53.9635 12.5788 53.789 12.6252 53.561 12.6252H50.771C50.543 12.6252 50.3874 12.5788 50.3043 12.4861C50.2362 12.3818 50.2317 12.2195 50.2907 11.9993L51.0035 9.3391C51.0719 9.0841 51.0676 8.89864 50.9906 8.78273C50.9288 8.65523 50.7719 8.59148 50.5199 8.59148H47.9999L47.0867 11.9993C47.0277 12.2195 46.9302 12.3818 46.7943 12.4861C46.6734 12.5788 46.499 12.6252 46.271 12.6252ZM65.228 12.6252H56.876C56.648 12.6252 56.4924 12.5788 56.4092 12.4861C56.3412 12.3818 56.3367 12.2195 56.3957 11.9993L59.4146 0.732705C59.4736 0.512474 59.5635 0.355994 59.6843 0.263265C59.8203 0.158945 60.0023 0.106785 60.2303 0.106785H68.5823C68.8103 0.106785 68.9583 0.158945 69.0263 0.263265C69.1095 0.355994 69.1216 0.512474 69.0626 0.732705L68.5175 2.76694C68.4585 2.98718 68.361 3.14945 68.225 3.25377C68.1042 3.3465 67.9298 3.39286 67.7018 3.39286H62.7338L62.375 4.73164H65.885C66.113 4.73164 66.2611 4.7838 66.3291 4.88812C66.4123 4.98085 66.4243 5.13733 66.3653 5.35756L65.8668 7.21793C65.8078 7.43816 65.7104 7.60044 65.5744 7.70476C65.4536 7.79749 65.2791 7.84385 65.0511 7.84385H61.5411L61.1405 9.3391H66.1085C66.3365 9.3391 66.4845 9.39126 66.5526 9.49558C66.6357 9.58831 66.6478 9.74479 66.5888 9.96502L66.0437 11.9993C65.9847 12.2195 65.8872 12.3818 65.7512 12.4861C65.6304 12.5788 65.456 12.6252 65.228 12.6252ZM8.54522 26.1481H2.85722C2.62922 26.1481 2.47365 26.1018 2.39049 26.0091C2.32245 25.9047 2.31793 25.7425 2.37694 25.5222L2.92201 23.488C2.98102 23.2678 3.07095 23.1113 3.1918 23.0185C3.32775 22.9142 3.50973 22.8621 3.73773 22.8621H8.57973C8.73573 22.8621 8.86215 22.8157 8.959 22.723C9.07095 22.6187 9.14556 22.4969 9.18283 22.3579C9.23563 22.1608 9.23245 22.0159 9.1733 21.9232C9.12615 21.8305 9.02612 21.7783 8.87323 21.7667L6.27106 21.4016C5.46212 21.2857 4.85555 21.0191 4.45136 20.6018C4.05917 20.1845 3.99352 19.4891 4.25441 18.5154L4.74358 16.6898C5.00758 15.7046 5.53945 14.9511 6.33922 14.4295C7.14208 13.8963 8.12552 13.6297 9.28952 13.6297H14.3295C14.5575 13.6297 14.7055 13.6819 14.7736 13.7862C14.8567 13.879 14.8688 14.0354 14.8098 14.2557L14.2554 16.3247C14.1964 16.5449 14.0989 16.7072 13.963 16.8115C13.8421 16.9042 13.6677 16.9506 13.4397 16.9506H9.2457C9.0897 16.9506 8.95572 17.0028 8.84377 17.1071C8.73492 17.1998 8.66031 17.3215 8.61994 17.4722C8.57956 17.6229 8.5874 17.7504 8.64344 17.8547C8.69949 17.959 8.80396 18.017 8.95686 18.0286L11.5457 18.3763C12.3546 18.4922 12.9612 18.7588 13.3654 19.1761C13.7696 19.5934 13.8412 20.2888 13.5803 21.2625L13.0912 23.0881C12.8272 24.0733 12.2877 24.8326 11.4729 25.3657C10.6731 25.8873 9.69722 26.1481 8.54522 26.1481ZM17.6783 26.1481H14.8883C14.6603 26.1481 14.5047 26.1018 14.4215 26.0091C14.3535 25.9047 14.349 25.7425 14.408 25.5222L17.4268 14.2557C17.4858 14.0354 17.5758 13.879 17.6966 13.7862C17.8326 13.6819 18.0145 13.6297 18.2425 13.6297H23.7506C25.3826 13.6297 26.4147 13.9427 26.847 14.5686C27.2793 15.1945 27.3603 16.0117 27.0901 17.0201L26.4938 19.2456C26.2236 20.2541 25.7046 21.0712 24.9369 21.6972C24.1692 22.3231 22.9693 22.636 21.3373 22.636H19.2673L18.494 25.5222C18.435 25.7425 18.3375 25.9047 18.2015 26.0091C18.0807 26.1018 17.9063 26.1481 17.6783 26.1481ZM20.7734 16.8811L20.0699 19.5064H21.6899C22.0379 19.5064 22.2892 19.4195 22.4438 19.2456C22.5984 19.0718 22.7052 18.8747 22.7642 18.6545L23.0111 17.733C23.0701 17.5128 23.0689 17.3157 23.0075 17.1419C22.9461 16.968 22.7414 16.8811 22.3934 16.8811H20.7734ZM33.408 17.2809L31.8538 19.9237H34.6798L34.542 17.2809C34.5219 17.1766 34.4881 17.1013 34.4405 17.0549C34.405 17.0086 34.3512 16.9854 34.2792 16.9854H33.8292C33.7572 16.9854 33.685 17.0086 33.6125 17.0549C33.5521 17.1013 33.4839 17.1766 33.408 17.2809ZM30.1737 25.5222C30.1147 25.7425 30.0172 25.9047 29.8813 26.0091C29.7604 26.1018 29.586 26.1481 29.358 26.1481H26.712C26.484 26.1481 26.3284 26.1018 26.2453 26.0091C26.1772 25.9047 26.1727 25.7425 26.2317 25.5222L27.4616 20.9321C27.5548 20.5844 27.716 20.1845 27.9451 19.7325C28.1862 19.2804 28.5075 18.753 28.909 18.1503L31.5326 14.2035C31.6574 14.0065 31.8042 13.8616 31.973 13.7688C32.1539 13.6761 32.3643 13.6297 32.6043 13.6297H37.4463C37.6743 13.6297 37.8479 13.6761 37.967 13.7688C38.0982 13.8616 38.1734 14.0065 38.1926 14.2035L38.701 18.1503C38.7795 18.753 38.8122 19.2804 38.7991 19.7325C38.798 20.1845 38.7508 20.5844 38.6576 20.9321L37.4277 25.5222C37.3687 25.7425 37.2712 25.9047 37.1353 26.0091C37.0144 26.1018 36.84 26.1481 36.612 26.1481H33.894C33.654 26.1481 33.4864 26.1018 33.3913 26.0091C33.3112 25.9047 33.3007 25.7425 33.3597 25.5222L34.0119 23.0881H30.8259L30.1737 25.5222ZM48.1044 26.1481H43.7124C42.2124 26.1481 41.1741 25.8584 40.5974 25.2788C40.0327 24.6993 39.9118 23.8067 40.2348 22.6013L41.6837 17.194C42.0067 15.9885 42.6059 15.096 43.4811 14.5165C44.3715 13.9253 45.5667 13.6297 47.0667 13.6297H51.4587C51.6867 13.6297 51.8348 13.6819 51.9028 13.7862C51.986 13.879 51.998 14.0354 51.939 14.2557L51.3753 16.3595C51.3163 16.5797 51.2188 16.742 51.0829 16.8463C50.962 16.939 50.7876 16.9854 50.5596 16.9854H46.9416C46.5696 16.9854 46.2734 17.0607 46.053 17.2114C45.8358 17.3505 45.6883 17.5649 45.6107 17.8547L44.5019 21.9927C44.4242 22.2825 44.4568 22.4969 44.5995 22.636C44.7453 22.7635 45.0043 22.8273 45.3763 22.8273H48.9943C49.2223 22.8273 49.3703 22.8795 49.4383 22.9838C49.5215 23.0765 49.5336 23.233 49.4745 23.4532L48.9202 25.5222C48.8611 25.7425 48.7637 25.9047 48.6277 26.0091C48.5069 26.1018 48.3324 26.1481 48.1044 26.1481ZM59.7852 26.1481H51.4332C51.2052 26.1481 51.0496 26.1018 50.9664 26.0091C50.8984 25.9047 50.8939 25.7425 50.9529 25.5222L53.9718 14.2557C54.0308 14.0354 54.1207 13.879 54.2415 13.7862C54.3775 13.6819 54.5595 13.6297 54.7875 13.6297H63.1395C63.3675 13.6297 63.5155 13.6819 63.5835 13.7862C63.6667 13.879 63.6788 14.0354 63.6198 14.2557L63.0747 16.2899C63.0157 16.5101 62.9182 16.6724 62.7822 16.7767C62.6614 16.8695 62.487 16.9158 62.259 16.9158H57.291L56.9322 18.2546H60.4422C60.6702 18.2546 60.8183 18.3068 60.8863 18.4111C60.9695 18.5038 60.9815 18.6603 60.9225 18.8805L60.424 20.7409C60.365 20.9611 60.2676 21.1234 60.1316 21.2277C60.0108 21.3204 59.8363 21.3668 59.6083 21.3668H56.0983L55.6977 22.8621H60.6657C60.8937 22.8621 61.0417 22.9142 61.1098 23.0185C61.1929 23.1113 61.205 23.2678 61.146 23.488L60.6009 25.5222C60.5419 25.7425 60.4444 25.9047 60.3084 26.0091C60.1876 26.1018 60.0132 26.1481 59.7852 26.1481Z" fill="#222222"/>
<path d="M4.19462 12.4861L0.517187 15.053L0.627992 15.2229L0.763394 15.3739L4.19462 12.4861ZM4.99593 9.49558L7.0923 12.2276H7.0923L4.99593 9.49558ZM10.7631 9.20001L8.24132 6.82793L8.21261 6.85468L8.1843 6.88179L10.7631 9.20001ZM10.9774 8.40022L7.15626 10.7184L7.21549 10.8349L7.28539 10.9445L10.9774 8.40022ZM10.6774 8.24374L9.09749 12.0701L9.2165 12.0868L9.33835 12.0961L10.6774 8.24374ZM8.07519 7.87862L6.48463 11.7035L6.49532 11.705L8.07519 7.87862ZM6.25549 7.07884L2.86629 10.0124L2.88 10.027L2.89394 10.0414L6.25549 7.07884ZM8.14335 0.906572L9.87504 3.89691L9.89529 3.88371L9.91543 3.87033L8.14335 0.906572ZM16.5777 0.263265L12.9003 2.83016L13.0111 3.00003L13.1465 3.15103L16.5777 0.263265ZM10.6479 3.58412L12.9765 6.12838L13.0751 6.04434L13.1697 5.9562L10.6479 3.58412ZM10.761 4.50561L12.3192 0.676251L12.2108 0.661686L12.1 0.653289L10.761 4.50561ZM13.3498 4.85334L14.9404 1.02847L14.9242 1.02616L14.908 1.02398L13.3498 4.85334ZM15.1695 5.65313L18.5311 2.69061L18.5311 2.69061L15.1695 5.65313ZM13.277 11.8428L15.0087 14.8331L15.016 14.8284L13.277 11.8428ZM11.3846 8.76148H5.69663L3.62608 16.4889H9.31408L11.3846 8.76148ZM5.69663 8.76148C5.90955 8.76148 6.89762 8.78623 7.62585 9.59832L0.763394 15.3739C1.65793 16.3714 2.95716 16.4889 3.62608 16.4889L5.69663 8.76148ZM7.87206 9.91919C8.468 10.8328 8.23618 11.7936 8.18107 11.9993H0.181069C0.00794079 12.6454 -0.214848 13.9308 0.517187 15.053L7.87206 9.91919ZM8.18107 11.9993L8.72614 9.96502H0.726142L0.181069 11.9993H8.18107ZM8.72614 9.96502C8.68839 10.1059 8.596 10.4024 8.37893 10.7801C8.15452 11.1706 7.75326 11.7205 7.0923 12.2276L2.89955 6.76353C1.36554 7.94062 0.883931 9.37615 0.726142 9.96502H8.72614ZM7.0923 12.2276C5.90599 13.1379 4.82184 13.2028 4.50658 13.2028L6.57713 5.4754C5.80587 5.4754 4.35777 5.6446 2.89955 6.76353L7.0923 12.2276ZM4.50658 13.2028H9.34858L11.4191 5.4754H6.57713L4.50658 13.2028ZM9.34858 13.2028C10.3503 13.2028 11.9362 12.8642 13.342 11.5182L8.1843 6.88179C8.72637 6.36277 9.35933 5.97748 9.9976 5.7434C10.6015 5.52194 11.0982 5.4754 11.4191 5.4754L9.34858 13.2028ZM13.2849 11.5721C14.1647 10.7523 14.7324 9.7848 14.987 8.83489H6.98696C7.16695 8.16317 7.58549 7.43904 8.24132 6.82793L13.2849 11.5721ZM14.987 8.83489C15.1486 8.23153 15.3797 6.9693 14.6695 5.85596L7.28539 10.9445C6.69347 10.0166 6.93089 9.04415 6.98696 8.83489H14.987ZM14.7986 6.082C14.1709 4.84753 12.9308 4.46075 12.0164 4.39142L9.33835 12.0961C8.72966 12.0499 7.6897 11.7675 7.15626 10.7184L14.7986 6.082ZM12.2572 4.41736L9.65506 4.05224L6.49532 11.705L9.09749 12.0701L12.2572 4.41736ZM9.66575 4.05375C9.52457 4.03352 9.47431 4.01043 9.48058 4.01319C9.48433 4.01484 9.50159 4.02283 9.52723 4.04018C9.55314 4.0577 9.58447 4.08268 9.61705 4.11631L2.89394 10.0414C3.84869 11.027 5.14923 11.5121 6.48463 11.7035L9.66575 4.05375ZM9.6447 4.1453C9.92376 4.44221 10.0109 4.77039 10.0296 4.9679C10.0456 5.13838 10.0093 5.17606 10.0585 4.99244H2.05854C1.65337 6.50455 1.49082 8.54892 2.86629 10.0124L9.6447 4.1453ZM10.0585 4.99244L10.5477 3.16684H2.54771L2.05854 4.99244H10.0585ZM10.5477 3.16684C10.5688 3.08801 10.5567 3.18189 10.4251 3.36829C10.2802 3.57361 10.08 3.76322 9.87504 3.89691L6.41165 -2.08377C4.26314 -0.682524 3.05475 1.27453 2.54771 3.16684H10.5477ZM9.91543 3.87033C9.84404 3.91774 9.77904 3.95207 9.72747 3.97516C9.67688 3.99781 9.64902 4.00528 9.65081 4.0048C9.65935 4.00248 9.78535 3.97049 10.0584 3.97049L12.1289 -3.75692C10.3583 -3.75692 8.31586 -3.34861 6.37126 -2.05719L9.91543 3.87033ZM10.0584 3.97049H15.0984L17.1689 -3.75692H12.1289L10.0584 3.97049ZM15.0984 3.97049C14.8349 3.97049 13.6152 3.92619 12.9003 2.83016L20.2552 -2.30363C19.4041 -3.6083 17.8884 -3.75692 17.1689 -3.75692L15.0984 3.97049ZM13.1465 3.15103C12.2729 2.17679 12.5457 0.987247 12.6139 0.732705H20.6139C20.8002 0.0377016 21.0489 -1.46481 20.009 -2.6245L13.1465 3.15103ZM12.6139 0.732705L12.0595 2.80172H20.0595L20.6139 0.732705H12.6139ZM12.0595 2.80172C12.1411 2.4972 12.4844 1.46678 13.6707 0.556494L17.8635 6.0206C19.3217 4.90167 19.8599 3.5467 20.0595 2.80172H12.0595ZM13.6707 0.556494C14.3317 0.0493183 14.9667 -0.195949 15.4019 -0.311648C15.8229 -0.42356 16.1332 -0.436066 16.2791 -0.436066L14.2086 7.29134C14.8182 7.29134 16.3295 7.19769 17.8635 6.0206L13.6707 0.556494ZM16.2791 -0.436066H12.0851L10.0146 7.29134H14.2086L16.2791 -0.436066ZM12.0851 -0.436066C10.8911 -0.436066 9.39849 0.026381 8.12609 1.21203L13.1697 5.9562C12.7138 6.38101 12.1538 6.74718 11.5297 6.99015C10.9237 7.2261 10.3989 7.29134 10.0146 7.29134L12.0851 -0.436066ZM8.31932 1.03985C7.20985 1.98504 6.6569 3.08029 6.42407 3.94924H14.4241C14.272 4.51682 13.8683 5.36865 12.9765 6.12838L8.31932 1.03985ZM6.42407 3.94924C6.18733 4.83275 6.18395 5.82788 6.65457 6.70383L14.2406 1.95966C14.5991 2.62697 14.5801 3.3671 14.4241 3.94924H6.42407ZM6.65457 6.70383C7.24064 7.79468 8.34218 8.27607 9.42197 8.35793L12.1 0.653289C12.4463 0.679546 12.871 0.76918 13.2828 0.997652C13.7051 1.23192 14.0289 1.56574 14.2406 1.95966L6.65457 6.70383ZM9.20277 8.33497L11.7916 8.6827L14.908 1.02398L12.3192 0.676251L9.20277 8.33497ZM11.7593 8.67822C11.9004 8.69844 11.9507 8.72154 11.9444 8.71878C11.9407 8.71713 11.9234 8.70914 11.8978 8.69179C11.8719 8.67427 11.8405 8.64929 11.808 8.61566L18.5311 2.69061C17.5763 1.70494 16.2758 1.21982 14.9404 1.02847L11.7593 8.67822ZM11.808 8.61565C11.5277 8.32632 11.4331 7.99945 11.4116 7.79103C11.3931 7.61133 11.4315 7.56381 11.3845 7.73953H19.3845C19.7965 6.20161 19.9414 4.14661 18.5311 2.69061L11.808 8.61565ZM11.3845 7.73953L10.8953 9.56513H18.8953L19.3845 7.73953H11.3845ZM10.8953 9.56513C10.8766 9.63475 10.891 9.53857 11.0216 9.35476C11.1643 9.154 11.3548 8.97708 11.538 8.8572L15.016 14.8284C17.1519 13.4307 18.3812 11.4839 18.8953 9.56513H10.8953ZM11.5453 8.85244C11.6148 8.8071 11.6773 8.77472 11.726 8.75327C11.7737 8.73224 11.7989 8.72576 11.795 8.72681C11.7824 8.73018 11.655 8.76148 11.3846 8.76148L9.31408 16.4889C11.0657 16.4889 13.0814 16.0901 15.0087 14.8331L11.5453 8.85244ZM16.2257 12.4861L12.5482 15.053L12.659 15.2229L12.7944 15.3739L16.2257 12.4861ZM19.5008 0.263265L17.4044 -2.46878L17.4044 -2.46878L19.5008 0.263265ZM23.2808 0.263265L19.6033 2.83017L19.7141 3.00004L19.8495 3.15103L23.2808 0.263265ZM22.306 4.50561H18.306L17.2707 8.36931H21.2707L22.306 4.50561ZM25.312 4.50561L24.2767 8.36931H28.2767L29.312 4.50561H25.312ZM26.5928 0.263265L24.4964 -2.46879L24.4964 -2.46878L26.5928 0.263265ZM30.3728 0.263265L26.6953 2.83017L26.8061 3.00004L26.9415 3.15103L30.3728 0.263265ZM27.0977 12.4861L29.194 15.2181L29.194 15.2181L27.0977 12.4861ZM23.3177 12.4861L19.6402 15.053L19.751 15.2229L19.8864 15.3739L23.3177 12.4861ZM24.3383 8.13942H28.3383L29.3736 4.27572H25.3736L24.3383 8.13942ZM21.3323 8.13942L22.3676 4.27572H18.3676L17.3323 8.13942H21.3323ZM20.0057 12.4861L17.9093 9.75404L17.9093 9.75404L20.0057 12.4861ZM20.5177 8.76148H17.7277L15.6571 16.4889H18.4471L20.5177 8.76148ZM17.7277 8.76148C17.9406 8.76148 18.9287 8.78623 19.6569 9.59832L12.7944 15.3739C13.689 16.3714 14.9882 16.4889 15.6571 16.4889L17.7277 8.76148ZM19.9031 9.91919C20.499 10.8328 20.2672 11.7936 20.2121 11.9993H12.2121C12.039 12.6454 11.8162 13.9308 12.5482 15.053L19.9031 9.91919ZM20.2121 11.9993L23.231 0.732705H15.231L12.2121 11.9993H20.2121ZM23.231 0.732705C23.1932 0.873616 23.1008 1.1701 22.8838 1.5478C22.6593 1.93829 22.2581 2.48814 21.5971 2.99531L17.4044 -2.46878C15.8704 -1.2917 15.3888 0.143827 15.231 0.732705H23.231ZM21.5971 2.99531C20.4108 3.90561 19.3267 3.97049 19.0114 3.97049L21.082 -3.75692C20.3107 -3.75692 18.8626 -3.58772 17.4044 -2.46878L21.5971 2.99531ZM19.0114 3.97049H21.8014L23.872 -3.75692H21.082L19.0114 3.97049ZM21.8014 3.97049C21.5379 3.97049 20.3182 3.92619 19.6033 2.83017L26.9582 -2.30364C26.1072 -3.6083 24.5915 -3.75692 23.872 -3.75692L21.8014 3.97049ZM19.8495 3.15103C18.9759 2.17679 19.2488 0.987247 19.317 0.732705H27.317C27.5032 0.0377016 27.7519 -1.46481 26.712 -2.6245L19.8495 3.15103ZM19.317 0.732705L18.306 4.50561H26.306L27.317 0.732705H19.317ZM21.2707 8.36931H24.2767L26.3473 0.641908H23.3413L21.2707 8.36931ZM29.312 4.50561L30.323 0.732705H22.323L21.312 4.50561H29.312ZM30.323 0.732705C30.2852 0.873615 30.1928 1.1701 29.9758 1.5478C29.7513 1.93829 29.3501 2.48814 28.6891 2.99531L24.4964 -2.46878C22.9624 -1.29169 22.4808 0.143829 22.323 0.732705H30.323ZM28.6891 2.99532C27.5028 3.90561 26.4187 3.97049 26.1034 3.97049L28.174 -3.75692C27.4027 -3.75692 25.9546 -3.58772 24.4964 -2.46879L28.6891 2.99532ZM26.1034 3.97049H28.8934L30.964 -3.75692H28.174L26.1034 3.97049ZM28.8934 3.97049C28.6299 3.97049 27.4102 3.92619 26.6953 2.83017L34.0502 -2.30364C33.1992 -3.6083 31.6835 -3.75692 30.964 -3.75692L28.8934 3.97049ZM26.9415 3.15103C26.0679 2.17679 26.3408 0.987247 26.409 0.732705H34.409C34.5952 0.0377016 34.8439 -1.46481 33.804 -2.6245L26.9415 3.15103ZM26.409 0.732705L23.3901 11.9993H31.3901L34.409 0.732705H26.409ZM23.3901 11.9993C23.4717 11.6947 23.815 10.6643 25.0013 9.75404L29.194 15.2181C30.6523 14.0992 31.1905 12.7442 31.3901 11.9993H23.3901ZM25.0013 9.75404C25.6622 9.24687 26.2972 9.0016 26.7325 8.8859C27.1535 8.77399 27.4638 8.76148 27.6097 8.76148L25.5391 16.4889C26.1488 16.4889 27.66 16.3952 29.194 15.2181L25.0013 9.75404ZM27.6097 8.76148H24.8197L22.7491 16.4889H25.5391L27.6097 8.76148ZM24.8197 8.76148C25.0326 8.76148 26.0207 8.78623 26.7489 9.59832L19.8864 15.3739C20.781 16.3714 22.0802 16.4889 22.7491 16.4889L24.8197 8.76148ZM26.9951 9.91919C27.591 10.8328 27.3592 11.7936 27.3041 11.9993H19.3041C19.131 12.6454 18.9082 13.9308 19.6402 15.053L26.9951 9.91919ZM27.3041 11.9993L28.3383 8.13942H20.3383L19.3041 11.9993H27.3041ZM25.3736 4.27572H22.3676L20.2971 12.0031H23.3031L25.3736 4.27572ZM17.3323 8.13942L16.2981 11.9993H24.2981L25.3323 8.13942H17.3323ZM16.2981 11.9993C16.3797 11.6947 16.723 10.6643 17.9093 9.75404L22.102 15.2181C23.5602 14.0992 24.0985 12.7442 24.2981 11.9993H16.2981ZM17.9093 9.75404C18.5702 9.24687 19.2052 9.0016 19.6405 8.8859C20.0615 8.77399 20.3718 8.76148 20.5177 8.76148L18.4471 16.4889C19.0568 16.4889 20.568 16.3952 22.102 15.2181L17.9093 9.75404ZM36.7765 3.75798L33.5418 2.18878L33.3895 2.39794L33.2609 2.61661L36.7765 3.75798ZM35.2224 6.40076L31.7068 5.25938L28.7634 10.2645H34.1871L35.2224 6.40076ZM38.0484 6.40076L37.0131 10.2645H42.4368L42.1757 5.25938L38.0484 6.40076ZM37.9105 3.75798L42.0379 2.61661L42.0265 2.39794L41.9863 2.18879L37.9105 3.75798ZM37.8091 3.53196L34.2486 6.264L34.3647 6.41533L34.5019 6.54902L37.8091 3.53196ZM36.9811 3.53196L35.2907 0.514916L35.0819 0.648585L34.8848 0.799887L36.9811 3.53196ZM33.2499 12.4861L31.1535 9.75404L31.1535 9.75404L33.2499 12.4861ZM29.6139 12.4861L25.9364 15.053L26.0472 15.2229L26.1826 15.3739L29.6139 12.4861ZM31.3137 6.2095L27.6961 5.24986L27.672 5.29515L27.6489 5.34071L31.3137 6.2095ZM32.2776 4.62732L35.6394 6.01431L35.6422 6.01005L32.2776 4.62732ZM34.9011 0.680545L38.2657 2.06327L38.2977 2.0151L38.3285 1.96646L34.9011 0.680545ZM35.3416 0.245879L34.1269 -3.04467L34.0551 -3.00787L33.9842 -2.96892L35.3416 0.245879ZM41.3356 0.245879L38.2554 3.46067L38.3055 3.49963L38.3575 3.53644L41.3356 0.245879ZM41.5611 0.680545L37.4446 1.96646L37.4494 2.0151L37.4556 2.06327L41.5611 0.680545ZM42.0696 4.62732L37.964 6.01005L37.9646 6.01431L42.0696 4.62732ZM42.1677 6.2095L38.0373 7.07829L38.036 7.12386L38.0359 7.16916L42.1677 6.2095ZM40.5039 12.4861L42.6002 15.2181L42.6002 15.2181L40.5039 12.4861ZM36.7599 12.4861L33.1994 15.2181L33.3155 15.3695L33.4527 15.5031L36.7599 12.4861ZM37.3805 9.56513H41.3805L42.4158 5.70143H38.4158L37.3805 9.56513ZM34.1945 9.56513L35.2298 5.70143H31.2298L30.1945 9.56513H34.1945ZM33.2609 2.61661L31.7068 5.25938L38.7381 7.54214L40.2922 4.89936L33.2609 2.61661ZM34.1871 10.2645H37.0131L39.0837 2.53705H36.2577L34.1871 10.2645ZM42.1757 5.25938L42.0379 2.61661L33.7832 4.89936L33.9211 7.54214L42.1757 5.25938ZM41.9863 2.18879C41.9107 1.79577 41.717 1.10026 41.1163 0.514892L34.5019 6.54902C34.2369 6.29073 34.0824 6.0238 33.9921 5.8225C33.9014 5.62033 33.8574 5.44437 33.8348 5.32717L41.9863 2.18879ZM41.3696 0.799918C40.7417 -0.018407 39.7445 -0.401292 38.683 -0.401292L36.6125 7.32611C36.1976 7.32611 35.7377 7.25783 35.2953 7.06715C34.8487 6.87467 34.5002 6.5918 34.2486 6.264L41.3696 0.799918ZM38.683 -0.401292H38.233L36.1625 7.32611H36.6125L38.683 -0.401292ZM38.233 -0.401292C37.1893 -0.401292 36.1575 -0.0400044 35.2907 0.514916L38.6715 6.549C37.9495 7.01119 37.0621 7.32611 36.1625 7.32611L38.233 -0.401292ZM34.8848 0.799887C34.1779 1.34224 33.7348 1.9236 33.5418 2.18878L40.0113 5.32718C39.9659 5.38961 39.8787 5.50457 39.7487 5.6482C39.6254 5.7844 39.4022 6.01486 39.0775 6.26403L34.8848 0.799887ZM29.5423 11.9993C29.6239 11.6947 29.9672 10.6643 31.1535 9.75404L35.3462 15.2181C36.8045 14.0992 37.3427 12.7442 37.5423 11.9993H29.5423ZM31.1535 9.75404C31.8144 9.24687 32.4494 9.0016 32.8847 8.8859C33.3057 8.77399 33.616 8.76148 33.7619 8.76148L31.6913 16.4889C32.301 16.4889 33.8122 16.3952 35.3462 15.2181L31.1535 9.75404ZM33.7619 8.76148H31.1159L29.0453 16.4889H31.6913L33.7619 8.76148ZM31.1159 8.76148C31.3288 8.76148 32.3169 8.78623 33.0451 9.59832L26.1826 15.3739C27.0772 16.3714 28.3764 16.4889 29.0453 16.4889L31.1159 8.76148ZM33.2913 9.91919C33.8872 10.8328 33.6554 11.7936 33.6003 11.9993H25.6003C25.4272 12.6454 25.2044 13.9308 25.9364 15.053L33.2913 9.91919ZM33.6003 11.9993L34.8302 7.40918H26.8302L25.6003 11.9993H33.6003ZM34.8302 7.40918C34.8256 7.4263 34.8294 7.40794 34.8535 7.34819C34.8773 7.28904 34.9167 7.20012 34.9784 7.07829L27.6489 5.34071C27.3201 5.98943 27.0228 6.69057 26.8302 7.40918H34.8302ZM34.9312 7.16915C35.072 6.9051 35.2984 6.52608 35.6394 6.01431L28.9159 3.24033C28.4538 3.93403 28.0376 4.6098 27.6961 5.24986L34.9312 7.16915ZM35.6422 6.01005L38.2657 2.06327L31.5366 -0.702183L28.913 3.24459L35.6422 6.01005ZM38.3285 1.96646C38.0808 2.35769 37.5663 2.98439 36.699 3.46068L33.9842 -2.96892C32.7793 -2.30718 31.9711 -1.3907 31.4737 -0.605372L38.3285 1.96646ZM36.5563 3.53643C35.8124 3.91787 35.2132 3.97049 34.9376 3.97049L37.0082 -3.75692C36.2526 -3.75692 35.2325 -3.61157 34.1269 -3.04467L36.5563 3.53643ZM34.9376 3.97049H39.7796L41.8502 -3.75692H37.0082L34.9376 3.97049ZM39.7796 3.97049C39.4646 3.97049 38.828 3.90631 38.2554 3.46067L44.4158 -2.96891C43.6049 -3.60001 42.6212 -3.75692 41.8502 -3.75692L39.7796 3.97049ZM38.3575 3.53644C37.7194 3.08526 37.4913 2.44565 37.4446 1.96646L45.6777 -0.605369C45.5926 -1.47866 45.2141 -2.40805 44.3137 -3.04468L38.3575 3.53644ZM37.4556 2.06327L37.964 6.01005L46.1752 3.24459L45.6667 -0.702183L37.4556 2.06327ZM37.9646 6.01431C38.0289 6.50831 38.0438 6.85569 38.0373 7.07829L46.298 5.34071C46.3178 4.65921 46.2673 3.9518 46.1746 3.24033L37.9646 6.01431ZM38.0359 7.16916C38.0356 7.28152 38.0296 7.35816 38.0243 7.40263C38.019 7.4477 38.0159 7.44762 38.0262 7.40918H46.0262C46.2299 6.64908 46.2978 5.91602 46.2995 5.24985L38.0359 7.16916ZM38.0262 7.40918L36.7963 11.9993H44.7963L46.0262 7.40918H38.0262ZM36.7963 11.9993C36.8779 11.6947 37.2212 10.6643 38.4075 9.75404L42.6002 15.2181C44.0585 14.0992 44.5967 12.7442 44.7963 11.9993H36.7963ZM38.4075 9.75404C39.0684 9.24687 39.7034 9.0016 40.1387 8.8859C40.5597 8.77399 40.87 8.76148 41.0159 8.76148L38.9453 16.4889C39.555 16.4889 41.0662 16.3952 42.6002 15.2181L38.4075 9.75404ZM41.0159 8.76148H38.2979L36.2273 16.4889H38.9453L41.0159 8.76148ZM38.2979 8.76148C38.4852 8.76148 39.3608 8.78078 40.0671 9.46905L33.4527 15.5031C34.3492 16.3769 35.5599 16.4889 36.2273 16.4889L38.2979 8.76148ZM40.3203 9.75404C41.0188 10.6643 40.8099 11.6947 40.7283 11.9993H32.7283C32.5287 12.7442 32.3408 14.0992 33.1994 15.2181L40.3203 9.75404ZM40.7283 11.9993L41.3805 9.56513H33.3805L32.7283 11.9993H40.7283ZM38.4158 5.70143H35.2298L33.1593 13.4288H36.3452L38.4158 5.70143ZM30.1945 9.56513L29.5423 11.9993H37.5423L38.1945 9.56513H30.1945ZM49.4347 3.23638L50.47 -0.627318H46.47L45.4347 3.23638H49.4347ZM48.8384 5.46188H44.8384L43.8032 9.32558H47.8032L48.8384 5.46188ZM50.879 5.23585L53.5785 7.43511L53.632 7.38077L53.6839 7.32518L50.879 5.23585ZM51.3495 3.4798L47.425 5.56913L47.4471 5.62472L47.4715 5.67906L51.3495 3.4798ZM43.0323 12.4861L39.3549 15.053L39.4657 15.2229L39.6011 15.3739L43.0323 12.4861ZM46.3074 0.263265L44.211 -2.46878L44.211 -2.46878L46.3074 0.263265ZM55.4004 0.923958L51.7279 3.49846L51.7491 3.53077L51.7713 3.56242L55.4004 0.923958ZM54.8316 5.06198L51.573 3.52575L51.5519 3.55511L51.5314 3.58469L54.8316 5.06198ZM53.8619 5.79222L53.2697 2.22914L37.5099 7.98787L52.3912 9.6323L53.8619 5.79222ZM55.2229 6.55724L51.524 9.09062L51.5376 9.11222L51.5516 9.13354L55.2229 6.55724ZM54.0843 12.4861L56.1807 15.2181L56.1807 15.2181L54.0843 12.4861ZM50.3043 12.4861L46.6269 15.053L46.7377 15.2229L46.8731 15.3739L50.3043 12.4861ZM50.9906 8.78273L47.1467 11.0553L47.2256 11.2179L47.3249 11.3674L50.9906 8.78273ZM47.9999 8.59148L49.0351 4.72777H45.0351L43.9999 8.59148H47.9999ZM46.7943 12.4861L44.6979 9.75404L44.6979 9.75404L46.7943 12.4861ZM45.4347 3.23638L44.8384 5.46188H52.8384L53.4347 3.23638H45.4347ZM47.8032 9.32558H49.1532L51.2237 1.59817H49.8737L47.8032 9.32558ZM49.1532 9.32558C49.9226 9.32558 51.8797 9.16033 53.5785 7.43511L48.1795 3.03659C49.5816 1.61274 51.0782 1.59817 51.2237 1.59817L49.1532 9.32558ZM53.6839 7.32518C54.5253 6.42379 54.9792 5.46638 55.1994 4.6447H47.1994C47.2953 4.28667 47.5356 3.72336 48.0741 3.14652L53.6839 7.32518ZM55.1994 4.6447L55.3578 4.05356H47.3578L47.1994 4.6447H55.1994ZM55.3578 4.05356C55.5746 3.24442 55.6537 2.22993 55.2276 1.28054L47.4715 5.67906C47.1806 5.03104 47.2652 4.39905 47.3578 4.05356H55.3578ZM55.2741 1.39047C54.5619 -0.400721 52.6913 -0.627318 51.82 -0.627318L49.7495 7.10009C49.5022 7.10009 48.0081 7.03577 47.425 5.56913L55.2741 1.39047ZM51.82 -0.627318H50.47L48.3995 7.10009H49.7495L51.82 -0.627318ZM47.3063 8.76148H44.5343L42.4637 16.4889H45.2357L47.3063 8.76148ZM44.5343 8.76148C44.7472 8.76148 45.7353 8.78623 46.4635 9.59832L39.6011 15.3739C40.4956 16.3714 41.7948 16.4889 42.4637 16.4889L44.5343 8.76148ZM46.7097 9.91919C47.3057 10.8328 47.0738 11.7936 47.0187 11.9993H39.0187C38.8456 12.6454 38.6228 13.9308 39.3549 15.053L46.7097 9.91919ZM47.0187 11.9993L50.0376 0.732705H42.0376L39.0187 11.9993H47.0187ZM50.0376 0.732705C49.9998 0.873616 49.9075 1.1701 49.6904 1.5478C49.466 1.93829 49.0647 2.48814 48.4038 2.99531L44.211 -2.46878C42.677 -1.2917 42.1954 0.143827 42.0376 0.732705H50.0376ZM48.4038 2.99531C47.2175 3.90561 46.1333 3.97049 45.818 3.97049L47.8886 -3.75692C47.1173 -3.75692 45.6692 -3.58772 44.211 -2.46878L48.4038 2.99531ZM45.818 3.97049H51.812L53.8826 -3.75692H47.8886L45.818 3.97049ZM51.812 3.97049C52.0109 3.97049 52.1507 3.98072 52.242 3.99204C52.3341 4.00347 52.3585 4.01378 52.3358 4.00651C52.2929 3.99278 51.9789 3.88045 51.7279 3.49846L59.0728 -1.65055C57.88 -3.46553 55.5385 -3.75692 53.8826 -3.75692L51.812 3.97049ZM51.7713 3.56242C51.6852 3.43937 51.6338 3.29077 51.6192 3.1488C51.6056 3.01697 51.63 2.9555 51.6153 3.01036H59.6153C60.0586 1.35595 59.9897 -0.342283 59.0294 -1.7145L51.7713 3.56242ZM51.6153 3.01036L51.401 3.81014H59.401L59.6153 3.01036H51.6153ZM51.401 3.81014C51.3735 3.9128 51.3909 3.7798 51.573 3.52575L58.0902 6.59822C58.7706 5.6487 59.1676 4.68114 59.401 3.81014H51.401ZM51.5314 3.58469C51.7357 3.29119 52.014 2.99265 52.3593 2.73265C52.6994 2.47653 53.0219 2.31969 53.2697 2.22914L54.4541 9.35531C55.8605 8.84139 57.1921 7.88881 58.1318 6.53928L51.5314 3.58469ZM52.3912 9.6323C52.2971 9.62189 52.1291 9.58688 51.9451 9.48348C51.7569 9.37769 51.6156 9.23583 51.524 9.09062L58.9219 4.02386C58.1427 2.78919 56.8479 2.1196 55.3326 1.95215L52.3912 9.6323ZM51.5516 9.13354C51.4282 8.94602 51.3691 8.74009 51.3545 8.55928C51.3409 8.38986 51.3699 8.29288 51.3644 8.31329H59.3644C59.7522 6.86593 59.7537 5.28643 58.8942 3.98094L51.5516 9.13354ZM51.3644 8.31329L50.3767 11.9993H58.3767L59.3644 8.31329H51.3644ZM50.3767 11.9993C50.4583 11.6947 50.8016 10.6643 51.9879 9.75404L56.1807 15.2181C57.6389 14.0992 58.1771 12.7442 58.3767 11.9993H50.3767ZM51.9879 9.75404C52.6489 9.24687 53.2838 9.0016 53.7191 8.8859C54.1401 8.77399 54.4504 8.76148 54.5963 8.76148L52.5257 16.4889C53.1354 16.4889 54.6467 16.3952 56.1807 15.2181L51.9879 9.75404ZM54.5963 8.76148H51.8063L49.7357 16.4889H52.5257L54.5963 8.76148ZM51.8063 8.76148C52.0192 8.76148 53.0073 8.78623 53.7355 9.59833L46.8731 15.3739C47.7676 16.3714 49.0668 16.4889 49.7357 16.4889L51.8063 8.76148ZM53.9817 9.91918C54.5777 10.8328 54.3458 11.7936 54.2907 11.9993H46.2907C46.1176 12.6454 45.8948 13.9308 46.6269 15.053L53.9817 9.91918ZM54.2907 11.9993L55.0035 9.3391H47.0035L46.2907 11.9993H54.2907ZM55.0035 9.3391C55.175 8.69898 55.4248 7.35577 54.6563 6.19805L47.3249 11.3674C47.0098 10.8928 46.9287 10.4015 46.9206 10.0548C46.9128 9.71765 46.9716 9.4584 47.0035 9.3391H55.0035ZM54.8345 6.51021C54.0685 4.93086 52.37 4.72777 51.5551 4.72777L49.4846 12.4552C49.1737 12.4552 47.789 12.3796 47.1467 11.0553L54.8345 6.51021ZM51.5551 4.72777H49.0351L46.9646 12.4552H49.4846L51.5551 4.72777ZM43.9999 8.59148L43.0867 11.9993H51.0867L51.9999 8.59148H43.9999ZM43.0867 11.9993C43.1683 11.6947 43.5116 10.6643 44.6979 9.75404L48.8907 15.2181C50.3489 14.0992 50.8871 12.7442 51.0867 11.9993H43.0867ZM44.6979 9.75404C45.3589 9.24687 45.9938 9.0016 46.4291 8.8859C46.8501 8.77399 47.1604 8.76148 47.3063 8.76148L45.2357 16.4889C45.8454 16.4889 47.3567 16.3952 48.8907 15.2181L44.6979 9.75404ZM56.4093 12.4861L52.7318 15.053L52.8426 15.2229L52.978 15.3739L56.4093 12.4861ZM59.6843 0.263265L57.588 -2.46878L57.588 -2.46878L59.6843 0.263265ZM69.0263 0.263265L65.3489 2.83017L65.4597 3.00004L65.5951 3.15103L69.0263 0.263265ZM62.7338 3.39286L63.7691 -0.470839H59.7691L58.7338 3.39286H62.7338ZM62.3751 4.73164H58.3751L57.3398 8.59534H61.3398L62.3751 4.73164ZM66.3291 4.88812L62.6517 7.45503L62.7625 7.62489L62.8979 7.77588L66.3291 4.88812ZM61.5411 7.84385L62.5764 3.98015H58.5764L57.5411 7.84385H61.5411ZM61.1405 9.3391H57.1405L56.1052 13.2028H60.1052L61.1405 9.3391ZM66.5526 9.49558L62.8751 12.0625L62.9859 12.2324L63.1213 12.3834L66.5526 9.49558ZM65.7512 12.4861L67.8476 15.2181L67.8476 15.2181L65.7512 12.4861ZM66.2633 8.76148H57.9113L55.8407 16.4889H64.1927L66.2633 8.76148ZM57.9113 8.76148C58.1242 8.76148 59.1122 8.78623 59.8405 9.59832L52.978 15.3739C53.8726 16.3714 55.1718 16.4889 55.8407 16.4889L57.9113 8.76148ZM60.0867 9.91919C60.6826 10.8328 60.4508 11.7936 60.3957 11.9993H52.3957C52.2226 12.6454 51.9998 13.9308 52.7318 15.053L60.0867 9.91919ZM60.3957 11.9993L63.4146 0.732705H55.4146L52.3957 11.9993H60.3957ZM63.4146 0.732705C63.3768 0.873616 63.2844 1.1701 63.0673 1.5478C62.8429 1.93829 62.4417 2.48814 61.7807 2.99531L57.588 -2.46878C56.054 -1.2917 55.5723 0.143827 55.4146 0.732705H63.4146ZM61.7807 2.99531C60.5944 3.90561 59.5103 3.97049 59.195 3.97049L61.2655 -3.75692C60.4943 -3.75692 59.0462 -3.58772 57.588 -2.46878L61.7807 2.99531ZM59.195 3.97049H67.547L69.6176 -3.75692H61.2655L59.195 3.97049ZM67.547 3.97049C67.2835 3.97049 66.0638 3.92619 65.3489 2.83017L72.7038 -2.30364C71.8528 -3.6083 70.3371 -3.75692 69.6176 -3.75692L67.547 3.97049ZM65.5951 3.15103C64.7215 2.17679 64.9944 0.987247 65.0626 0.732705H73.0626C73.2488 0.0377016 73.4975 -1.46481 72.4576 -2.6245L65.5951 3.15103ZM65.0626 0.732705L64.5175 2.76694H72.5175L73.0626 0.732705H65.0626ZM64.5175 2.76694C64.5991 2.46242 64.9424 1.43201 66.1287 0.52172L70.3214 5.98582C71.7796 4.86689 72.3179 3.51193 72.5175 2.76694H64.5175ZM66.1287 0.52172C66.7896 0.0145484 67.4246 -0.230719 67.8599 -0.34642C68.2809 -0.458333 68.5912 -0.470839 68.737 -0.470839L66.6665 7.25657C67.2761 7.25657 68.7874 7.16291 70.3214 5.98582L66.1287 0.52172ZM68.737 -0.470839H63.7691L61.6985 7.25657H66.6665L68.737 -0.470839ZM58.7338 3.39286L58.3751 4.73164H66.3751L66.7338 3.39286H58.7338ZM61.3398 8.59534H64.8498L66.9203 0.867935H63.4103L61.3398 8.59534ZM64.8498 8.59534C64.5863 8.59534 63.3666 8.55104 62.6517 7.45503L70.0066 2.32121C69.1555 1.01656 67.6398 0.867935 66.9203 0.867935L64.8498 8.59534ZM62.8979 7.77588C62.0243 6.80165 62.2971 5.6121 62.3653 5.35756H70.3653C70.5516 4.66255 70.8003 3.16005 69.7604 2.00035L62.8979 7.77588ZM62.3653 5.35756L61.8668 7.21793H69.8669L70.3653 5.35756H62.3653ZM61.8668 7.21793C61.9484 6.91341 62.2917 5.883 63.478 4.97271L67.6708 10.4368C69.129 9.31788 69.6672 7.96292 69.8669 7.21793H61.8668ZM63.478 4.97271C64.139 4.46553 64.774 4.22027 65.2092 4.10457C65.6302 3.99265 65.9405 3.98015 66.0864 3.98015L64.0159 11.7076C64.6255 11.7076 66.1368 11.6139 67.6708 10.4368L63.478 4.97271ZM66.0864 3.98015H62.5764L60.5059 11.7076H64.0159L66.0864 3.98015ZM57.5411 7.84385L57.1405 9.3391H65.1405L65.5411 7.84385H57.5411ZM60.1052 13.2028H65.0732L67.1438 5.4754H62.1758L60.1052 13.2028ZM65.0732 13.2028C64.8097 13.2028 63.59 13.1585 62.8751 12.0625L70.23 6.92868C69.379 5.62402 67.8633 5.4754 67.1438 5.4754L65.0732 13.2028ZM63.1213 12.3834C62.2477 11.4091 62.5206 10.2196 62.5888 9.96502H70.5888C70.775 9.27002 71.0237 7.76751 69.9838 6.60782L63.1213 12.3834ZM62.5888 9.96502L62.0437 11.9993H70.0437L70.5888 9.96502H62.5888ZM62.0437 11.9993C62.1253 11.6947 62.4686 10.6643 63.6549 9.75404L67.8476 15.2181C69.3058 14.0992 69.8441 12.7442 70.0437 11.9993H62.0437ZM63.6549 9.75404C64.3158 9.24687 64.9508 9.0016 65.3861 8.8859C65.8071 8.77399 66.1174 8.76148 66.2633 8.76148L64.1927 16.4889C64.8024 16.4889 66.3136 16.3952 67.8476 15.2181L63.6549 9.75404ZM2.39049 26.0091L-1.28694 28.576L-1.17614 28.7458L-1.04074 28.8968L2.39049 26.0091ZM3.1918 23.0185L5.28817 25.7506H5.28817L3.1918 23.0185ZM8.959 22.723L6.43719 20.3509L6.40848 20.3776L6.38016 20.4047L8.959 22.723ZM9.1733 21.9232L5.35213 24.2414L5.41136 24.3579L5.48126 24.4675L9.1733 21.9232ZM8.87323 21.7667L7.29336 25.5931L7.41237 25.6098L7.53422 25.619L8.87323 21.7667ZM6.27106 21.4016L4.6805 25.2265L4.69119 25.228L6.27106 21.4016ZM4.45136 20.6018L1.06216 23.5353L1.07587 23.5499L1.08981 23.5643L4.45136 20.6018ZM6.33922 14.4295L8.07091 17.4199L8.09116 17.4067L8.1113 17.3933L6.33922 14.4295ZM14.7736 13.7862L11.0961 16.3531L11.207 16.523L11.3424 16.674L14.7736 13.7862ZM8.84377 17.1071L11.1723 19.6513L11.271 19.5673L11.3656 19.4792L8.84377 17.1071ZM8.95686 18.0286L10.5151 14.1992L10.4066 14.1846L10.2959 14.1763L8.95686 18.0286ZM11.5457 18.3763L13.1362 14.5514L13.1201 14.5491L13.1039 14.5469L11.5457 18.3763ZM13.3654 19.1761L16.7269 16.2136L16.7269 16.2136L13.3654 19.1761ZM11.4729 25.3657L13.2046 28.3561L13.2118 28.3513L11.4729 25.3657ZM9.5805 22.2844H3.8925L1.82195 30.0118H7.50995L9.5805 22.2844ZM3.8925 22.2844C4.10542 22.2844 5.09349 22.3092 5.82172 23.1213L-1.04074 28.8968C-0.146198 29.8944 1.15303 30.0118 1.82195 30.0118L3.8925 22.2844ZM6.06793 23.4421C6.66387 24.3558 6.43205 25.3166 6.37694 25.5222H-1.62306C-1.79619 26.1683 -2.01898 27.4537 -1.28694 28.576L6.06793 23.4421ZM6.37694 25.5222L6.92201 23.488H-1.07799L-1.62306 25.5222H6.37694ZM6.92201 23.488C6.88425 23.6289 6.79186 23.9254 6.5748 24.3031C6.35039 24.6936 5.94913 25.2434 5.28817 25.7506L1.09542 20.2865C-0.438588 21.4636 -0.920199 22.8991 -1.07799 23.488H6.92201ZM5.28817 25.7506C4.10186 26.6609 3.01771 26.7258 2.70245 26.7258L4.773 18.9984C4.00174 18.9984 2.55364 19.1676 1.09542 20.2865L5.28817 25.7506ZM2.70245 26.7258H7.54445L9.615 18.9984H4.773L2.70245 26.7258ZM7.54445 26.7258C8.54614 26.7258 10.1321 26.3872 11.5378 25.0412L6.38016 20.4047C6.92223 19.8857 7.5552 19.5004 8.19346 19.2664C8.79734 19.0449 9.29408 18.9984 9.615 18.9984L7.54445 26.7258ZM11.4808 25.0951C12.3605 24.2753 12.9283 23.3078 13.1828 22.3579H5.18283C5.36282 21.6861 5.78136 20.962 6.43719 20.3509L11.4808 25.0951ZM13.1828 22.3579C13.3445 21.7545 13.5756 20.4923 12.8653 19.3789L5.48126 24.4675C4.88934 23.5396 5.12676 22.5671 5.18283 22.3579H13.1828ZM12.9945 19.605C12.3667 18.3705 11.1267 17.9837 10.2122 17.9144L7.53422 25.619C6.92553 25.5729 5.88557 25.2904 5.35213 24.2414L12.9945 19.605ZM10.4531 17.9403L7.85093 17.5752L4.69119 25.228L7.29336 25.5931L10.4531 17.9403ZM7.86162 17.5767C7.72044 17.5565 7.67018 17.5334 7.67645 17.5361C7.6802 17.5378 7.69746 17.5458 7.7231 17.5631C7.74901 17.5807 7.78034 17.6056 7.81291 17.6393L1.08981 23.5643C2.04456 24.55 3.3451 25.0351 4.6805 25.2265L7.86162 17.5767ZM7.84057 17.6683C8.11963 17.9652 8.20677 18.2933 8.22542 18.4909C8.24151 18.6613 8.20521 18.699 8.25441 18.5154H0.254412C-0.150758 20.0275 -0.313311 22.0719 1.06216 23.5353L7.84057 17.6683ZM8.25441 18.5154L8.74358 16.6898H0.74358L0.254412 18.5154H8.25441ZM8.74358 16.6898C8.7647 16.611 8.75256 16.7049 8.62097 16.8913C8.47603 17.0966 8.2759 17.2862 8.07091 17.4199L4.60752 11.4392C2.45901 12.8404 1.25062 14.7975 0.74358 16.6898H8.74358ZM8.1113 17.3933C8.03991 17.4407 7.97491 17.475 7.92334 17.4981C7.87275 17.5208 7.84489 17.5282 7.84668 17.5278C7.85522 17.5254 7.98122 17.4934 8.25424 17.4934L10.3248 9.76604C8.55418 9.76604 6.51173 10.1744 4.56713 11.4658L8.1113 17.3933ZM8.25424 17.4934H13.2942L15.3648 9.76604H10.3248L8.25424 17.4934ZM13.2942 17.4934C13.0307 17.4934 11.8111 17.4491 11.0961 16.3531L18.451 11.2193C17.6 9.91466 16.0843 9.76604 15.3648 9.76604L13.2942 17.4934ZM11.3424 16.674C10.4687 15.6998 10.7416 14.5102 10.8098 14.2557H18.8098C18.996 13.5607 19.2448 12.0582 18.2048 10.8985L11.3424 16.674ZM10.8098 14.2557L10.2554 16.3247H18.2554L18.8098 14.2557H10.8098ZM10.2554 16.3247C10.337 16.0202 10.6803 14.9897 11.8666 14.0795L16.0593 19.5436C17.5176 18.4246 18.0558 17.0697 18.2554 16.3247H10.2554ZM11.8666 14.0795C12.5276 13.5723 13.1625 13.327 13.5978 13.2113C14.0188 13.0994 14.3291 13.0869 14.475 13.0869L12.4044 20.8143C13.0141 20.8143 14.5253 20.7206 16.0593 19.5436L11.8666 14.0795ZM14.475 13.0869H10.281L8.21042 20.8143H12.4044L14.475 13.0869ZM10.281 13.0869C9.08692 13.0869 7.59436 13.5493 6.32196 14.735L11.3656 19.4792C10.9097 19.904 10.3497 20.2701 9.72559 20.5131C9.11953 20.7491 8.59477 20.8143 8.21042 20.8143L10.281 13.0869ZM6.51519 14.5628C5.40572 15.508 4.85277 16.6033 4.61994 17.4722H12.6199C12.4679 18.0398 12.0641 18.8916 11.1723 19.6513L6.51519 14.5628ZM4.61994 17.4722C4.3832 18.3557 4.37982 19.3508 4.85044 20.2268L12.4365 15.4826C12.795 16.1499 12.7759 16.8901 12.6199 17.4722H4.61994ZM4.85044 20.2268C5.43651 21.3176 6.53805 21.799 7.61784 21.8809L10.2959 14.1763C10.6422 14.2025 11.0668 14.2921 11.4787 14.5206C11.901 14.7549 12.2248 15.0887 12.4365 15.4826L4.85044 20.2268ZM7.39864 21.8579L9.98747 22.2057L13.1039 14.5469L10.5151 14.1992L7.39864 21.8579ZM9.95512 22.2012C10.0963 22.2214 10.1466 22.2445 10.1403 22.2417C10.1365 22.2401 10.1193 22.2321 10.0936 22.2148C10.0677 22.1972 10.0364 22.1722 10.0038 22.1386L16.7269 16.2136C15.7722 15.2279 14.4716 14.7428 13.1362 14.5514L9.95512 22.2012ZM10.0038 22.1386C9.72357 21.8493 9.62896 21.5224 9.60748 21.314C9.58897 21.1343 9.62741 21.0868 9.58033 21.2625H17.5803C17.9924 19.7246 18.1373 17.6696 16.7269 16.2136L10.0038 22.1386ZM9.58033 21.2625L9.09116 23.0881H17.0912L17.5803 21.2625H9.58033ZM9.09116 23.0881C9.07251 23.1577 9.0869 23.0615 9.2175 22.8777C9.36014 22.677 9.55068 22.5 9.73389 22.3802L13.2118 28.3513C15.3478 26.9537 16.577 25.0069 17.0912 23.0881H9.09116ZM9.74118 22.3754C9.8107 22.3301 9.87321 22.2977 9.92188 22.2762C9.96961 22.2552 9.99482 22.2487 9.99089 22.2498C9.97827 22.2531 9.85089 22.2844 9.5805 22.2844L7.50995 30.0118C9.26154 30.0118 11.2773 29.613 13.2046 28.3561L9.74118 22.3754ZM14.4215 26.0091L10.7441 28.576L10.8549 28.7458L10.9903 28.8968L14.4215 26.0091ZM17.6966 13.7862L15.6002 11.0542L15.6002 11.0542L17.6966 13.7862ZM26.847 14.5686L23.2086 17.1937L23.2086 17.1937L26.847 14.5686ZM24.9369 21.6972L22.7052 19.0721L22.7052 19.0721L24.9369 21.6972ZM19.2673 22.636L20.3026 18.7723H16.3026L15.2673 22.636H19.2673ZM18.2015 26.0091L16.1051 23.277L16.1051 23.277L18.2015 26.0091ZM20.7734 16.8811L21.8086 13.0173H17.8086L16.7734 16.8811H20.7734ZM20.0699 19.5064H16.0699L15.0346 23.3701H19.0346L20.0699 19.5064ZM22.4438 19.2456L25.3411 21.2335L25.3411 21.2335L22.4438 19.2456ZM23.0075 17.1419L19.0449 19.1297L19.0449 19.1297L23.0075 17.1419ZM18.7135 22.2844H15.9235L13.853 30.0118H16.643L18.7135 22.2844ZM15.9235 22.2844C16.1364 22.2844 17.1245 22.3092 17.8528 23.1213L10.9903 28.8968C11.8848 29.8944 13.1841 30.0118 13.853 30.0118L15.9235 22.2844ZM18.099 23.4421C18.6949 24.3558 18.4631 25.3166 18.408 25.5222H10.408C10.2348 26.1683 10.0121 27.4537 10.7441 28.576L18.099 23.4421ZM18.408 25.5222L21.4268 14.2557H13.4268L10.408 25.5222H18.408ZM21.4268 14.2557C21.3891 14.3966 21.2967 14.6931 21.0796 15.0708C20.8552 15.4613 20.454 16.0111 19.793 16.5183L15.6002 11.0542C14.0662 12.2313 13.5846 13.6668 13.4268 14.2557H21.4268ZM19.793 16.5183C18.6067 17.4286 17.5225 17.4934 17.2073 17.4934L19.2778 9.76604C18.5066 9.76604 17.0585 9.93525 15.6002 11.0542L19.793 16.5183ZM17.2073 17.4934H22.7153L24.7858 9.76604H19.2778L17.2073 17.4934ZM22.7153 17.4934C22.9937 17.4934 23.2071 17.5069 23.3656 17.5256C23.5251 17.5443 23.6096 17.566 23.6392 17.575C23.7089 17.5961 23.4433 17.5336 23.2086 17.1937L30.4854 11.9436C29.1946 10.0747 26.6699 9.76604 24.7858 9.76604L22.7153 17.4934ZM23.2086 17.1937C23.1846 17.1589 23.1621 17.1162 23.1448 17.0676C23.1276 17.0192 23.1193 16.9755 23.116 16.9423C23.1093 16.8747 23.1262 16.8855 23.0901 17.0201H31.0901C31.5706 15.2268 31.4988 13.4109 30.4854 11.9436L23.2086 17.1937ZM23.0901 17.0201L22.4938 19.2456H30.4938L31.0901 17.0201H23.0901ZM22.4938 19.2456C22.4577 19.3803 22.435 19.3911 22.4779 19.3235C22.499 19.2903 22.5308 19.2466 22.5739 19.1981C22.6172 19.1496 22.6626 19.1069 22.7052 19.0721L27.1686 24.3222C28.9683 22.8549 30.0133 21.039 30.4938 19.2456H22.4938ZM22.7052 19.0721C23.1222 18.7322 23.4212 18.6697 23.3402 18.6908C23.3058 18.6998 23.2097 18.7215 23.0401 18.7402C22.8717 18.7588 22.651 18.7723 22.3726 18.7723L20.302 26.4997C22.1862 26.4997 24.8763 26.1911 27.1686 24.3222L22.7052 19.0721ZM22.3726 18.7723H20.3026L18.232 26.4997H20.302L22.3726 18.7723ZM15.2673 22.636L14.494 25.5222H22.494L23.2673 22.636H15.2673ZM14.494 25.5222C14.5756 25.2177 14.9188 24.1873 16.1051 23.277L20.2979 28.7411C21.7561 27.6222 22.2944 26.2672 22.494 25.5222H14.494ZM16.1051 23.277C16.7661 22.7698 17.4011 22.5246 17.8363 22.4089C18.2574 22.2969 18.5676 22.2844 18.7135 22.2844L16.643 30.0118C17.2526 30.0118 18.7639 29.9182 20.2979 28.7411L16.1051 23.277ZM16.7734 16.8811L16.0699 19.5064H24.0699L24.7734 16.8811H16.7734ZM19.0346 23.3701H20.6546L22.7252 15.6427H21.1052L19.0346 23.3701ZM20.6546 23.3701C21.4524 23.3701 23.6026 23.1889 25.3411 21.2335L19.5465 17.2578C20.2222 16.4978 21.0142 16.0617 21.6337 15.8474C22.1911 15.6546 22.591 15.6427 22.7252 15.6427L20.6546 23.3701ZM25.3411 21.2335C26.0752 20.4078 26.5342 19.5126 26.7642 18.6545H18.7642C18.8761 18.2369 19.1215 17.7357 19.5464 17.2578L25.3411 21.2335ZM26.7642 18.6545L27.0111 17.733H19.0111L18.7642 18.6545H26.7642ZM27.0111 17.733C27.241 16.8749 27.2618 15.9797 26.9701 15.154L19.0449 19.1297C18.876 18.6518 18.8992 18.1506 19.0111 17.733H27.0111ZM26.9701 15.154C26.2794 13.1986 24.2264 13.0173 23.4286 13.0173L21.3581 20.7448C21.2239 20.7448 20.8303 20.7329 20.3763 20.5401C19.8716 20.3258 19.3133 19.8897 19.0449 19.1297L26.9701 15.154ZM23.4286 13.0173H21.8086L19.7381 20.7448H21.3581L23.4286 13.0173ZM33.408 17.2809L30.1732 15.7117L30.0209 15.9209L29.8923 16.1396L33.408 17.2809ZM31.8538 19.9237L28.3382 18.7823L25.3949 23.7874H30.8186L31.8538 19.9237ZM34.6798 19.9237L33.6446 23.7874H39.0683L38.8071 18.7823L34.6798 19.9237ZM34.542 17.2809L38.6693 16.1396L38.6579 15.9209L38.6177 15.7118L34.542 17.2809ZM34.4405 17.0549L30.88 19.787L30.9962 19.9383L31.1334 20.072L34.4405 17.0549ZM33.6125 17.0549L31.9222 14.0379L31.7134 14.1715L31.5162 14.3228L33.6125 17.0549ZM29.8813 26.0091L27.7849 23.277L27.7849 23.277L29.8813 26.0091ZM26.2453 26.0091L22.5678 28.576L22.6786 28.7458L22.814 28.8968L26.2453 26.0091ZM27.9451 19.7325L24.3276 18.7728L24.3034 18.8181L24.2803 18.8637L27.9451 19.7325ZM28.909 18.1503L32.2708 19.5373L32.2736 19.533L28.909 18.1503ZM31.5326 14.2035L34.8971 15.5862L34.9292 15.5381L34.96 15.4894L31.5326 14.2035ZM31.973 13.7688L30.7583 10.4783L30.6866 10.5151L30.6156 10.554L31.973 13.7688ZM37.967 13.7688L34.8868 16.9836L34.9369 17.0226L34.9889 17.0594L37.967 13.7688ZM38.1926 14.2035L34.076 15.4894L34.0808 15.5381L34.087 15.5862L38.1926 14.2035ZM38.701 18.1503L34.5954 19.533L34.596 19.5373L38.701 18.1503ZM38.7991 19.7325L34.6687 20.6013L34.6674 20.6468L34.6673 20.6921L38.7991 19.7325ZM37.1353 26.0091L39.2317 28.7411L39.2317 28.7411L37.1353 26.0091ZM33.3913 26.0091L29.8308 28.7411L29.9469 28.8924L30.0841 29.0261L33.3913 26.0091ZM34.0119 23.0881H38.0119L39.0472 19.2244H35.0472L34.0119 23.0881ZM30.8259 23.0881L31.8612 19.2244H27.8612L26.8259 23.0881H30.8259ZM29.8923 16.1396L28.3382 18.7823L35.3695 21.0651L36.9236 18.4223L29.8923 16.1396ZM30.8186 23.7874H33.6446L35.7151 16.06H32.8891L30.8186 23.7874ZM38.8071 18.7823L38.6693 16.1396L30.4146 18.4223L30.5525 21.0651L38.8071 18.7823ZM38.6177 15.7118C38.5421 15.3187 38.3484 14.6232 37.7477 14.0379L31.1334 20.072C30.8683 19.8137 30.7139 19.5468 30.6235 19.3455C30.5328 19.1433 30.4888 18.9673 30.4663 18.8501L38.6177 15.7118ZM38.001 14.3229C37.3731 13.5046 36.3759 13.1217 35.3144 13.1217L33.2439 20.8491C32.829 20.8491 32.3691 20.7808 31.9267 20.5901C31.4801 20.3976 31.1316 20.1148 30.88 19.787L38.001 14.3229ZM35.3144 13.1217H34.8644L32.7939 20.8491H33.2439L35.3144 13.1217ZM34.8644 13.1217C33.8208 13.1217 32.789 13.483 31.9222 14.0379L35.3029 20.072C34.5809 20.5342 33.6936 20.8491 32.7939 20.8491L34.8644 13.1217ZM31.5162 14.3228C30.8094 14.8652 30.3663 15.4466 30.1732 15.7117L36.6427 18.8501C36.5973 18.9126 36.5101 19.0275 36.3801 19.1712C36.2568 19.3074 36.0336 19.5378 35.7089 19.787L31.5162 14.3228ZM26.1737 25.5222C26.2553 25.2177 26.5986 24.1873 27.7849 23.277L31.9776 28.7411C33.4359 27.6222 33.9741 26.2672 34.1737 25.5222H26.1737ZM27.7849 23.277C28.4459 22.7698 29.0808 22.5246 29.5161 22.4089C29.9371 22.2969 30.2474 22.2844 30.3933 22.2844L28.3227 30.0118C28.9324 30.0118 30.4436 29.9182 31.9777 28.7411L27.7849 23.277ZM30.3933 22.2844H27.7473L25.6767 30.0118H28.3227L30.3933 22.2844ZM27.7473 22.2844C27.9602 22.2844 28.9483 22.3092 29.6765 23.1213L22.814 28.8968C23.7086 29.8944 25.0078 30.0118 25.6767 30.0118L27.7473 22.2844ZM29.9227 23.4421C30.5187 24.3558 30.2868 25.3166 30.2317 25.5222H22.2317C22.0586 26.1683 21.8358 27.4537 22.5678 28.576L29.9227 23.4421ZM30.2317 25.5222L31.4616 20.9321H23.4616L22.2317 25.5222H30.2317ZM31.4616 20.9321C31.457 20.9493 31.4608 20.9309 31.4849 20.8712C31.5087 20.812 31.5481 20.7231 31.6099 20.6013L24.2803 18.8637C23.9515 19.5124 23.6542 20.2135 23.4616 20.9321H31.4616ZM31.5626 20.6921C31.7034 20.4281 31.9299 20.049 32.2708 19.5373L25.5473 16.7633C25.0852 17.457 24.669 18.1328 24.3276 18.7728L31.5626 20.6921ZM32.2736 19.533L34.8971 15.5862L28.168 12.8208L25.5445 16.7676L32.2736 19.533ZM34.96 15.4894C34.7122 15.8807 34.1977 16.5074 33.3304 16.9836L30.6156 10.554C29.4107 11.2158 28.6025 12.1323 28.1052 12.9176L34.96 15.4894ZM33.1877 17.0594C32.4438 17.4408 31.8446 17.4934 31.569 17.4934L33.6396 9.76604C32.884 9.76604 31.8639 9.91139 30.7583 10.4783L33.1877 17.0594ZM31.569 17.4934H36.411L38.4816 9.76604H33.6396L31.569 17.4934ZM36.411 17.4934C36.096 17.4934 35.4595 17.4293 34.8868 16.9836L41.0472 10.554C40.2363 9.92295 39.2526 9.76604 38.4816 9.76604L36.411 17.4934ZM34.9889 17.0594C34.3508 16.6082 34.1227 15.9686 34.076 15.4894L42.3091 12.9176C42.224 12.0443 41.8456 11.1149 40.9451 10.4783L34.9889 17.0594ZM34.087 15.5862L34.5954 19.533L42.8066 16.7676L42.2981 12.8208L34.087 15.5862ZM34.596 19.5373C34.6603 20.0313 34.6752 20.3787 34.6687 20.6013L42.9294 18.8637C42.9492 18.1822 42.8987 17.4748 42.8061 16.7633L34.596 19.5373ZM34.6673 20.6921C34.667 20.8045 34.661 20.8811 34.6557 20.9256C34.6504 20.9707 34.6473 20.9706 34.6576 20.9321H42.6576C42.8613 20.172 42.9292 19.439 42.9309 18.7728L34.6673 20.6921ZM34.6576 20.9321L33.4277 25.5222H41.4277L42.6576 20.9321H34.6576ZM33.4277 25.5222C33.5093 25.2177 33.8526 24.1873 35.0389 23.277L39.2317 28.7411C40.6899 27.6222 41.2281 26.2672 41.4277 25.5222H33.4277ZM35.0389 23.277C35.6999 22.7698 36.3348 22.5246 36.7701 22.4089C37.1911 22.2969 37.5014 22.2844 37.6473 22.2844L35.5767 30.0118C36.1864 30.0118 37.6976 29.9182 39.2317 28.7411L35.0389 23.277ZM37.6473 22.2844H34.9293L32.8587 30.0118H35.5767L37.6473 22.2844ZM34.9293 22.2844C35.1166 22.2844 35.9922 22.3037 36.6985 22.992L30.0841 29.0261C30.9806 29.8998 32.1914 30.0118 32.8587 30.0118L34.9293 22.2844ZM36.9518 23.277C37.6502 24.1873 37.4413 25.2177 37.3597 25.5222H29.3597C29.1601 26.2672 28.9722 27.6222 29.8308 28.7411L36.9518 23.277ZM37.3597 25.5222L38.0119 23.0881H30.0119L29.3597 25.5222H37.3597ZM35.0472 19.2244H31.8612L29.7907 26.9518H32.9767L35.0472 19.2244ZM26.8259 23.0881L26.1737 25.5222H34.1737L34.8259 23.0881H26.8259ZM40.5974 25.2788L37.2413 28.247L37.2511 28.257L37.261 28.267L40.5974 25.2788ZM43.4811 14.5165L45.2466 17.4846L45.2526 17.4807L43.4811 14.5165ZM51.9028 13.7862L48.2254 16.3531L48.3362 16.523L48.4716 16.674L51.9028 13.7862ZM46.053 17.2114L47.7434 20.2285L47.8176 20.181L47.8904 20.1312L46.053 17.2114ZM44.5995 22.636L41.2923 25.6531L41.3443 25.7038L41.3992 25.7517L44.5995 22.636ZM49.4383 22.9838L45.7609 25.5507L45.8717 25.7205L46.0071 25.8715L49.4383 22.9838ZM48.6277 26.0091L50.7241 28.7411L50.7241 28.7411L48.6277 26.0091ZM49.1397 22.2844H44.7477L42.6772 30.0118H47.0692L49.1397 22.2844ZM44.7477 22.2844C44.2503 22.2844 43.9736 22.2349 43.8469 22.1996C43.7274 22.1662 43.8087 22.165 43.9338 22.2907L37.261 28.267C38.6479 29.6607 40.7607 30.0118 42.6772 30.0118L44.7477 22.2844ZM43.9534 22.3106C44.0203 22.3793 44.0773 22.4614 44.1193 22.5515C44.1608 22.6406 44.179 22.719 44.1862 22.7721C44.1997 22.872 44.17 22.8433 44.2348 22.6013H36.2348C35.7131 24.5485 35.7422 26.7085 37.2413 28.247L43.9534 22.3106ZM44.2348 22.6013L45.6837 17.194H37.6837L36.2348 22.6013H44.2348ZM45.6837 17.194C45.7486 16.952 45.7936 16.9233 45.7266 17.0232C45.6909 17.0763 45.6307 17.1546 45.5414 17.2438C45.4512 17.3339 45.3502 17.416 45.2466 17.4846L41.7157 11.5483C39.3922 13.0868 38.2054 15.2468 37.6837 17.194H45.6837ZM45.2526 17.4807C45.0608 17.608 44.976 17.6094 45.1046 17.5776C45.2429 17.5434 45.5393 17.4934 46.0315 17.4934L48.102 9.76604C46.1713 9.76604 43.8542 10.1285 41.7097 11.5523L45.2526 17.4807ZM46.0315 17.4934H50.4235L52.494 9.76604H48.102L46.0315 17.4934ZM50.4235 17.4934C50.1599 17.4934 48.9403 17.4491 48.2254 16.3531L55.5802 11.2193C54.7292 9.91466 53.2135 9.76604 52.494 9.76604L50.4235 17.4934ZM48.4716 16.674C47.5979 15.6998 47.8708 14.5102 47.939 14.2557H55.939C56.1252 13.5607 56.374 12.0582 55.334 10.8985L48.4716 16.674ZM47.939 14.2557L47.3753 16.3595H55.3753L55.939 14.2557H47.939ZM47.3753 16.3595C47.4569 16.0549 47.8002 15.0245 48.9865 14.1142L53.1792 19.5783C54.6375 18.4594 55.1757 17.1044 55.3753 16.3595H47.3753ZM48.9865 14.1142C49.6475 13.6071 50.2824 13.3618 50.7177 13.2461C51.1387 13.1342 51.449 13.1217 51.5949 13.1217L49.5243 20.8491C50.134 20.8491 51.6452 20.7554 53.1792 19.5783L48.9865 14.1142ZM51.5949 13.1217H47.9769L45.9063 20.8491H49.5243L51.5949 13.1217ZM47.9769 13.1217C47.1574 13.1217 45.7088 13.2707 44.2157 14.2916L47.8904 20.1312C46.838 20.8507 45.9818 20.8491 45.9063 20.8491L47.9769 13.1217ZM44.3627 14.1944C42.6726 15.2763 41.9003 16.7738 41.6107 17.8547H49.6107C49.5486 18.0863 49.4098 18.474 49.0975 18.9282C48.7668 19.4091 48.3062 19.8682 47.7434 20.2285L44.3627 14.1944ZM41.6107 17.8547L40.5019 21.9927H48.5019L49.6107 17.8547H41.6107ZM40.5019 21.9927C40.2123 23.0736 40.1821 24.5711 41.2923 25.6531L47.9067 19.619C48.2764 19.9793 48.491 20.4384 48.564 20.9193C48.6329 21.3735 48.5639 21.7611 48.5019 21.9927H40.5019ZM41.3992 25.7517C42.3626 26.5941 43.633 26.691 44.341 26.691L46.4115 18.9636C46.448 18.9636 46.6114 18.9654 46.8403 19.0217C47.0699 19.0783 47.4443 19.2095 47.7998 19.5203L41.3992 25.7517ZM44.341 26.691H47.959L50.0295 18.9636H46.4115L44.341 26.691ZM47.959 26.691C47.6955 26.691 46.4758 26.6467 45.7609 25.5507L53.1158 20.4169C52.2647 19.1122 50.7491 18.9636 50.0295 18.9636L47.959 26.691ZM46.0071 25.8715C45.1335 24.8973 45.4063 23.7078 45.4745 23.4532H53.4745C53.6608 22.7582 53.9095 21.2557 52.8696 20.096L46.0071 25.8715ZM45.4745 23.4532L44.9202 25.5222H52.9202L53.4745 23.4532H45.4745ZM44.9202 25.5222C45.0018 25.2177 45.345 24.1873 46.5313 23.277L50.7241 28.7411C52.1823 27.6222 52.7205 26.2672 52.9202 25.5222H44.9202ZM46.5313 23.277C47.1923 22.7698 47.8273 22.5246 48.2625 22.4089C48.6835 22.2969 48.9938 22.2844 49.1397 22.2844L47.0692 30.0118C47.6788 30.0118 49.1901 29.9182 50.7241 28.7411L46.5313 23.277ZM50.9664 26.0091L47.289 28.576L47.3998 28.7458L47.5352 28.8968L50.9664 26.0091ZM54.2415 13.7862L52.1452 11.0542L52.1452 11.0542L54.2415 13.7862ZM63.5835 13.7862L59.9061 16.3531L60.0169 16.523L60.1523 16.674L63.5835 13.7862ZM57.291 16.9158L58.3262 13.0521H54.3262L53.291 16.9158H57.291ZM56.9322 18.2546H52.9322L51.897 22.1183H55.897L56.9322 18.2546ZM60.8863 18.4111L57.2089 20.978L57.3197 21.1479L57.4551 21.2988L60.8863 18.4111ZM56.0983 21.3668L57.1336 17.5031H53.1336L52.0983 21.3668H56.0983ZM55.6977 22.8621H51.6977L50.6624 26.7258H54.6624L55.6977 22.8621ZM61.1098 23.0185L57.4323 25.5855L57.5431 25.7553L57.6785 25.9063L61.1098 23.0185ZM60.3084 26.0091L62.4048 28.7411L62.4048 28.7411L60.3084 26.0091ZM60.8205 22.2844H52.4685L50.3979 30.0118H58.7499L60.8205 22.2844ZM52.4685 22.2844C52.6814 22.2844 53.6694 22.3092 54.3977 23.1213L47.5352 28.8968C48.4298 29.8944 49.729 30.0118 50.3979 30.0118L52.4685 22.2844ZM54.6439 23.4421C55.2398 24.3558 55.008 25.3166 54.9529 25.5222H46.9529C46.7798 26.1683 46.557 27.4537 47.289 28.576L54.6439 23.4421ZM54.9529 25.5222L57.9718 14.2557H49.9718L46.9529 25.5222H54.9529ZM57.9718 14.2557C57.934 14.3966 57.8416 14.6931 57.6245 15.0708C57.4001 15.4613 56.9989 16.0111 56.3379 16.5183L52.1452 11.0542C50.6112 12.2313 50.1295 13.6668 49.9718 14.2557H57.9718ZM56.3379 16.5183C55.1516 17.4286 54.0675 17.4934 53.7522 17.4934L55.8227 9.76604C55.0515 9.76604 53.6034 9.93525 52.1452 11.0542L56.3379 16.5183ZM53.7522 17.4934H62.1042L64.1747 9.76604H55.8227L53.7522 17.4934ZM62.1042 17.4934C61.8407 17.4934 60.621 17.4491 59.9061 16.3531L67.261 11.2193C66.41 9.91466 64.8943 9.76604 64.1747 9.76604L62.1042 17.4934ZM60.1523 16.674C59.2787 15.6998 59.5516 14.5102 59.6198 14.2557H67.6198C67.806 13.5607 68.0547 12.0582 67.0148 10.8985L60.1523 16.674ZM59.6198 14.2557L59.0747 16.2899H67.0747L67.6198 14.2557H59.6198ZM59.0747 16.2899C59.1563 15.9854 59.4996 14.955 60.6859 14.0447L64.8786 19.5088C66.3368 18.3899 66.8751 17.0349 67.0747 16.2899H59.0747ZM60.6859 14.0447C61.3468 13.5375 61.9818 13.2922 62.4171 13.1765C62.8381 13.0646 63.1484 13.0521 63.2942 13.0521L61.2237 20.7795C61.8333 20.7795 63.3446 20.6859 64.8786 19.5088L60.6859 14.0447ZM63.2942 13.0521H58.3262L56.2557 20.7795H61.2237L63.2942 13.0521ZM53.291 16.9158L52.9322 18.2546H60.9322L61.291 16.9158H53.291ZM55.897 22.1183H59.407L61.4775 14.3909H57.9675L55.897 22.1183ZM59.407 22.1183C59.1435 22.1183 57.9238 22.074 57.2089 20.978L64.5638 15.8442C63.7127 14.5395 62.197 14.3909 61.4775 14.3909L59.407 22.1183ZM57.4551 21.2988C56.5815 20.3246 56.8543 19.1351 56.9225 18.8805H64.9225C65.1088 18.1855 65.3575 16.683 64.3176 15.5233L57.4551 21.2988ZM56.9225 18.8805L56.424 20.7409H64.424L64.9225 18.8805H56.9225ZM56.424 20.7409C56.5056 20.4364 56.8489 19.406 58.0352 18.4957L62.228 23.9598C63.6862 22.8408 64.2244 21.4859 64.424 20.7409H56.424ZM58.0352 18.4957C58.6962 17.9885 59.3311 17.7432 59.7664 17.6275C60.1874 17.5156 60.4977 17.5031 60.6436 17.5031L58.5731 25.2305C59.1827 25.2305 60.694 25.1369 62.228 23.9598L58.0352 18.4957ZM60.6436 17.5031H57.1336L55.0631 25.2305H58.5731L60.6436 17.5031ZM52.0983 21.3668L51.6977 22.8621H59.6977L60.0983 21.3668H52.0983ZM54.6624 26.7258H59.6304L61.701 18.9984H56.733L54.6624 26.7258ZM59.6304 26.7258C59.3669 26.7258 58.1472 26.6815 57.4323 25.5855L64.7872 20.4516C63.9362 19.147 62.4205 18.9984 61.701 18.9984L59.6304 26.7258ZM57.6785 25.9063C56.8049 24.9321 57.0778 23.7425 57.146 23.488H65.146C65.3322 22.793 65.5809 21.2905 64.541 20.1308L57.6785 25.9063ZM57.146 23.488L56.6009 25.5222H64.6009L65.146 23.488H57.146ZM56.6009 25.5222C56.6825 25.2177 57.0258 24.1873 58.2121 23.277L62.4048 28.7411C63.863 27.6222 64.4013 26.2672 64.6009 25.5222H56.6009ZM58.2121 23.277C58.873 22.7698 59.508 22.5246 59.9433 22.4089C60.3643 22.2969 60.6746 22.2844 60.8205 22.2844L58.7499 30.0118C59.3596 30.0118 60.8708 29.9182 62.4048 28.7411L58.2121 23.277Z" fill="white" mask="url(#path-1-outside-1_0_1640)"/>
</svg>
